<svg width="28" height="28" viewBox="0 0 28 28" fill="none" xmlns="http://www.w3.org/2000/svg">
<path d="M27.8592 13.4618L24.6543 8.64135L26.2512 3.03983C26.3517 2.69392 26.2512 2.31454 25.9943 2.05789C25.7375 1.80125 25.3578 1.70083 25.0116 1.80125L19.4392 3.43038L14.6038 0.172126C14.3023 -0.0287254 13.9114 -0.0622006 13.5876 0.116334C13.2637 0.28371 13.0515 0.618461 13.0404 0.97553L12.8729 6.80021L8.29431 10.3932C8.00396 10.6164 7.86996 10.9846 7.92579 11.3417C7.98163 11.6987 8.22731 12 8.57349 12.1228L12.8617 13.6626C12.8617 13.6626 12.8059 13.7073 12.7724 13.7296L0.293139 26.2928C-0.097713 26.6833 -0.097713 27.3193 0.293139 27.7099C0.482981 27.9107 0.739827 28 0.996673 28C1.25352 28 1.51036 27.8996 1.70021 27.7099L14.1906 15.169C14.2576 15.1021 14.3023 15.0351 14.3469 14.957L16.022 19.5766C16.089 19.7439 16.1895 19.889 16.3235 20.0117C16.4575 20.1233 16.625 20.2014 16.8037 20.2238C16.8596 20.2238 16.9042 20.2349 16.9601 20.2349C17.1164 20.2349 17.2616 20.2014 17.3956 20.1345C17.5296 20.0675 17.6524 19.9671 17.7418 19.8444L21.2929 15.236L27.0329 15.0351C27.4014 15.0239 27.7252 14.8119 27.8927 14.4883C28.0603 14.1647 28.0268 13.7742 27.8257 13.4729L27.8592 13.4618ZM20.7792 13.2386C20.4777 13.2386 20.2097 13.3948 20.0199 13.6291L17.2839 17.1775L15.754 12.9708C15.6535 12.6918 15.4302 12.4687 15.151 12.3682L10.9521 10.8507L14.4698 8.09458C14.7043 7.91605 14.8383 7.63709 14.8495 7.33581L14.9835 2.8613L18.691 5.36078C18.8138 5.43889 18.9478 5.49468 19.093 5.517C19.2382 5.53931 19.3833 5.52815 19.5285 5.49468L23.8167 4.23378L22.5883 8.54092C22.5437 8.68598 22.5437 8.83104 22.566 8.9761C22.5883 9.12116 22.6442 9.25506 22.7223 9.3778L25.235 13.0824L20.7681 13.2386H20.7792Z" fill="black"/>
</svg>
