<svg width="26" height="26" viewBox="0 0 26 26" fill="none" xmlns="http://www.w3.org/2000/svg">
<path d="M25.8693 12.5002L22.8932 8.02411L24.3761 2.8227C24.4694 2.5015 24.3761 2.14921 24.1376 1.9109C23.8991 1.67259 23.5465 1.57934 23.2251 1.67259L18.0507 3.18535L13.5607 0.159831C13.2807 -0.0266736 12.9178 -0.0577577 12.617 0.108024C12.3163 0.263445 12.1193 0.574286 12.1089 0.905849L11.9534 6.31448L7.70189 9.65084C7.43228 9.85807 7.30785 10.2 7.3597 10.5316C7.41154 10.8631 7.63967 11.1429 7.96113 11.2569L11.943 12.6867C11.943 12.6867 11.8912 12.7282 11.8601 12.7489L0.272241 24.4147C-0.0906925 24.7774 -0.0906925 25.368 0.272241 25.7306C0.448523 25.9171 0.687022 26 0.925521 26C1.16402 26 1.40252 25.9067 1.5788 25.7306L13.177 14.0855C13.2392 14.0233 13.2807 13.9612 13.3222 13.8886L14.8776 18.1782C14.9398 18.3337 15.0331 18.4684 15.1576 18.5823C15.282 18.6859 15.4376 18.7585 15.6035 18.7792C15.6553 18.7792 15.6968 18.7896 15.7486 18.7896C15.8938 18.7896 16.0286 18.7585 16.1531 18.6963C16.2775 18.6341 16.3916 18.5409 16.4745 18.4269L19.772 14.1477L25.102 13.9612C25.4441 13.9508 25.7449 13.7539 25.9004 13.4535C26.056 13.153 26.0248 12.7903 25.8382 12.5106L25.8693 12.5002ZM19.295 12.293C19.015 12.293 18.7662 12.438 18.5899 12.6556L16.0494 15.9505L14.6287 12.0443C14.5354 11.7853 14.328 11.5781 14.0688 11.4848L10.1698 10.0757L13.4362 7.5164C13.654 7.35062 13.7784 7.09158 13.7888 6.81183L13.9132 2.65692L17.3559 4.97787C17.47 5.0504 17.5944 5.1022 17.7292 5.12292C17.864 5.14365 17.9988 5.13329 18.1336 5.1022L22.1155 3.93137L20.9749 7.93085C20.9334 8.06555 20.9334 8.20025 20.9541 8.33495C20.9749 8.46964 21.0267 8.59398 21.0993 8.70796L23.4325 12.1479L19.2847 12.293H19.295Z" fill="black"/>
</svg>
