<svg width="107" height="60" viewBox="0 0 107 60" fill="none" xmlns="http://www.w3.org/2000/svg">
<path id="Rectangle 2559" d="M105.5 22.3333C105.5 10.8274 96.1726 1.5 84.6667 1.5H22.3333C10.8274 1.5 1.5 10.8274 1.5 22.3333C1.5 33.8393 10.8274 43.1667 22.3333 43.1667H44.641C46.574 43.1667 48.141 44.7337 48.141 46.6667V57.364C48.141 57.5445 48.1956 57.6369 48.2448 57.6928C48.3058 57.7621 48.4072 57.8261 48.5394 57.8535C48.6717 57.881 48.7902 57.8626 48.8736 57.8233C48.941 57.7916 49.0279 57.7286 49.0997 57.563L54.4307 45.2738C54.9857 43.9945 56.2471 43.1667 57.6416 43.1667H84.6667C96.1726 43.1667 105.5 33.8393 105.5 22.3333Z" fill="#0094FF" stroke="black" stroke-width="3"/>
</svg>
