<svg width="26" height="23" viewBox="0 0 26 23" fill="none" xmlns="http://www.w3.org/2000/svg">
<path d="M24.4756 5.27556C24.12 4.43111 23.6133 3.67556 22.9556 3.03556C21.6311 1.72889 19.88 1.00889 18.0044 1.00889C16.1556 1.00889 14.4044 1.72 13.0711 3.02667L13.0089 3.08889L12.9467 3.02667C11.6222 1.72 9.87111 1 7.99555 1C6.14667 1 4.39556 1.71111 3.07111 3.00889C2.41333 3.64889 1.90667 4.40445 1.54222 5.24889C1.18667 6.09334 1.00889 6.99111 1 7.90667C1 8.82222 1.17778 9.72 1.53333 10.5644C1.88889 11.4089 2.39555 12.1644 3.04444 12.8044L12.44 22.0844C12.5911 22.2356 12.7867 22.3156 13 22.3156C13.2133 22.3156 13.4089 22.2356 13.56 22.0844L22.9378 12.84C23.5956 12.2 24.1022 11.4533 24.4578 10.6C24.8133 9.75556 24.9911 8.86667 25 7.94222C25 7.02667 24.8222 6.12889 24.4667 5.28444L24.4756 5.27556ZM8.00445 2.59111C9.43556 2.59111 10.7956 3.15111 11.8178 4.15556L12.44 4.77778C12.7511 5.08 13.2489 5.08 13.56 4.77778L14.1822 4.16445C15.2133 3.16 16.5644 2.60889 18.0044 2.60889C19.4444 2.60889 20.7956 3.16889 21.8267 4.18222C22.3244 4.67111 22.7156 5.24889 22.9911 5.89778C23.2667 6.54667 23.4 7.23111 23.4 7.93333C23.4 8.63555 23.2578 9.32 22.9822 9.96889C22.7067 10.6178 22.3156 11.1956 21.8089 11.6844L12.9911 20.3778L4.15556 11.6489C3.65778 11.16 3.26667 10.5822 2.99111 9.93333C2.71556 9.28444 2.58222 8.6 2.58222 7.89778C2.58222 7.19556 2.72444 6.51111 3 5.86222C3.27556 5.21333 3.66667 4.63556 4.16445 4.14667C5.19556 3.14222 6.54667 2.59111 7.97778 2.59111" fill="black"/>
<path d="M8.00445 2.59111C9.43556 2.59111 10.7956 3.15111 11.8178 4.15555L12.44 4.77778C12.7511 5.08 13.2489 5.08 13.56 4.77778L14.1822 4.16445C15.2133 3.16 16.5644 2.60889 18.0044 2.60889C19.4444 2.60889 20.7956 3.16889 21.8267 4.18222C22.3244 4.67111 22.7156 5.24889 22.9911 5.89778C23.2667 6.54667 23.4 7.23111 23.4 7.93333C23.4 8.63555 23.2578 9.32 22.9822 9.96889C22.7067 10.6178 22.3156 11.1956 21.8089 11.6844L12.9911 20.3778L4.15555 11.6489C3.65778 11.16 3.26667 10.5822 2.99111 9.93333C2.71556 9.28444 2.58222 8.6 2.58222 7.89778C2.58222 7.19556 2.72444 6.51111 3 5.86222C3.27556 5.21333 3.66667 4.63556 4.16445 4.14667C5.19556 3.14222 6.54667 2.59111 7.97778 2.59111M24.4756 5.27556C24.12 4.43111 23.6133 3.67556 22.9556 3.03556C21.6311 1.72889 19.88 1.00889 18.0044 1.00889C16.1556 1.00889 14.4044 1.72 13.0711 3.02667L13.0089 3.08889L12.9467 3.02667C11.6222 1.72 9.87111 1 7.99555 1C6.14667 1 4.39556 1.71111 3.07111 3.00889C2.41333 3.64889 1.90667 4.40445 1.54222 5.24889C1.18667 6.09334 1.00889 6.99111 1 7.90667C1 8.82222 1.17778 9.72 1.53333 10.5644C1.88889 11.4089 2.39555 12.1644 3.04444 12.8044L12.44 22.0844C12.5911 22.2356 12.7867 22.3156 13 22.3156C13.2133 22.3156 13.4089 22.2356 13.56 22.0844L22.9378 12.84C23.5956 12.2 24.1022 11.4533 24.4578 10.6C24.8133 9.75555 24.9911 8.86667 25 7.94222C25 7.02667 24.8222 6.12889 24.4667 5.28444L24.4756 5.27556Z" stroke="black" stroke-width="0.2"/>
</svg>
