<svg width="28" height="25" viewBox="0 0 28 25" fill="none" xmlns="http://www.w3.org/2000/svg">
<path d="M26.4319 5.61343C26.0467 4.70225 25.4978 3.88699 24.7852 3.19641C23.3504 1.78649 21.4533 1.00959 19.4215 1.00959C17.4185 1.00959 15.5215 1.7769 14.077 3.18682L14.0096 3.25396L13.9422 3.18682C12.5074 1.7769 10.6104 1 8.57852 1C6.57555 1 4.67852 1.76731 3.24371 3.16764C2.53111 3.85822 1.98222 4.67348 1.58741 5.58466C1.20222 6.49583 1.00963 7.46455 1 8.45246C1 9.44037 1.19259 10.4091 1.57778 11.3203C1.96296 12.2314 2.51185 13.0467 3.21481 13.7373L13.3933 23.7506C13.557 23.9137 13.7689 24 14 24C14.2311 24 14.443 23.9137 14.6067 23.7506L24.7659 13.7756C25.4785 13.0851 26.0274 12.2794 26.4126 11.3586C26.7978 10.4475 26.9904 9.48832 27 8.49083C27 7.50292 26.8074 6.53419 26.4222 5.62302L26.4319 5.61343ZM8.58815 2.71685C10.1385 2.71685 11.6119 3.3211 12.7193 4.40492L13.3933 5.07631C13.7304 5.40242 14.2696 5.40242 14.6067 5.07631L15.2807 4.41451C16.3978 3.33069 17.8615 2.73603 19.4215 2.73603C20.9815 2.73603 22.4452 3.34029 23.5622 4.4337C24.1015 4.96122 24.5252 5.58466 24.8237 6.28482C25.1222 6.98499 25.2667 7.72352 25.2667 8.48123C25.2667 9.23895 25.1126 9.97748 24.8141 10.6776C24.5156 11.3778 24.0919 12.0013 23.543 12.5288L13.9904 21.9091L4.41852 12.4904C3.87926 11.9629 3.45556 11.3394 3.15704 10.6393C2.85852 9.93912 2.71407 9.20059 2.71407 8.44287C2.71407 7.68516 2.86815 6.94662 3.16667 6.24646C3.46519 5.54629 3.88889 4.92285 4.42815 4.39533C5.54519 3.31151 7.00889 2.71685 8.55926 2.71685" fill="black"/>
<path d="M8.58815 2.71685C10.1385 2.71685 11.6119 3.3211 12.7193 4.40492L13.3933 5.07631C13.7304 5.40242 14.2696 5.40242 14.6067 5.07631L15.2807 4.41451C16.3978 3.33069 17.8615 2.73603 19.4215 2.73603C20.9815 2.73603 22.4452 3.34029 23.5622 4.4337C24.1015 4.96122 24.5252 5.58466 24.8237 6.28482C25.1222 6.98499 25.2667 7.72352 25.2667 8.48123C25.2667 9.23895 25.1126 9.97748 24.8141 10.6776C24.5156 11.3778 24.0919 12.0013 23.543 12.5288L13.9904 21.9091L4.41852 12.4904C3.87926 11.9629 3.45556 11.3394 3.15704 10.6393C2.85852 9.93912 2.71407 9.20059 2.71407 8.44287C2.71407 7.68516 2.86815 6.94662 3.16667 6.24646C3.46519 5.54629 3.88889 4.92285 4.42815 4.39533C5.54519 3.31151 7.00889 2.71685 8.55926 2.71685M26.4319 5.61343C26.0467 4.70225 25.4978 3.88699 24.7852 3.19641C23.3504 1.78649 21.4533 1.00959 19.4215 1.00959C17.4185 1.00959 15.5215 1.7769 14.077 3.18682L14.0096 3.25396L13.9422 3.18682C12.5074 1.7769 10.6104 1 8.57852 1C6.57555 1 4.67852 1.76731 3.24371 3.16764C2.53111 3.85822 1.98222 4.67348 1.58741 5.58466C1.20222 6.49583 1.00963 7.46455 1 8.45246C1 9.44037 1.19259 10.4091 1.57778 11.3203C1.96296 12.2314 2.51185 13.0467 3.21481 13.7373L13.3933 23.7506C13.557 23.9137 13.7689 24 14 24C14.2311 24 14.443 23.9137 14.6067 23.7506L24.7659 13.7756C25.4785 13.0851 26.0274 12.2794 26.4126 11.3586C26.7978 10.4475 26.9904 9.48832 27 8.49083C27 7.50292 26.8074 6.53419 26.4222 5.62302L26.4319 5.61343Z" stroke="black" stroke-width="0.2"/>
</svg>
