<svg width="31" height="31" viewBox="0 0 31 31" fill="none" xmlns="http://www.w3.org/2000/svg">
<circle cx="15.0115" cy="15.0114" r="10.1428" fill="url(#paint0_linear_578_1889)"/>
<path fill-rule="evenodd" clip-rule="evenodd" d="M15.0541 30.1082C17.031 30.1082 18.9886 29.7188 20.815 28.9622C22.6415 28.2057 24.301 27.0968 25.6989 25.6989C27.0968 24.301 28.2057 22.6415 28.9622 20.815C29.7188 18.9886 30.1082 17.031 30.1082 15.0541C30.1082 13.0772 29.7188 11.1196 28.9622 9.29313C28.2057 7.46669 27.0968 5.80714 25.6989 4.40924C24.301 3.01134 22.6415 1.90246 20.815 1.14592C18.9886 0.389385 17.031 -2.94586e-08 15.0541 0C11.0615 5.94942e-08 7.23243 1.58605 4.40924 4.40924C1.58605 7.23243 0 11.0615 0 15.0541C0 19.0467 1.58605 22.8757 4.40924 25.6989C7.23243 28.5221 11.0615 30.1082 15.0541 30.1082ZM14.666 21.1426L23.0294 11.1066L20.4602 8.96554L13.2677 17.5949L9.54596 13.8715L7.1808 16.2367L12.1988 21.2547L13.4935 22.5493L14.666 21.1426Z" fill="white"/>
<defs>
<linearGradient id="paint0_linear_578_1889" x1="1.34071" y1="25.1542" x2="28.5352" y2="4.86853" gradientUnits="userSpaceOnUse">
<stop stop-color="#5A13A5"/>
<stop offset="1" stop-color="#FC17AF"/>
</linearGradient>
</defs>
</svg>
