<svg width="25" height="25" viewBox="0 0 25 25" fill="none" xmlns="http://www.w3.org/2000/svg">
<g clip-path="url(#clip0_1335_5901)">
<path d="M21.1858 0.00696715C21.0145 0.0322514 20.8806 0.16216 20.7962 0.306019C20.6788 0.505677 20.2901 1.52838 20.2423 1.75768C20.1066 2.40025 20.7849 2.70017 21.1215 2.24767C21.2215 2.11253 21.6728 0.928534 21.7137 0.73585C21.7963 0.347868 21.6363 -0.0575512 21.1867 0.00783902L21.1858 0.00696715ZM23.4807 1.81959C23.2937 1.85097 22.2841 2.57724 22.1024 2.74115C21.5371 3.25207 21.9911 3.88417 22.5276 3.65662C22.6824 3.59122 23.9033 2.7272 23.9824 2.61822C24.2555 2.23983 23.952 1.74024 23.4807 1.81959ZM22.8946 4.66188C22.3145 4.75866 22.3467 5.51806 22.7954 5.61919C23.0207 5.66976 24.3372 5.66192 24.5807 5.61832C25.1129 5.52155 25.1486 4.76651 24.6294 4.66188C24.3642 4.6087 23.172 4.61567 22.8937 4.66188H22.8946Z" fill="white"/>
<path d="M-0.000106967 14.2481C0.177291 13.5166 0.813834 13.0981 1.20863 12.4974L2.2591 4.73599C2.61564 3.08118 4.72788 2.46651 5.88619 3.71939C6.46881 4.34975 6.44794 5.01847 6.52012 5.82495L11.7212 0.608553C12.9438 -0.456 14.9135 0.207493 15.19 1.80912C15.4204 1.72019 15.6074 1.54756 15.8396 1.45688C17.3457 0.869242 18.9084 2.07765 18.7414 3.68102C18.7101 3.97833 18.5771 4.22158 18.511 4.50232C19.851 4.75778 20.5267 6.19027 19.9997 7.44053C19.9136 7.64454 19.7336 7.80323 19.7319 8.02817C21.2276 8.30978 21.865 10.0474 21.0215 11.3055C20.8684 11.5331 20.6606 11.6944 20.5145 11.9228C20.9911 12.0989 21.4102 12.296 21.7328 12.7075C22.4137 13.5733 22.2963 14.7058 21.6128 15.5228C20.6928 16.6222 19.2093 17.9884 18.1457 19.0007C16.2987 20.7583 14.1986 22.5309 11.796 23.4568C11.5246 23.5614 11.1272 23.6207 10.8959 23.7297C9.95241 24.1752 9.23239 25.6443 7.88712 24.68C6.0888 22.6207 3.67654 20.8194 1.92779 18.7557C1.5356 18.2927 1.31646 17.8541 1.48777 17.236C1.52255 17.1122 1.6756 16.8698 1.65299 16.7817C1.10602 16.0991 0.232945 15.6239 -0.000976562 14.739V14.249L-0.000106967 14.2481ZM7.91234 8.95933L13.9456 2.98614C14.81 1.86143 13.5369 0.557985 12.4047 1.34354L7.13145 6.63492V6.70641C7.46189 6.89822 7.7506 7.40391 7.84104 7.7823C7.85495 7.83897 7.91147 8.1232 7.91147 8.15197V8.9602L7.91234 8.95933ZM15.19 3.32704C15.7213 3.46044 16.1909 3.87022 16.4361 4.35498C16.5379 4.55638 16.577 4.75081 16.6796 4.94262C17.0501 4.62264 17.6544 4.15358 17.7257 3.64179C17.8457 2.77515 17.1092 2.12561 16.2744 2.38281C15.8422 2.51533 15.5065 3.01579 15.19 3.32704ZM5.46791 6.21468C5.44791 5.65232 5.58531 4.8842 5.1766 4.42996C4.60005 3.78739 3.54263 4.02367 3.28609 4.83538L2.17736 12.881C2.10779 13.1626 1.35994 13.8392 1.15298 14.1557C0.963405 14.4451 0.963405 14.5846 1.17385 14.8593C1.47734 15.2568 1.99214 15.6178 2.31997 16.011C2.5739 15.8157 2.61129 15.6841 2.67216 15.385C3.15131 13.0074 3.20348 10.3901 3.66959 8.01073C3.85481 7.06475 4.48353 6.33587 5.46878 6.21555L5.46791 6.21468ZM15.9883 15.7983C15.7665 15.589 15.7752 15.2333 15.9718 15.0075C17.177 13.6108 18.8719 12.3492 20.0267 10.9437C20.9771 9.78673 19.7684 8.46672 18.6727 9.14591L14.4039 13.3867C13.7734 13.9211 13.1003 13.1234 13.6743 12.5575L18.9214 7.28969C19.7345 6.19375 18.4466 4.91734 17.3631 5.67848L11.8629 11.1338C11.2759 11.3953 10.8185 10.6943 11.262 10.2375L15.51 5.92609C16.1292 4.77871 14.7848 3.70718 13.7995 4.50494L7.67147 10.6028C7.37232 10.6804 7.05405 10.5993 6.96883 10.2732C6.73491 9.37259 7.36363 7.29754 5.88792 7.19466C5.06181 7.13712 4.77832 7.65152 4.64875 8.35599C4.18439 10.8757 4.02786 13.5393 3.60437 16.0747C3.41479 16.4313 2.51389 17.1845 2.45128 17.5176C2.42433 17.6615 2.46867 17.8114 2.56259 17.923L8.50106 23.8692C8.66193 23.986 8.83238 23.9625 9.00716 23.891C9.40718 23.7271 9.95415 23.0819 10.369 22.8569C10.675 22.6913 11.0803 22.6477 11.4064 22.5256C15.1778 21.1219 18.2797 17.3493 21.0606 14.5759C21.578 13.4564 20.3545 12.4102 19.3397 13.194C18.4814 13.8557 17.577 15.2333 16.7196 15.807C16.4874 15.9622 16.2109 16.0093 15.9874 15.7983H15.9883Z" fill="#424B5A" stroke="#424B5A" stroke-width="0.4"/>
<path d="M21.1862 0.00698452C21.6358 -0.0584057 21.7958 0.347014 21.7132 0.734996C21.6723 0.927679 21.2218 2.11255 21.121 2.24682C20.7853 2.69932 20.1061 2.3994 20.2418 1.75683C20.2905 1.52753 20.6783 0.504822 20.7957 0.305164C20.8801 0.161305 21.014 0.0313969 21.1853 0.00611265L21.1862 0.00698452Z" fill="#424B5A"/>
<path d="M23.4809 1.81958C23.9522 1.74024 24.2566 2.23982 23.9827 2.61822C23.9035 2.7272 22.6826 3.59122 22.5278 3.65661C21.9913 3.8833 21.5374 3.25207 22.1026 2.74115C22.2843 2.57724 23.2939 1.85097 23.4809 1.81958Z" fill="#424B5A"/>
<path d="M22.8948 4.66189C23.1731 4.61568 24.3653 4.60784 24.6306 4.66189C25.1497 4.76652 25.1132 5.52243 24.5819 5.61834C24.3384 5.6628 23.0218 5.67065 22.7966 5.61921C22.3479 5.51807 22.3157 4.75867 22.8957 4.66189H22.8948Z" fill="#424B5A"/>
</g>
<defs>
<clipPath id="clip0_1335_5901">
<rect width="25" height="25" fill="white"/>
</clipPath>
</defs>
</svg>
