<svg width="215" height="221" viewBox="0 0 215 221" fill="none" xmlns="http://www.w3.org/2000/svg">
<g id="Group 482362">
<path id="Vector" d="M28.1792 36.1098C22.1535 23.6553 7.84306 28.3125 2.66447 39.101C-5.14604 55.3769 5.46689 78.9551 18.3015 89.8767C22.4305 93.3895 25.2169 95.9389 30.257 92.2132C36.1495 87.8542 35.1905 87.7796 42.9797 85.7625C57.402 82.0261 72.9698 80.5625 87.8449 80.291C82.8687 87.9127 68.6649 99.8189 73.9767 109.841C76.5394 114.679 83.1724 117.037 88.2551 117.931C95.4689 119.198 103.61 118.937 110.754 117.543L105.938 185.914C104.627 189.773 107.686 193.844 108.085 196.628C108.394 198.762 107.009 201.631 108.607 204.26C104.601 205.538 95.7939 208.784 95.3091 213.665C95.0321 216.443 97.7865 218.886 100.445 219.009C105.661 219.248 112.145 218.37 117.393 218.115C124.084 217.785 132.055 220.361 130.941 210.477C130.76 208.896 128.885 205.016 128.959 204.644C129.098 203.93 130.68 203.159 130.973 201.344C131.351 199.029 130.419 197.171 130.451 195.015C130.483 192.86 131.367 189.768 131.533 187.532C132.779 170.559 134.117 153.554 136.333 136.703C137.638 136.538 137.18 136.703 137.452 137.448C140.798 146.624 143.147 159.334 145.225 169.069C146.765 176.286 147.452 186.281 149.684 192.823C150.334 194.733 151.922 196.314 152.199 197.23C152.828 199.305 152.098 202.28 154.437 204.037C154.405 204.979 140.27 210.86 143.126 217.471C144.239 220.047 146.307 220.43 148.843 220.26C154.245 219.898 165.886 217.141 171.4 215.65C177.117 214.107 179.28 212.712 177.08 206.443C176.664 205.256 174.304 201.786 174.331 201.376C174.363 200.812 175.79 199.779 175.806 197.65C175.822 195.521 174.453 194.127 174.32 192.785C174.123 190.768 175.295 187.277 174.629 184.935L161.331 117.883C161.693 115.983 176.44 116.632 178.683 116.473C193.649 115.414 207.022 107.744 195.471 92.0003C214.55 86.1882 219.723 64.5101 210.666 47.8084C205.493 38.2707 195.349 32.1126 185.482 28.2592C181.694 26.7796 166.712 23.0326 165.092 20.9516C164.021 19.5784 166.717 19.5305 167.745 18.7907C176.968 12.1643 169.871 -1.76976 158.417 1.48755C156.099 2.14752 155.06 3.6378 153.121 4.71824C139.908 -4.76628 115.123 4.21262 116.626 22.0054C116.764 23.6394 117.654 25.1882 117.632 26.7423C117.467 39.0956 95.2345 46.2649 102.294 61.338C103.061 62.9773 105.384 64.2333 103.525 65.3723C92.1124 62.1683 80.2368 57.3941 70.6362 50.3898C64.8502 46.1691 67.4981 46.1106 65.3564 40.2293C62.2236 31.6336 52.7402 27.7004 44.0346 28.8021C37.9343 29.5739 33.2938 33.2037 28.1898 36.1151L28.1792 36.1098ZM161.448 16.864C160.303 13.1596 158.438 10.2003 156.078 7.17719C165.449 -2.82892 175.62 15.8421 161.448 16.864ZM119.817 22.2662C119.295 6.25642 140.627 -1.0406 152.316 8.68875C159.855 14.9639 156.285 21.8085 168.55 26.5348C179.962 30.9311 189.669 31.623 199.733 40.0909C216.622 54.2964 216.329 82.3774 193.308 89.0783C181.022 73.7285 166.552 56.1912 146.52 51.4702C145.401 45.919 147.495 46.1106 150.452 43.0289C151.315 42.1294 152.151 40.0484 152.876 39.5959C153.6 39.1435 154.783 39.2234 155.71 38.7018C163.723 34.2203 157.692 21.2603 148.587 26.5241L146.386 15.9485C142.593 16.2253 139.812 18.6416 135.534 18.5831C129.934 18.5086 126.493 12.8189 122.465 16.667L119.822 22.2662H119.817ZM133.658 47.8137L141.426 47.3241C142.796 43.311 137.66 44.8971 135.054 44.5671C122.22 42.9491 119.939 27.86 125.938 18.5884C130.872 23.0007 137.798 21.9948 143.765 20.6908C144.037 22.5855 145.497 29.6271 146.978 30.5212C149.684 32.1552 151.213 28.701 152.902 28.9032C155.944 29.2652 156.919 32.9163 154.735 35.0666C152.94 36.8283 150.206 35.5775 149.088 36.344C148.054 37.1104 149.05 38.3611 148.805 39.3245C148.07 42.2039 143.589 43.0928 142.987 44.0827C141.821 46.0041 143.728 54.2326 142.199 55.5365C140.925 56.6223 134.932 56.7607 133.648 55.5365C132.721 54.653 134.244 49.4956 133.664 47.8084L133.658 47.8137ZM51.2218 32.5118C55.4307 33.1665 60.3909 36.9614 62.0052 40.8999C66.7522 52.5081 57.6684 63.2966 49.7673 70.716C42.3617 77.6724 33.8213 83.5324 26.5649 90.691C24.551 91.7076 16.8896 83.8624 15.4085 82.1326C6.76154 72.0253 -0.473587 52.902 5.95703 40.2559C8.92993 34.4119 16.4474 29.4408 22.585 33.9861C28.6054 38.4463 23.0485 42.1347 24.9452 47.5902C28.8185 48.9687 27.5452 43.6197 28.7759 41.2299C32.0205 34.9388 44.6047 31.4793 51.2271 32.5118H51.2218ZM113.717 41.214L119.806 33.4539C120.653 39.2606 124.154 44.5298 129.684 46.7386L129.929 52.6039L117.691 55.5472L106.86 61.6094C104.281 60.9494 104.622 54.1155 105.144 52.061C106.135 48.181 111.122 44.1785 113.717 41.214ZM41.4933 82.4093C50.966 73.5688 63.9019 65.3777 66.0064 51.5447C81.4036 62.3386 99.241 68.9596 117.675 72.5735C120.089 73.0472 131.602 75.7723 131.559 72.0307C131.533 69.7261 128.331 70.8012 127.095 70.6681C120.44 69.9336 114.026 68.0335 107.558 66.4421C113.232 60.2735 121.479 57.1812 129.705 55.9836C132.22 60.6939 138.954 60.8909 143.286 58.7672C145.651 57.607 145.566 55.6377 145.982 55.3343C147.441 54.2698 157.026 59.0387 158.875 60.1617C168.486 65.9684 191.795 88.8707 195.556 99.0951C200.73 113.152 177.378 113.301 168.822 113.295L167.229 101.586C167.607 101.235 175.897 101.836 177.591 101.554C179.12 101.304 179.792 100.005 181.321 99.9573C183.132 99.9041 188.359 103.023 189.035 100.713C190.239 96.5989 180.724 97.2748 179.483 96.5244C178.635 96.0081 175.087 90.6378 173.894 89.3338C171.363 86.5608 159.871 75.2507 156.802 74.9633C155.774 74.8675 155.033 75.1762 154.932 76.3152C154.751 78.4229 156.941 78.3856 157.111 79.0775C157.388 80.2112 157.346 91.9843 157.09 93.3309C156.834 94.6775 155.817 94.8478 155.247 95.7686C154.89 96.3487 155.135 97.4558 154.879 97.7698C154.421 98.3287 150.585 97.9454 149.455 101.682C148.693 104.194 149.871 104.215 150.025 105.647C150.127 106.621 149.466 107.834 149.652 109.266C149.823 110.607 151.501 111.959 149.823 113.322L118.272 113.769C116.903 111.331 118.458 110.32 118.735 108.739C118.986 107.345 118.32 106.243 118.373 105.115C118.41 104.268 119.162 103.481 119.124 102.469C118.948 97.9987 113.487 97.4079 113.381 97.0034L113.951 84.022C115.048 82.915 124.553 90.1588 123.029 83.8411C122.87 83.1864 113.791 79.9238 112.347 79.498C96.7476 74.9154 77.0721 76.5228 61.0089 78.7688C54.4557 79.6843 48.0304 81.4513 41.4879 82.4147L41.4933 82.4093ZM101.164 115.408C92.4268 115.563 71.7923 114.307 77.1787 100.766C78.3348 97.855 90.7539 81.0681 93.0182 80.3975C98.1222 79.8227 103.146 80.8286 108.09 81.8931C105.149 85.5602 101.377 88.5248 98.2287 91.9897C97.1791 93.1446 93.7854 98.2861 93.1727 98.648C91.6223 99.5688 79.443 99.1749 84.9892 104.157C86.9445 103.587 89.2248 102.017 91.3346 102.081C92.8637 102.129 93.535 103.428 95.064 103.678C96.7902 103.96 98.8574 103.539 100.632 103.704C100.157 108.031 97.9144 111.448 101.164 115.408ZM163.505 98.9194C164.123 96.1571 160.649 94.5391 160.319 92.7827C159.727 89.6797 160.553 85.0652 160.846 81.8824C161.299 81.3129 170.75 90.856 171.512 91.7129C172.317 92.623 175.455 96.3008 175.753 97.0566C176.115 97.9774 175.524 97.7751 174.97 97.8496C171.411 98.318 167.122 97.7964 163.51 98.9141L163.505 98.9194ZM96.3693 99.9733C99.875 95.6302 104.196 89.7968 108.618 86.4012C109.151 85.9913 109.295 85.3686 110.216 85.6081L109.742 92.7348C104.904 92.8838 106.018 96.535 104.34 98.6267C102.661 100.718 98.7189 99.8189 96.364 99.9679L96.3693 99.9733ZM108.069 101.554C108.426 101.197 107.329 96.9714 109.422 96.2636C110.696 97.2003 109.795 99.0259 110.973 100.026C112.225 101.086 116.631 100.404 115.278 103.177C113.727 103.475 109.348 102.203 109.124 104.508C108.826 107.563 113.946 105.711 115.539 107.701C113.669 109.676 110.019 107.1 108.724 109.91L109.257 111.603L114.484 112.225C115.645 115.802 105.613 113.705 104.196 113.183C100.77 111.927 104.254 107.308 104.35 106.078C104.425 105.125 103.53 104.162 104.063 103.183C104.931 101.464 107.915 101.714 108.069 101.559V101.554ZM152.844 103.699C152.236 100.458 156.632 101.66 157.692 100.298L158.965 96.7905C160.889 98.1477 159.2 100.245 160.388 102.022C165.407 101.804 163.393 104.678 164.149 107.568C164.496 108.894 166.872 110.975 164.959 113.152C164.373 113.817 152.37 116.175 153.627 113.285C154.65 111.4 157.559 112.774 158.726 111.981C159.78 111.262 159.503 109.309 157.9 109.027C156.19 108.723 152.886 110.011 152.838 107.435C160.873 107.355 162.013 102.704 152.838 103.704L152.844 103.699ZM114.026 117.622C114.462 116.936 122.161 117.622 123.829 117.564C129.3 117.388 147.228 115.477 151.272 116.718C152.061 116.957 152.599 117.851 153.664 118.053C155.049 118.314 156.738 117.936 158.171 118.075L171.416 187.069C172.876 195.26 164.021 196.383 157.878 195.808C155.859 195.622 154.522 195.164 153.494 193.27C150.793 181.385 148.96 169.329 146.189 157.455C144.058 148.327 140.254 138.231 138.587 129.396C138.31 127.937 138.496 126.458 138.464 124.994C136.45 125.116 135.278 124.169 134.873 126.442C131.357 146.363 130.403 164.848 128.336 184.866C127.388 194.057 128.709 198.661 117.414 197.379C112.465 196.814 109.241 193.669 109.268 188.591L114.026 117.617V117.622ZM156.046 198.975C161.027 200.29 167.399 199.108 171.763 196.319C173.968 199.619 167.602 201.354 165.114 201.919C161.698 202.701 155.747 204.234 156.046 198.975ZM127.798 199.508C128.128 204.58 113.828 204.436 111.804 202.451C110.925 201.589 111.351 200.077 111.292 198.975C116.221 201.354 122.795 202.179 127.798 199.508ZM146.456 216.002C145.555 215.129 149.407 211.563 150.174 210.94C155.678 206.48 157.447 206.996 163.632 205.751C166.115 205.25 168.513 204.362 170.963 203.765C170.25 205.101 168.864 205.671 168.262 207.177C167.458 209.189 168.188 210.259 167.793 212.015L146.461 215.996L146.456 216.002ZM99.0332 214.405C98.0103 213.399 101.367 211.217 102.054 210.775C109.46 206.033 112.646 207.289 120.627 206.975C122.145 206.916 123.584 206.224 125.129 206.427L121.831 209.774C121.207 211.19 120.547 212.409 121.399 213.867L99.0226 214.4L99.0332 214.405ZM171.496 211.217C171.379 209.514 171.219 207.347 173.35 206.964L174.464 210.184L171.496 211.217ZM124.612 213.878C124.228 211.515 125.123 210.402 127.265 209.625L127.761 213.303L124.612 213.883V213.878Z" fill="black"/>
<path id="Vector_2" d="M16.4095 24.8901C16.9636 23.0752 14.4383 16.8427 12.174 18.2531C9.90965 19.6635 13.7137 26.737 16.4095 24.8901Z" fill="black"/>
<path id="Vector_3" d="M23.3097 19.1473C20.827 17.5931 16.6394 23.8949 18.552 25.2308C20.7364 26.7583 25.1105 20.2756 23.3097 19.1473Z" fill="black"/>
<path id="Vector_4" d="M41.4932 82.4093C48.0303 81.4406 54.461 79.6789 61.0141 78.7635C77.0827 76.5174 96.7528 74.9101 112.353 79.4926C113.796 79.9184 122.875 83.1811 123.035 83.8357C124.558 90.1481 115.054 82.9096 113.956 84.0167L113.386 96.998C113.498 97.4025 118.959 97.9933 119.129 102.464C119.167 103.475 118.416 104.268 118.378 105.109C118.325 106.232 118.986 107.334 118.741 108.734C118.458 110.315 116.908 111.326 118.277 113.764L149.828 113.317C151.506 111.954 149.828 110.602 149.658 109.261C149.471 107.829 150.132 106.616 150.031 105.642C149.876 104.21 148.704 104.189 149.46 101.676C150.59 97.9401 154.426 98.3233 154.884 97.7645C155.145 97.4451 154.895 96.3434 155.252 95.7632C155.822 94.8425 156.834 94.6562 157.095 93.3256C157.356 91.995 157.399 80.2058 157.116 79.0722C156.946 78.3803 154.756 78.4228 154.937 76.3098C155.033 75.1709 155.774 74.8622 156.807 74.958C159.876 75.2454 171.368 86.5608 173.899 89.3284C175.092 90.6378 178.635 96.0081 179.488 96.519C180.729 97.2695 190.245 96.5988 189.04 100.708C188.364 103.018 183.137 99.8987 181.326 99.952C179.797 99.9999 179.125 101.299 177.596 101.549C175.902 101.825 167.617 101.224 167.234 101.581L168.827 113.29C177.383 113.295 200.735 113.146 195.562 99.0897C191.8 88.8654 168.491 65.9631 158.88 60.1564C157.026 59.0386 147.441 54.2698 145.987 55.3289C145.571 55.6323 145.656 57.6016 143.291 58.7619C138.959 60.8855 132.225 60.6939 129.71 55.9783C121.484 57.1758 113.242 60.2681 107.563 66.4368C114.031 68.0282 120.445 69.9283 127.1 70.6628C128.336 70.8012 131.538 69.7207 131.564 72.0253C131.607 75.7723 120.094 73.0419 117.68 72.5682C99.2462 68.9543 81.4088 62.3332 66.0116 51.5394C63.9071 65.3723 50.9713 73.5635 41.4985 82.404L41.4932 82.4093Z" fill="#0094FF"/>
<path id="Vector_5" d="M114.027 117.622L109.269 188.597C109.242 193.669 112.466 196.82 117.415 197.384C128.71 198.667 127.389 194.063 128.337 184.871C130.404 164.848 131.358 146.363 134.874 126.447C135.274 124.169 136.451 125.122 138.465 124.999C138.497 126.458 138.316 127.943 138.588 129.401C140.255 138.241 144.065 148.333 146.19 157.461C148.961 169.335 150.794 181.39 153.495 193.275C154.523 195.175 155.86 195.627 157.879 195.814C164.022 196.383 172.877 195.266 171.417 187.074L158.173 118.08C156.734 117.942 155.05 118.32 153.665 118.059C152.6 117.857 152.062 116.962 151.273 116.723C147.229 115.488 129.296 117.394 123.83 117.569C122.162 117.622 114.463 116.941 114.027 117.628V117.622Z" fill="#1EE08D"/>
<path id="Vector_6" d="M119.817 22.2662L122.459 16.667C126.492 12.8189 129.934 18.5086 135.528 18.5831C139.807 18.6416 142.588 16.2253 146.381 15.9485L148.581 26.5241C157.687 21.2603 163.718 34.2203 155.705 38.7018C154.772 39.2234 153.605 39.1329 152.87 39.5959C152.135 40.059 151.314 42.1347 150.446 43.0289C147.489 46.1052 145.395 45.9189 146.514 51.4702C166.552 56.1912 181.017 73.7285 193.303 89.0783C216.324 82.3774 216.617 54.2964 199.728 40.0909C189.664 31.623 179.957 30.9364 168.545 26.5348C156.28 21.8085 159.85 14.9639 152.311 8.68874C140.622 -1.04593 119.284 6.25108 119.811 22.2662H119.817ZM204.709 50.5494C205.972 50.8901 206.393 52.8008 206.734 53.86C208.508 59.3527 207.73 65.7289 205.684 71.0673C204.747 73.5209 200.634 82.4253 198.114 77.3744C202.855 71.0354 204.544 65.6651 203.985 57.6761C203.868 56.0475 201.412 49.6553 204.709 50.5494ZM192.434 80.9723C194.597 78.524 199.499 78.9072 197.101 82.1858C194.986 85.0865 189.973 83.7612 192.434 80.9723Z" fill="#6639C3"/>
<path id="Vector_7" d="M51.2217 32.5118C44.5993 31.4846 32.0151 34.9389 28.7705 41.2299C27.5398 43.6144 28.8131 48.9634 24.9398 47.5902C23.0378 42.1294 28.6 38.441 22.5796 33.9862C16.442 29.4408 8.92455 34.4119 5.95165 40.2559C-0.478973 52.9073 6.76147 72.0307 15.4031 82.1326C16.8842 83.8624 24.5456 91.7129 26.5595 90.691C33.8159 83.5377 42.3563 77.6724 49.7619 70.7161C57.663 63.2966 66.7469 52.5081 61.9998 40.9C60.3908 36.9614 55.4253 33.1665 51.2164 32.5118H51.2217Z" fill="#FF1E1E"/>
<path id="Vector_8" d="M133.658 47.8137C134.238 49.5009 132.715 54.653 133.642 55.5419C134.92 56.766 140.914 56.6276 142.193 55.5419C143.722 54.2379 141.809 46.0094 142.981 44.088C143.583 43.0981 148.069 42.2039 148.799 39.3298C149.044 38.3665 148.053 37.1157 149.082 36.3493C150.2 35.5882 152.934 36.8336 154.729 35.0719C156.919 32.9216 155.944 29.2705 152.896 28.9086C151.207 28.7063 149.678 32.1605 146.972 30.5266C145.491 29.6324 144.031 22.5962 143.759 20.6961C137.792 21.9948 130.866 23.006 125.932 18.5937C119.933 27.8654 122.214 42.9544 135.048 44.5724C137.659 44.9024 142.795 43.3216 141.42 47.3294L133.652 47.819L133.658 47.8137ZM135.261 28.1315C134.542 30.4254 136.423 33.901 132.597 32.6608C130.125 31.4473 132.677 27.3012 135.261 28.1315ZM137.792 34.9016C138.133 34.71 138.735 32.2617 139.795 33.9755C141.394 36.5515 136.172 38.5102 135.261 37.1689C133.977 35.2741 137.275 35.189 137.787 34.9069L137.792 34.9016Z" fill="white"/>
<path id="Vector_9" d="M101.163 115.408C97.9185 111.448 100.162 108.031 100.63 103.704C98.8509 103.539 96.789 103.96 95.0628 103.678C93.5338 103.427 92.8625 102.129 91.3334 102.081C89.2236 102.017 86.9433 103.587 84.988 104.157C79.4418 99.1695 91.6158 99.5634 93.1715 98.6479C93.7788 98.286 97.178 93.1446 98.2275 91.9896C101.376 88.5194 105.148 85.5601 108.089 81.893C103.145 80.8285 98.1156 79.8226 93.017 80.3974C90.7527 81.068 78.3336 97.8549 77.1775 100.766C71.7965 114.312 92.4256 115.568 101.163 115.408Z" fill="#0094FF"/>
<path id="Vector_10" d="M113.716 41.2139C111.121 44.1785 106.134 48.1809 105.143 52.0609C104.621 54.1101 104.28 60.9494 106.859 61.6093L117.69 55.5471L129.928 52.6038L129.683 46.7385C124.147 44.5297 120.652 39.2606 119.805 33.4538L113.716 41.2139Z" fill="#6639C3"/>
<path id="Vector_11" d="M99.033 214.405L121.41 213.873C120.557 212.409 121.212 211.195 121.841 209.78L125.139 206.432C123.589 206.23 122.155 206.922 120.637 206.98C112.656 207.289 109.47 206.033 102.064 210.78C101.377 211.222 98.0154 213.399 99.0436 214.41L99.033 214.405Z" fill="#E1C7FF"/>
<path id="Vector_12" d="M146.455 216.002L167.787 212.021C168.187 210.259 167.457 209.189 168.256 207.182C168.858 205.676 170.243 205.107 170.957 203.771C168.512 204.367 166.109 205.256 163.626 205.756C157.441 207.001 155.677 206.48 150.168 210.945C149.401 211.568 145.549 215.134 146.45 216.007L146.455 216.002Z" fill="#E1C7FF"/>
<path id="Vector_13" d="M152.843 103.699C162.018 102.698 160.878 107.35 152.843 107.43C152.891 110.011 156.195 108.723 157.905 109.021C159.508 109.303 159.785 111.262 158.731 111.975C157.564 112.768 154.655 111.39 153.632 113.279C152.38 116.175 164.383 113.811 164.964 113.146C166.877 110.969 164.501 108.894 164.154 107.563C163.392 104.673 165.406 101.799 160.393 102.017C159.21 100.239 160.894 98.1476 158.97 96.7851L157.697 100.293C156.637 101.655 152.241 100.452 152.849 103.694L152.843 103.699Z" fill="white"/>
<path id="Vector_14" d="M108.069 101.554C107.91 101.714 104.931 101.464 104.063 103.177C103.53 104.157 104.425 105.12 104.351 106.073C104.255 107.297 100.77 111.917 104.196 113.178C105.613 113.7 115.645 115.797 114.484 112.22L109.257 111.597L108.725 109.905C110.019 107.095 113.669 109.671 115.539 107.696C113.946 105.711 108.826 107.558 109.124 104.503C109.348 102.198 113.728 103.47 115.278 103.172C116.631 100.399 112.225 101.08 110.973 100.021C109.79 99.0205 110.696 97.195 109.423 96.2582C107.329 96.9661 108.426 101.197 108.069 101.549V101.554Z" fill="white"/>
<path id="Vector_15" d="M161.447 16.8639C175.619 15.842 165.448 -2.82899 156.076 7.17713C158.437 10.2003 160.301 13.1595 161.447 16.8639Z" fill="#6639C3"/>
<path id="Vector_16" d="M156.047 198.975C155.754 204.234 161.705 202.701 165.115 201.919C167.603 201.349 173.97 199.619 171.764 196.319C167.4 199.108 161.028 200.29 156.047 198.975Z" fill="#E1C7FF"/>
<path id="Vector_17" d="M127.797 199.508C122.795 202.179 116.22 201.354 111.292 198.975C111.351 200.077 110.924 201.594 111.803 202.451C113.828 204.431 128.128 204.574 127.797 199.508Z" fill="#E1C7FF"/>
<path id="Vector_18" d="M124.611 213.878L127.76 213.298L127.264 209.62C125.122 210.402 124.222 211.509 124.611 213.873V213.878Z" fill="white"/>
<path id="Vector_19" d="M171.496 211.217L174.464 210.184L173.35 206.964C171.219 207.347 171.379 209.514 171.496 211.217Z" fill="white"/>
<path id="Vector_20" d="M204.709 50.5494C201.406 49.6552 203.867 56.0474 203.984 57.6761C204.549 65.6703 202.855 71.0406 198.113 77.3743C200.639 82.4253 204.746 73.5209 205.684 71.0672C207.725 65.7289 208.502 59.3526 206.734 53.8599C206.393 52.8008 205.972 50.89 204.709 50.5494Z" fill="black"/>
<path id="Vector_21" d="M192.434 80.9723C189.973 83.7666 194.986 85.0919 197.101 82.1858C199.493 78.9019 194.597 78.5187 192.434 80.9723Z" fill="black"/>
<path id="Vector_22" d="M135.262 28.1315C132.678 27.2959 130.126 31.442 132.598 32.6608C136.423 33.9063 134.543 30.4254 135.262 28.1315Z" fill="black"/>
<path id="Vector_23" d="M137.793 34.9016C137.282 35.189 133.984 35.2688 135.268 37.1636C136.179 38.5048 141.4 36.5462 139.802 33.9701C138.736 32.2563 138.139 34.71 137.798 34.8962L137.793 34.9016Z" fill="black"/>
</g>
</svg>
