<svg width="119" height="29" viewBox="0 0 119 29" fill="none" xmlns="http://www.w3.org/2000/svg">
<path d="M43.1719 23.312C41.8279 23.312 40.6479 22.984 39.6319 22.328C38.6239 21.672 37.8399 20.792 37.2799 19.688C36.7199 18.576 36.4399 17.344 36.4399 15.992V6.2H39.3679V15.992C39.3679 16.792 39.5159 17.528 39.8119 18.2C40.1159 18.864 40.5479 19.396 41.1079 19.796C41.6759 20.188 42.3639 20.384 43.1719 20.384C43.9879 20.384 44.6759 20.188 45.2359 19.796C45.7959 19.396 46.2199 18.864 46.5079 18.2C46.8039 17.528 46.9519 16.792 46.9519 15.992V6.2H49.8799V15.992C49.8799 17.008 49.7199 17.96 49.3999 18.848C49.0799 19.728 48.6239 20.504 48.0319 21.176C47.4399 21.848 46.7319 22.372 45.9079 22.748C45.0919 23.124 44.1799 23.312 43.1719 23.312ZM56.7724 23.216C56.1484 23.176 55.5444 23.052 54.9604 22.844C54.3844 22.628 53.8724 22.336 53.4244 21.968C52.9764 21.6 52.6324 21.16 52.3924 20.648L54.8644 19.592C54.9604 19.752 55.1164 19.924 55.3324 20.108C55.5484 20.284 55.8044 20.432 56.1004 20.552C56.4044 20.672 56.7364 20.732 57.0964 20.732C57.4004 20.732 57.6884 20.692 57.9604 20.612C58.2404 20.524 58.4644 20.392 58.6324 20.216C58.8084 20.04 58.8964 19.812 58.8964 19.532C58.8964 19.236 58.7924 19.008 58.5844 18.848C58.3844 18.68 58.1284 18.556 57.8164 18.476C57.5124 18.388 57.2164 18.308 56.9284 18.236C56.1684 18.084 55.4604 17.848 54.8044 17.528C54.1564 17.208 53.6324 16.796 53.2324 16.292C52.8404 15.78 52.6444 15.164 52.6444 14.444C52.6444 13.652 52.8524 12.968 53.2684 12.392C53.6924 11.816 54.2404 11.372 54.9124 11.06C55.5924 10.748 56.3244 10.592 57.1084 10.592C58.0604 10.592 58.9324 10.792 59.7244 11.192C60.5244 11.584 61.1564 12.14 61.6204 12.86L59.3044 14.228C59.1924 14.036 59.0364 13.86 58.8364 13.7C58.6364 13.532 58.4084 13.396 58.1524 13.292C57.8964 13.18 57.6284 13.116 57.3484 13.1C56.9884 13.084 56.6604 13.116 56.3644 13.196C56.0684 13.276 55.8284 13.412 55.6444 13.604C55.4684 13.796 55.3804 14.052 55.3804 14.372C55.3804 14.676 55.5004 14.904 55.7404 15.056C55.9804 15.2 56.2684 15.312 56.6044 15.392C56.9484 15.472 57.2764 15.56 57.5884 15.656C58.2924 15.888 58.9524 16.172 59.5684 16.508C60.1924 16.844 60.6924 17.256 61.0684 17.744C61.4444 18.232 61.6244 18.816 61.6084 19.496C61.6084 20.272 61.3764 20.952 60.9124 21.536C60.4484 22.112 59.8484 22.552 59.1124 22.856C58.3844 23.16 57.6044 23.28 56.7724 23.216ZM69.235 23.312C68.131 23.312 67.123 23.028 66.211 22.46C65.3066 21.892 64.5826 21.128 64.0386 20.168C63.5026 19.208 63.2346 18.148 63.2346 16.988C63.2346 16.116 63.3906 15.3 63.7026 14.54C64.0146 13.772 64.4426 13.1 64.9866 12.524C65.5386 11.94 66.179 11.484 66.907 11.156C67.635 10.828 68.411 10.664 69.235 10.664C70.171 10.664 71.027 10.864 71.803 11.264C72.587 11.656 73.251 12.196 73.795 12.884C74.339 13.572 74.735 14.356 74.983 15.236C75.231 16.116 75.287 17.036 75.151 17.996H66.379C66.491 18.444 66.675 18.848 66.931 19.208C67.187 19.56 67.511 19.844 67.903 20.06C68.295 20.268 68.739 20.376 69.235 20.384C69.747 20.392 70.211 20.272 70.627 20.024C71.051 19.768 71.403 19.424 71.683 18.992L74.671 19.688C74.183 20.752 73.455 21.624 72.487 22.304C71.519 22.976 70.435 23.312 69.235 23.312ZM66.283 15.8H72.187C72.099 15.32 71.911 14.888 71.623 14.504C71.343 14.112 70.995 13.8 70.579 13.568C70.163 13.336 69.715 13.22 69.235 13.22C68.755 13.22 68.311 13.336 67.903 13.568C67.495 13.792 67.147 14.1 66.859 14.492C66.579 14.876 66.387 15.312 66.283 15.8ZM86.678 11H89.606V23H86.678L86.546 21.512C86.218 22.048 85.782 22.484 85.238 22.82C84.702 23.148 84.066 23.312 83.33 23.312C82.442 23.312 81.61 23.144 80.834 22.808C80.058 22.472 79.374 22.008 78.782 21.416C78.198 20.824 77.738 20.14 77.402 19.364C77.074 18.588 76.91 17.756 76.91 16.868C76.91 16.012 77.066 15.208 77.378 14.456C77.698 13.704 78.142 13.044 78.71 12.476C79.278 11.908 79.934 11.464 80.678 11.144C81.422 10.824 82.222 10.664 83.078 10.664C83.87 10.664 84.578 10.84 85.202 11.192C85.834 11.544 86.37 11.992 86.81 12.536L86.678 11ZM83.258 20.492C83.882 20.492 84.434 20.336 84.914 20.024C85.394 19.712 85.77 19.292 86.042 18.764C86.314 18.228 86.45 17.64 86.45 17C86.45 16.352 86.314 15.764 86.042 15.236C85.77 14.7 85.39 14.276 84.902 13.964C84.422 13.652 83.874 13.496 83.258 13.496C82.642 13.496 82.078 13.656 81.566 13.976C81.062 14.288 80.658 14.708 80.354 15.236C80.058 15.764 79.91 16.352 79.91 17C79.91 17.648 80.062 18.236 80.366 18.764C80.67 19.292 81.074 19.712 81.578 20.024C82.09 20.336 82.65 20.492 83.258 20.492ZM92.489 23L92.477 11H95.405L95.417 12.068C95.825 11.636 96.313 11.296 96.881 11.048C97.449 10.792 98.061 10.664 98.717 10.664C99.157 10.664 99.597 10.728 100.037 10.856L98.885 13.808C98.581 13.688 98.277 13.628 97.973 13.628C97.501 13.628 97.069 13.744 96.677 13.976C96.293 14.2 95.985 14.508 95.753 14.9C95.529 15.284 95.417 15.712 95.417 16.184V23H92.489ZM101.863 23V5H104.791V23H101.863ZM115.568 11H118.676L112.112 29H109.004L111.176 23L106.856 11H110.06L112.64 18.992L115.568 11Z" fill="black"/>
<path d="M25.9032 0H3C1.3431 0 0 1.3431 0 3V25C0 26.6569 1.3431 28 3 28H25.9032C27.5601 28 28.9032 26.6569 28.9032 25V3C28.9032 1.3431 27.5601 0 25.9032 0Z" fill="url(#paint0_linear_811_998)"/>
<path d="M15.7348 6.41663H19.4501V16.4338C19.4501 17.5915 19.1768 18.6001 18.6303 19.4595C18.0838 20.3138 17.3217 20.9761 16.344 21.4462C15.3663 21.9113 14.2306 22.1439 12.9371 22.1439C11.6284 22.1439 10.4853 21.9113 9.5076 21.4462C8.5299 20.9761 7.77031 20.3138 7.22881 19.4595C6.68731 18.6001 6.4165 17.5915 6.4165 16.4338V6.41663H10.1393V16.1078C10.1393 16.6436 10.2546 17.1214 10.4853 17.541C10.7209 17.9606 11.0493 18.2892 11.4705 18.5268C11.8917 18.7644 12.3805 18.8832 12.9371 18.8832C13.4936 18.8832 13.9799 18.7644 14.3961 18.5268C14.8173 18.2892 15.1457 17.9606 15.3813 17.541C15.617 17.1214 15.7348 16.6436 15.7348 16.1078V6.41663Z" fill="white"/>
<path d="M23.1277 22.1666C22.5862 22.1666 22.1224 21.9745 21.7363 21.5903C21.3553 21.2061 21.1672 20.741 21.1722 20.195C21.1672 19.6592 21.3553 19.2017 21.7363 18.8225C22.1224 18.4383 22.5862 18.2462 23.1277 18.2462C23.6391 18.2462 24.0903 18.4383 24.4814 18.8225C24.8775 19.2017 25.0781 19.6592 25.0831 20.195C25.0781 20.559 24.9828 20.8901 24.7973 21.1884C24.6168 21.4867 24.3786 21.7243 24.0828 21.9012C23.792 22.0782 23.4736 22.1666 23.1277 22.1666Z" fill="white"/>
<defs>
<linearGradient id="paint0_linear_811_998" x1="-5.0266" y1="28" x2="32.8331" y2="-1.1523" gradientUnits="userSpaceOnUse">
<stop stop-color="#5A13A5"/>
<stop offset="1" stop-color="#FC17AF"/>
</linearGradient>
</defs>
</svg>
