<svg width="127" height="35" viewBox="0 0 127 35" fill="none" xmlns="http://www.w3.org/2000/svg">
<g clip-path="url(#clip0_1122_202)">
<path d="M51.2 26.31C49.86 26.31 48.68 25.98 47.66 25.33C46.65 24.67 45.87 23.79 45.31 22.69C44.75 21.58 44.47 20.35 44.47 18.99V9.2H47.4V18.99C47.4 19.79 47.55 20.53 47.84 21.2C48.14 21.86 48.58 22.4 49.14 22.8C49.71 23.19 50.4 23.39 51.2 23.39C52 23.39 52.7 23.19 53.26 22.8C53.82 22.4 54.24 21.87 54.53 21.2C54.83 20.53 54.97 19.79 54.97 18.99V9.2H57.9V18.99C57.9 20.01 57.74 20.96 57.42 21.85C57.1 22.73 56.64 23.51 56.05 24.18C55.46 24.85 54.75 25.38 53.93 25.75C53.11 26.13 52.2 26.31 51.19 26.31H51.2Z" fill="black"/>
<path d="M64.81 26.22C64.19 26.18 63.58 26.06 63 25.85C62.42 25.63 61.91 25.34 61.46 24.97C61.01 24.6 60.67 24.16 60.43 23.65L62.9 22.59C63 22.75 63.15 22.92 63.37 23.11C63.59 23.29 63.84 23.43 64.14 23.55C64.44 23.67 64.78 23.73 65.14 23.73C65.44 23.73 65.73 23.69 66 23.61C66.28 23.52 66.5 23.39 66.67 23.21C66.85 23.03 66.93 22.81 66.93 22.53C66.93 22.23 66.83 22.01 66.62 21.85C66.42 21.68 66.16 21.56 65.85 21.48C65.55 21.39 65.25 21.31 64.96 21.24C64.2 21.09 63.49 20.85 62.84 20.53C62.19 20.21 61.67 19.8 61.27 19.29C60.88 18.78 60.68 18.16 60.68 17.44C60.68 16.65 60.89 15.96 61.3 15.39C61.72 14.81 62.27 14.37 62.94 14.06C63.62 13.75 64.35 13.59 65.14 13.59C66.09 13.59 66.96 13.79 67.76 14.19C68.56 14.58 69.19 15.14 69.66 15.86L67.34 17.23C67.23 17.04 67.07 16.86 66.87 16.7C66.67 16.53 66.44 16.4 66.19 16.29C65.93 16.18 65.67 16.11 65.39 16.1C65.03 16.08 64.7 16.12 64.41 16.2C64.11 16.28 63.87 16.42 63.69 16.61C63.51 16.8 63.43 17.06 63.43 17.38C63.43 17.7 63.55 17.91 63.79 18.06C64.03 18.2 64.32 18.32 64.65 18.4C64.99 18.48 65.32 18.57 65.63 18.66C66.33 18.89 66.99 19.18 67.61 19.51C68.23 19.85 68.73 20.26 69.11 20.75C69.49 21.24 69.67 21.82 69.65 22.5C69.65 23.28 69.42 23.96 68.95 24.54C68.49 25.12 67.89 25.56 67.15 25.86C66.42 26.16 65.64 26.28 64.81 26.22Z" fill="black"/>
<path d="M77.27 26.31C76.17 26.31 75.16 26.03 74.25 25.46C73.35 24.89 72.62 24.13 72.08 23.17C71.54 22.21 71.28 21.15 71.28 19.99C71.28 19.12 71.44 18.3 71.75 17.54C72.06 16.77 72.49 16.1 73.03 15.52C73.58 14.94 74.22 14.48 74.95 14.15C75.68 13.82 76.45 13.66 77.28 13.66C78.22 13.66 79.07 13.86 79.85 14.26C80.63 14.65 81.3 15.19 81.84 15.88C82.38 16.57 82.78 17.35 83.03 18.23C83.28 19.11 83.33 20.03 83.2 20.99H74.43C74.54 21.44 74.73 21.84 74.98 22.2C75.24 22.55 75.56 22.84 75.95 23.05C76.34 23.26 76.79 23.37 77.28 23.37C77.79 23.37 78.26 23.26 78.67 23.01C79.09 22.75 79.45 22.41 79.73 21.98L82.72 22.68C82.23 23.74 81.5 24.62 80.54 25.3C79.57 25.97 78.49 26.31 77.29 26.31H77.27ZM74.32 18.8H80.22C80.13 18.32 79.94 17.89 79.66 17.5C79.38 17.11 79.03 16.8 78.62 16.56C78.2 16.33 77.76 16.21 77.28 16.21C76.8 16.21 76.36 16.33 75.95 16.56C75.54 16.78 75.19 17.09 74.91 17.48C74.63 17.86 74.44 18.3 74.33 18.79L74.32 18.8Z" fill="black"/>
<path d="M94.71 14H97.64V26H94.71L94.58 24.51C94.25 25.05 93.82 25.48 93.27 25.82C92.73 26.15 92.1 26.31 91.36 26.31C90.47 26.31 89.64 26.14 88.86 25.81C88.08 25.47 87.4 25.01 86.81 24.42C86.23 23.83 85.77 23.14 85.43 22.37C85.1 21.59 84.94 20.76 84.94 19.87C84.94 18.98 85.1 18.21 85.41 17.46C85.73 16.71 86.17 16.05 86.74 15.48C87.31 14.91 87.96 14.47 88.71 14.15C89.45 13.83 90.25 13.67 91.11 13.67C91.9 13.67 92.61 13.85 93.23 14.2C93.86 14.55 94.4 15 94.84 15.54L94.71 14ZM91.29 23.49C91.91 23.49 92.47 23.33 92.95 23.02C93.43 22.71 93.81 22.29 94.08 21.76C94.35 21.22 94.49 20.64 94.49 20C94.49 19.36 94.35 18.76 94.08 18.24C93.81 17.7 93.43 17.28 92.94 16.97C92.46 16.66 91.91 16.5 91.3 16.5C90.69 16.5 90.12 16.66 89.61 16.98C89.11 17.29 88.7 17.71 88.4 18.24C88.1 18.77 87.96 19.36 87.96 20C87.96 20.64 88.11 21.24 88.42 21.76C88.73 22.28 89.13 22.71 89.63 23.02C90.14 23.33 90.7 23.49 91.31 23.49H91.29Z" fill="black"/>
<path d="M100.52 26V14H103.44V15.07C103.86 14.64 104.35 14.3 104.92 14.05C105.49 13.79 106.1 13.67 106.76 13.67C107.2 13.67 107.64 13.73 108.08 13.86L106.93 16.81C106.63 16.69 106.32 16.63 106.02 16.63C105.55 16.63 105.12 16.75 104.72 16.98C104.34 17.2 104.03 17.51 103.8 17.9C103.58 18.28 103.46 18.71 103.46 19.18V26H100.53H100.52Z" fill="black"/>
<path d="M109.9 26V8H112.83V26H109.9Z" fill="black"/>
<path d="M123.6 14H126.71L120.15 32H117.04L119.21 26L114.89 14H118.09L120.67 21.99L123.6 14Z" fill="black"/>
<path d="M32.54 0H3C1.34 0 0 1.34 0 3V31.43C0 33.09 1.34 34.43 3 34.43H32.54C34.2 34.43 35.54 33.09 35.54 31.43V3C35.54 1.34 34.2 0 32.54 0Z" fill="url(#paint0_linear_1122_202)"/>
<path d="M19.35 7.89H23.92V20.21C23.92 21.63 23.58 22.87 22.91 23.93C22.24 24.98 21.3 25.79 20.1 26.37C18.9 26.94 17.5 27.23 15.91 27.23C14.32 27.23 12.9 26.94 11.69 26.37C10.49 25.79 9.55002 24.98 8.89002 23.93C8.22002 22.87 7.89001 21.63 7.89001 20.21V7.89H12.47V19.81C12.47 20.47 12.61 21.06 12.9 21.57C13.19 22.09 13.59 22.49 14.11 22.78C14.63 23.07 15.23 23.22 15.91 23.22C16.59 23.22 17.19 23.07 17.7 22.78C18.22 22.49 18.62 22.08 18.91 21.57C19.2 21.05 19.34 20.47 19.34 19.81V7.89H19.35Z" fill="white"/>
<path d="M28.44 27.25C27.77 27.25 27.2 27.01 26.73 26.54C26.26 26.07 26.03 25.5 26.04 24.82C26.04 24.16 26.26 23.6 26.73 23.13C27.2 22.66 27.77 22.42 28.44 22.42C29.07 22.42 29.62 22.66 30.1 23.13C30.59 23.6 30.83 24.16 30.84 24.82C30.84 25.27 30.72 25.67 30.49 26.04C30.27 26.41 29.98 26.7 29.61 26.92C29.25 27.14 28.86 27.25 28.44 27.25Z" fill="white"/>
</g>
<defs>
<linearGradient id="paint0_linear_1122_202" x1="-8.58" y1="38.3" x2="31.37" y2="6.32999" gradientUnits="userSpaceOnUse">
<stop stop-color="#3D0CFF"/>
<stop offset="1" stop-color="#FF284C"/>
</linearGradient>
<clipPath id="clip0_1122_202">
<rect width="126.71" height="34.43" fill="white"/>
</clipPath>
</defs>
</svg>
