<svg width="160" height="160" viewBox="0 0 160 160" fill="none" xmlns="http://www.w3.org/2000/svg">
<g id="Calque_1" clip-path="url(#clip0_500_3447)">
<path id="Vector" d="M96.4247 51.4347L97.6265 48.6438C99.0999 45.2219 101.303 41.8498 103.53 38.5861C103.914 38.024 104.298 37.4653 104.68 36.909C106.555 34.1807 108.391 31.5109 109.922 28.7906C113.575 22.2982 115.161 16.1246 111.161 9.48182C105.787 0.56413 92.7821 -0.320179 85.999 7.67143M96.4247 51.4347L85.999 7.67143M96.4247 51.4347H99.2469M96.4247 51.4347H99.2469M85.999 7.67143C85.9987 7.67187 85.9983 7.6723 85.9979 7.67274M85.999 7.67143L84.473 6.3787M85.9979 7.67274L106.313 38.0643C112.699 28.7761 119.317 19.1498 112.874 8.45009C106.769 -1.6828 92.1082 -2.61891 84.473 6.3787M85.9979 7.67274C85.9972 7.67359 85.9962 7.67488 85.9948 7.67659L85.9821 7.6928C85.9709 7.70732 85.9561 7.727 85.9376 7.75266C85.9 7.80473 85.8535 7.87192 85.7973 7.95626C85.6837 8.12665 85.5502 8.33682 85.3944 8.5857C85.3348 8.68095 85.2721 8.78166 85.2068 8.88643C84.9425 9.31058 84.6368 9.80115 84.3298 10.2642C83.9552 10.8292 83.5116 11.4573 83.0573 11.9457C82.8347 12.1849 82.533 12.4752 82.1654 12.7016C81.8339 12.9057 81.1229 13.2574 80.242 13.0416L79.3876 12.8324L78.9645 12.0612C73.4686 2.04562 60.3855 -1.32294 51.7898 6.36104L51.7896 6.36124C47.4743 10.2177 46.4865 14.8105 46.8274 19.9736C47.0004 22.5942 47.5156 25.3129 48.1116 28.1254C48.2323 28.6951 48.3569 29.2707 48.4822 29.85C48.9655 32.0835 49.4607 34.3717 49.7945 36.5891C49.8458 36.9296 49.8975 37.2712 49.9494 37.6137C51.1758 45.7142 52.4848 54.3596 50.1568 62.9254L50.1025 63.1253L50.0083 63.3099C47.2875 68.6421 43.4184 74.6168 39.371 80.8668C38.8049 81.7411 38.2352 82.6208 37.6648 83.5048C32.981 90.7629 28.1969 98.3799 24.5521 106.042C17.2333 121.426 14.8326 136.239 26.1529 148.453C33.3506 156.218 45.1634 158.029 58.4385 158C63.3921 157.99 68.4226 157.728 73.384 157.469C75.0193 157.384 76.6471 157.299 78.2621 157.224C84.6271 156.928 90.7956 156.779 96.1587 157.405C106.816 156.217 115.874 150.816 122.138 142.186C124.768 136.609 128.832 130.718 132.792 124.976C133.155 124.45 133.517 123.926 133.877 123.403C138.276 117.008 142.373 110.851 144.531 105.179L144.531 105.179C148.568 94.5668 141.702 83.7924 130.378 83.3054L128.488 83.2241L128.465 81.3324C128.36 73.0022 121.34 66.6157 112.83 66.1506L111.315 66.0678L110.986 64.5865C109.547 58.0963 105.552 52.8962 99.2469 51.4347M85.9979 7.67274L99.2469 51.4347M84.473 6.3787C84.2458 6.64686 83.9001 7.2017 83.5022 7.8402C83.1155 8.4607 82.6796 9.16021 82.2554 9.75239M84.473 6.3787L82.2554 9.75239M82.2554 9.75239C82.3285 9.87971 82.4004 10.0079 82.4712 10.1369L81.5222 10.6577M82.2554 9.75239L81.5222 10.6577M81.5222 10.6577C81.2135 10.974 80.9352 11.1523 80.7179 11.0991L81.5222 10.6577ZM129.953 8.76992L129.953 8.76882C129.844 5.09951 132.314 2.73153 135.122 2.13885C136.525 1.84273 137.916 2.01895 139.03 2.63436C140.061 3.20452 140.982 4.21906 141.47 5.89109V8.32662L144.052 7.54006L145.083 7.22636L146.091 6.91915L146.408 5.91327C147.343 2.93939 149.965 1.75614 152.659 2.14748C155.392 2.54458 157.732 4.50643 157.982 7.53453C158.088 8.81522 157.771 10.5887 157.006 12.6455C156.253 14.6701 155.121 16.8238 153.758 18.8148C152.392 20.8091 150.834 22.5834 149.258 23.8848C147.656 25.2088 146.192 25.9155 145.003 26.0516C143.591 26.2129 141.974 25.7747 140.232 24.7188C138.498 23.6676 136.773 22.08 135.227 20.1944C132.074 16.3484 130.04 11.7345 129.953 8.76992ZM13.4714 49.5893L15.4976 49.5134L16.2144 51.2894C17.4947 50.7726 18.0845 49.723 18.39 49.1167C18.4636 48.9707 18.5329 48.8238 18.5899 48.703L18.6035 48.6743C18.6672 48.5392 18.7177 48.4334 18.7678 48.3355C18.8699 48.1364 18.93 48.0539 18.9606 48.0193L18.9631 48.0164C22.9536 43.4761 30.0035 46.0214 29.9963 52.1703C29.9944 53.3917 29.5588 55.1245 28.6738 57.1389C27.8039 59.1186 26.5642 61.2248 25.1114 63.155C23.655 65.0899 22.0279 66.7903 20.4083 68.0014C18.7598 69.234 17.2943 69.8301 16.1267 69.8675L16.1265 69.8676C14.6461 69.9152 12.6305 69.0668 10.4218 67.2265C8.27086 65.4342 6.20043 62.9148 4.64361 60.1714C3.07834 57.4132 2.11574 54.5768 2.00804 52.1616C1.90258 49.7967 2.60338 48.011 4.17965 46.8452L4.17968 46.8452C5.54544 45.8351 7.89198 45.4732 10.0124 46.0539C12.0875 46.6222 13.3436 47.8852 13.4714 49.5893Z" fill="#0A0A0A" stroke="#1EE18E" stroke-width="4"/>
<path id="Vector_2" d="M133.175 107.101L133.175 107.102C132.88 107.623 132.567 108.177 132.238 108.759C129.905 112.889 126.767 118.445 123.516 123.846C119.824 129.98 115.923 136.026 112.851 139.563C109.305 143.649 104.387 146.023 98.8683 147.37C93.3557 148.715 87.137 149.063 80.8569 149.018C76.3341 148.986 71.7121 148.749 67.2645 148.52C65.5449 148.432 63.8513 148.345 62.1997 148.271C56.2239 148.006 50.7981 147.921 46.4003 148.539L46.2315 148.563L46.0616 148.548C41.9696 148.193 38.0645 146.817 34.7885 144.215C30.2889 140.644 28.1339 136.156 27.6095 131.266C27.0911 126.432 28.1685 121.265 29.9877 116.23C33.0677 107.704 38.4302 99.1686 42.4668 92.7436C43.1845 91.6012 43.8603 90.5255 44.474 89.5284L44.4741 89.5282C54.7754 72.7978 65.4831 56.268 76.1755 39.7619C81.9836 30.7958 87.7871 21.8367 93.5185 12.8562L93.6657 12.6257L93.8847 12.4619C96.7307 10.3339 99.914 10.8423 102.032 12.6742C104.094 14.4569 105.197 17.5233 104.152 20.5727L104.098 20.7318L104.009 20.8749L69.5223 76.6968C69.2347 80.531 73.4851 83.3902 76.9022 81.4344C77.0727 81.3368 77.3803 81.0825 77.8224 80.5781C78.246 80.0948 78.7236 79.4631 79.2458 78.7065C80.2902 77.1933 81.4458 75.2793 82.6243 73.2659C83.0576 72.5256 83.4958 71.7687 83.9311 71.0169C84.6658 69.7479 85.3921 68.4934 86.0724 67.3575C87.1471 65.5632 88.1832 63.9334 89.0501 62.9037L133.175 107.101ZM133.175 107.101C133.365 106.765 133.592 106.386 133.838 105.976C134.702 104.535 135.803 102.7 136.361 100.922C136.735 99.7316 136.93 98.405 136.614 97.0765C136.29 95.7085 135.464 94.5028 134.096 93.5257M133.175 107.101L134.096 93.5257M101.675 68.3878L101.516 68.651L89.4303 88.5682C89.2765 89.7888 89.3581 90.8806 89.6893 91.771C90.0315 92.6911 90.6629 93.4675 91.7631 94.0068C92.768 94.4987 93.6084 94.6132 94.3354 94.5179C95.0737 94.4211 95.8133 94.0919 96.5791 93.511C98.1602 92.3116 99.6277 90.2197 101.12 87.7044C101.637 86.8338 102.163 85.8987 102.694 84.9556C103.621 83.3094 104.561 81.6386 105.488 80.2426C106.235 79.1165 107.037 78.0634 107.914 77.2324C108.789 76.4037 109.82 75.7173 111.028 75.4706L111.029 75.4704C113.343 74.9987 116.085 75.5798 117.874 77.4585C120.264 79.9595 119.708 83.0809 118.463 85.8012C117.399 88.127 115.631 90.6221 113.963 92.9742C113.683 93.3688 113.407 93.7594 113.136 94.1445C111.167 96.9516 109.568 99.4436 109.074 101.539C108.839 102.537 108.888 103.322 109.174 103.967C109.458 104.609 110.063 105.309 111.316 105.974L101.675 68.3878ZM101.675 68.3878L101.718 68.083M101.675 68.3878L101.718 68.083M101.718 68.083C102.243 64.3729 100.469 61.4274 97.6791 60.295M101.718 68.083L97.6791 60.295M134.096 93.5257C132.678 92.5117 131.263 91.9805 129.846 91.988M134.096 93.5257L129.846 91.988M129.846 91.988C128.423 91.9955 127.192 92.5446 126.143 93.3282M129.846 91.988L126.143 93.3282M126.143 93.3282C124.196 94.7827 122.581 97.293 121.138 99.5359M126.143 93.3282L121.138 99.5359M121.138 99.5359C121.099 99.5968 121.06 99.6575 121.021 99.7179M121.138 99.5359L121.021 99.7179M121.021 99.7179C119.452 102.156 118.032 104.325 116.415 105.597M121.021 99.7179L116.415 105.597M116.415 105.597C115.642 106.205 114.894 106.547 114.13 106.636M116.415 105.597L114.13 106.636M114.13 106.636C113.375 106.723 112.46 106.58 111.317 105.974L114.13 106.636ZM97.6791 60.295C94.9086 59.1704 91.5102 59.9806 89.0504 62.9034L97.6791 60.295Z" fill="#FFACAC" stroke="#FFACAC" stroke-width="3"/>
<path id="Vector_3" d="M63.1939 42.8128L61.5912 45.5367L59.3497 49.3465L58.8096 44.9594L55.4981 18.059L55.4804 17.9153L55.4905 17.771C55.6373 15.6729 56.9084 13.9505 58.4266 12.8149C59.9453 11.679 61.9052 10.977 63.7729 11.0592L63.1939 42.8128ZM63.1939 42.8128L63.235 42.7459L74.1403 24.9997L74.5094 24.3991L74.2825 23.7316C73.6149 21.7673 72.4981 18.7676 70.8847 16.2096C69.3232 13.7342 66.998 11.2011 63.773 11.0592L63.1939 42.8128Z" fill="#FFACAC" stroke="#FFACAC" stroke-width="3"/>
</g>
<defs>
<clipPath id="clip0_500_3447">
<rect width="160" height="160" fill="white"/>
</clipPath>
</defs>
</svg>
