<svg width="198" height="164" viewBox="0 0 198 164" fill="none" xmlns="http://www.w3.org/2000/svg">
<g id="Group 482382">
<g id="Group 482377">
<path id="Vector" d="M47.105 45.8932L64.9995 70.0925C65.6188 70.4242 66.4694 69.8891 67.0855 69.6576C75.0132 66.6694 83.3976 60.9466 91.3566 57.6424L92.6044 57.4484L124.931 85.537C125.338 85.609 125.588 85.1803 125.835 84.9425C126.955 83.8568 127.593 82.0701 128.35 80.903C131.002 76.8135 133.641 72.7427 135.846 68.3778L134.867 66.5067L107.397 30.1609C106.762 29.6946 105.958 29.8448 105.223 29.9074C98.2992 30.5019 89.3426 33.1521 82.2717 34.4788C79.2476 35.0451 76.1735 35.5427 73.1306 35.987L51.0204 4.88834L19.8942 10.8678C3.78853 14.319 -1.41222 34.8918 11.2034 45.6742C22.3867 55.2331 33.5387 47.4796 45.5351 45.9089C46.0042 45.8463 46.7016 45.6585 47.1082 45.8963L47.105 45.8932ZM8.43572 30.7585C7.65703 30.2641 8.97674 24.5757 9.34576 23.468C11.488 17.0443 17.4674 13.3021 24.0254 12.6544C23.8596 13.6713 24.7791 15.605 24.2005 16.4279C24.0661 16.6188 20.4915 17.5919 19.7504 17.9173C15.3408 19.8572 13.0954 22.861 12.2229 27.5951C12.0884 28.3336 12.3042 29.7635 12.004 30.1921C11.7038 30.6208 8.85791 31.0213 8.43572 30.7554V30.7585ZM23.7533 27.714L47.7399 20.2108L69.2558 51.7256L97.9396 39.3005L121.91 65.9936L119.252 68.3434L96.9826 43.9846L67.7078 56.4284L45.9292 25.0169L25.3983 31.4281C24.2193 31.8724 23.4468 28.1865 23.7533 27.714Z" fill="#FA3938"/>
<path id="Vector_2" d="M23.7532 27.7141C23.4498 28.1865 24.2192 31.8693 25.3982 31.4281L45.929 25.0169L67.7076 56.4284L96.9825 43.9846L119.252 68.3435L121.91 65.9936L97.9394 39.3006L69.2557 51.7256L47.7397 20.2108L23.7532 27.7141Z" fill="#0B0808"/>
<path id="Vector_3" d="M8.43564 30.7585C8.86095 31.0276 11.7162 30.6114 12.0039 30.1953C12.2916 29.7791 12.0852 28.3336 12.2228 27.5983C13.0953 22.8642 15.3408 19.8604 19.7503 17.9204C20.4915 17.595 24.066 16.6219 24.2004 16.431C24.779 15.6081 23.8596 13.6744 24.0253 12.6575C17.4673 13.3052 11.4879 17.0443 9.34568 23.4712C8.97666 24.5788 7.65694 30.2673 8.43564 30.7616V30.7585Z" fill="#FEFEFE"/>
<g id="Vector_4">
<path d="M47.1036 45.8925C46.7762 45.7046 46.2613 45.7892 45.8285 45.8604C45.7235 45.8777 45.6234 45.8942 45.5319 45.9058C42.2876 46.3297 39.1053 47.2063 35.9675 48.0706C27.5026 50.4024 19.3614 52.6449 11.2002 45.6711C-1.41542 34.8887 3.78529 14.3159 19.891 10.8647L49.1236 5.249C50.2771 5.0274 51.4539 5.49944 52.1346 6.4568L72.0641 34.4883C72.7167 35.4063 73.8287 35.8828 74.9421 35.7127C77.3873 35.3392 79.845 34.9296 82.2685 34.4757C84.8041 34 87.5822 33.354 90.4221 32.6937C95.5017 31.5126 100.779 30.2856 105.22 29.9043C105.307 29.8969 105.395 29.8882 105.484 29.8795C105.999 29.8289 106.533 29.7765 107.008 29.9515C107.281 30.0518 107.482 30.2755 107.658 30.5074L134.714 66.3055C134.814 66.4373 134.902 66.5772 134.979 66.7237L135.128 67.0091C135.577 67.8663 135.588 68.889 135.134 69.7432C133.085 73.5965 130.722 77.2407 128.346 80.8999C128.087 81.2997 127.842 81.7721 127.586 82.2642C127.096 83.2087 126.568 84.2256 125.832 84.9394C125.778 84.9912 125.724 85.0521 125.669 85.115C125.655 85.1302 125.642 85.1455 125.628 85.1609C125.266 85.5675 124.711 85.3451 124.3 84.9878L93.3584 58.1033C92.8782 57.686 92.2385 57.5017 91.6099 57.5994C91.4395 57.6259 91.2736 57.6722 91.1146 57.7391C87.4666 59.2739 83.7319 61.3049 79.9942 63.3376C75.6504 65.6999 71.3025 68.0644 67.0822 69.6545C66.9563 69.7021 66.8203 69.7625 66.6783 69.8255C66.294 69.9962 65.8658 70.1863 65.4739 70.1947C65.1484 70.2016 64.8959 69.9536 64.7023 69.6917L47.1036 45.8925ZM47.1036 45.8925C47.1033 45.8922 47.1036 45.8919 47.1038 45.8921C47.104 45.8923 47.1038 45.8926 47.1036 45.8925ZM131.685 162.345C131.913 162.714 132.247 163.005 132.643 163.18C133.456 163.538 134.406 163.358 135.03 162.726L164.203 133.195C164.36 133.036 164.574 132.948 164.797 132.95C164.971 132.952 165.139 133.009 165.279 133.112L173.53 139.224C173.996 139.515 174.543 139.455 174.94 139.086L195.442 115.743C195.524 115.65 195.598 115.55 195.664 115.446C196.229 114.548 196.117 113.383 195.393 112.609L167.432 82.7021C167.141 82.3908 166.92 82.021 166.783 81.6173C163.055 70.6176 159.444 59.578 155.833 48.5382C154.3 43.8529 152.767 39.1675 151.226 34.4851C150.961 33.6806 150.729 32.8685 150.502 32.0707C149.192 27.4783 148.017 23.3596 141.444 23.9061C134.972 24.4468 127.578 31.7725 122.618 37.3722C121.351 38.8037 119.089 38.7555 117.922 37.2406L110.024 26.9862C109.338 26.0959 108.212 25.6635 107.107 25.8659L76.7843 31.4169C75.6323 31.6278 74.4629 31.149 73.7895 30.1908L54.0464 2.09501C53.3677 1.12906 52.1855 0.651031 51.0261 0.873695L17.5768 7.29765C-0.702408 12.8766 -5.57478 36.3687 9.3269 48.8C18.6298 56.5631 28.367 54.1518 38.5799 51.6226C40.3918 51.1739 42.2186 50.7215 44.0607 50.3216C44.2171 50.2876 44.3776 50.2767 44.5372 50.2887C45.0183 50.325 45.4603 50.5671 45.7499 50.9529L62.4774 73.2437C63.3349 74.3864 64.8793 74.7658 66.1688 74.1506L90.9108 62.3461C91.267 62.1762 91.6644 62.0742 92.0219 62.2415C93.186 62.7861 95.2347 64.6863 97.1167 66.432C98.4843 67.7005 99.7639 68.8873 100.552 69.4132C100.581 69.4321 100.609 69.4507 100.638 69.4692C100.79 69.5684 100.942 69.6671 101.053 69.8104C101.227 70.0334 101.278 70.2725 101.229 70.6182C101.154 71.1299 100.495 72.4083 99.8867 73.59C99.4867 74.3666 99.1082 75.1015 98.9309 75.5494C95.938 83.1465 89.4207 101.714 95.8348 108.366C97.6026 110.2 99.2755 110.308 101.218 110.432C101.867 110.474 102.546 110.518 103.268 110.628C107.512 111.28 111.754 111.943 115.996 112.607C124.516 113.939 133.038 115.271 141.572 116.513C142.059 116.583 142.52 116.772 142.917 117.063L145.995 119.321C147.474 120.406 147.642 122.553 146.348 123.854L127.003 143.317C126.216 144.109 125.934 145.273 126.271 146.337L130.796 160.634C130.911 160.999 131.071 161.349 131.272 161.675L131.685 162.345ZM109.717 107.155C109.777 107.083 110.287 106.779 110.861 106.436C111.512 106.047 112.246 105.609 112.503 105.403C126.651 94.1229 140.227 71.7071 146.31 54.745C146.695 53.6698 147.041 52.5781 147.374 51.482C148.186 48.8013 151.613 48.8041 152.494 51.4629L163.164 83.6536C163.301 84.0678 163.527 84.447 163.826 84.7648C165.294 86.3246 166.764 87.883 168.234 89.4417C175.328 96.9624 182.428 104.489 189.288 112.213C190.286 113.338 190.288 115.029 189.299 116.162L175.39 132.09C174.406 133.216 172.741 133.448 171.499 132.613C166.647 129.352 161.922 125.884 157.196 122.416C152.972 119.316 148.747 116.215 144.429 113.26C144.058 113.006 143.633 112.84 143.188 112.773L110.301 107.839C110.017 107.796 109.684 107.734 109.68 107.448C109.678 107.308 109.703 107.172 109.717 107.155Z" fill="#0B0808"/>
<path d="M47.1036 45.8925C46.7762 45.7046 46.2613 45.7892 45.8285 45.8604C45.7235 45.8777 45.6234 45.8942 45.5319 45.9058C42.2876 46.3297 39.1053 47.2063 35.9675 48.0706C27.5026 50.4024 19.3614 52.6449 11.2002 45.6711C-1.41542 34.8887 3.78529 14.3159 19.891 10.8647L49.1236 5.249C50.2771 5.0274 51.4539 5.49944 52.1346 6.4568L72.0641 34.4883C72.7167 35.4063 73.8287 35.8828 74.9421 35.7127C77.3873 35.3392 79.845 34.9296 82.2685 34.4757C84.8041 34 87.5822 33.354 90.4221 32.6937C95.5017 31.5126 100.779 30.2856 105.22 29.9043C105.307 29.8969 105.395 29.8882 105.484 29.8795C105.999 29.8289 106.533 29.7765 107.008 29.9515C107.281 30.0518 107.482 30.2755 107.658 30.5074L134.714 66.3055C134.814 66.4373 134.902 66.5772 134.979 66.7237L135.128 67.0091C135.577 67.8663 135.588 68.889 135.134 69.7432C133.085 73.5965 130.722 77.2407 128.346 80.8999C128.087 81.2997 127.842 81.7721 127.586 82.2642C127.096 83.2087 126.568 84.2256 125.832 84.9394C125.778 84.9912 125.724 85.0521 125.669 85.115C125.655 85.1302 125.642 85.1455 125.628 85.1609C125.266 85.5675 124.711 85.3451 124.3 84.9878L93.3584 58.1033C92.8782 57.686 92.2385 57.5017 91.6099 57.5994C91.4395 57.6259 91.2736 57.6722 91.1146 57.7391C87.4666 59.2739 83.7319 61.3049 79.9942 63.3376C75.6504 65.6999 71.3025 68.0644 67.0822 69.6545C66.9563 69.7021 66.8203 69.7625 66.6783 69.8255C66.294 69.9962 65.8658 70.1863 65.4739 70.1947C65.1484 70.2016 64.8959 69.9536 64.7023 69.6917L47.1036 45.8925ZM47.1036 45.8925C47.1033 45.8922 47.1036 45.8919 47.1038 45.8921C47.104 45.8923 47.1038 45.8926 47.1036 45.8925ZM131.685 162.345C131.913 162.714 132.247 163.005 132.643 163.18C133.456 163.538 134.406 163.358 135.03 162.726L164.203 133.195C164.36 133.036 164.574 132.948 164.797 132.95C164.971 132.952 165.139 133.009 165.279 133.112L173.53 139.224C173.996 139.515 174.543 139.455 174.94 139.086L195.442 115.743C195.524 115.65 195.598 115.55 195.664 115.446C196.229 114.548 196.117 113.383 195.393 112.609L167.432 82.7021C167.141 82.3908 166.92 82.021 166.783 81.6173C163.055 70.6176 159.444 59.578 155.833 48.5382C154.3 43.8529 152.767 39.1675 151.226 34.4851C150.961 33.6806 150.729 32.8685 150.502 32.0707C149.192 27.4783 148.017 23.3596 141.444 23.9061C134.972 24.4468 127.578 31.7725 122.618 37.3722C121.351 38.8037 119.089 38.7555 117.922 37.2406L110.024 26.9862C109.338 26.0959 108.212 25.6635 107.107 25.8659L76.7843 31.4169C75.6323 31.6278 74.4629 31.149 73.7895 30.1908L54.0464 2.09501C53.3677 1.12906 52.1855 0.651031 51.0261 0.873695L17.5768 7.29765C-0.702408 12.8766 -5.57478 36.3687 9.3269 48.8C18.6298 56.5631 28.367 54.1518 38.5799 51.6226C40.3918 51.1739 42.2186 50.7215 44.0607 50.3216C44.2171 50.2876 44.3776 50.2767 44.5372 50.2887C45.0183 50.325 45.4603 50.5671 45.7499 50.9529L62.4774 73.2437C63.3349 74.3864 64.8793 74.7658 66.1688 74.1506L90.9108 62.3461C91.267 62.1762 91.6644 62.0742 92.0219 62.2415C93.186 62.7861 95.2347 64.6863 97.1167 66.432C98.4843 67.7005 99.7639 68.8873 100.552 69.4132C100.581 69.4321 100.609 69.4507 100.638 69.4692C100.79 69.5684 100.942 69.6671 101.053 69.8104C101.227 70.0334 101.278 70.2725 101.229 70.6182C101.154 71.1299 100.495 72.4083 99.8867 73.59C99.4867 74.3666 99.1082 75.1015 98.9309 75.5494C95.938 83.1465 89.4207 101.714 95.8348 108.366C97.6026 110.2 99.2755 110.308 101.218 110.432C101.867 110.474 102.546 110.518 103.268 110.628C107.512 111.28 111.754 111.943 115.996 112.607C124.516 113.939 133.038 115.271 141.572 116.513C142.059 116.583 142.52 116.772 142.917 117.063L145.995 119.321C147.474 120.406 147.642 122.553 146.348 123.854L127.003 143.317C126.216 144.109 125.934 145.273 126.271 146.337L130.796 160.634C130.911 160.999 131.071 161.349 131.272 161.675L131.685 162.345ZM109.717 107.155C109.777 107.083 110.287 106.779 110.861 106.436C111.512 106.047 112.246 105.609 112.503 105.403C126.651 94.1229 140.227 71.7071 146.31 54.745C146.695 53.6698 147.041 52.5781 147.374 51.482C148.186 48.8013 151.613 48.8041 152.494 51.4629L163.164 83.6536C163.301 84.0678 163.527 84.447 163.826 84.7648C165.294 86.3246 166.764 87.883 168.234 89.4417C175.328 96.9624 182.428 104.489 189.288 112.213C190.286 113.338 190.288 115.029 189.299 116.162L175.39 132.09C174.406 133.216 172.741 133.448 171.499 132.613C166.647 129.352 161.922 125.884 157.196 122.416C152.972 119.316 148.747 116.215 144.429 113.26C144.058 113.006 143.633 112.84 143.188 112.773L110.301 107.839C110.017 107.796 109.684 107.734 109.68 107.448C109.678 107.308 109.703 107.172 109.717 107.155Z" stroke="black"/>
</g>
<path id="Vector_5" d="M109.717 107.155C109.683 107.196 109.602 107.815 109.874 107.774L143.864 112.875C153.941 119.727 163.488 127.402 173.674 134.055L191.028 114.183C182.074 103.992 172.67 94.1698 163.373 84.2823L149.9 43.6373C148.48 47.2137 147.623 51.0748 146.31 54.745C140.227 71.7071 126.652 94.1229 112.504 105.403C112.019 105.791 109.845 107.002 109.717 107.155Z" fill="#963EFF"/>
<path id="Vector_6" d="M148.777 117.171L158.786 108.744C163.986 103.088 169.402 97.3479 172.564 90.213C174.136 90.9791 177.902 93.0956 177.297 95.1174C175.775 100.251 158.866 120.659 153.741 120.586L148.771 117.17L148.777 117.171Z" fill="black"/>
<path id="Vector_7" d="M169.38 135.56L179.013 127.449C184.019 122.005 189.232 116.48 192.275 109.613C193.788 110.35 197.412 112.387 196.83 114.333C195.365 119.274 179.09 138.917 174.157 138.846L169.374 135.558L169.38 135.56Z" fill="black"/>
</g>
<path id="Vector_8" d="M137.39 147.141L152.257 131.395C152.94 130.671 154.08 130.639 154.803 131.322C155.526 132.005 155.558 133.146 154.875 133.869L140.008 149.616C139.325 150.339 138.185 150.371 137.462 149.688C136.739 149.005 136.707 147.865 137.39 147.141Z" fill="#6400DB"/>
</g>
</svg>
