<?xml version="1.0" encoding="UTF-8"?>
<svg id="Calque_1" xmlns="http://www.w3.org/2000/svg" version="1.1" xmlns:xlink="http://www.w3.org/1999/xlink" viewBox="0 0 48 46.9">
  <!-- Generator: Adobe Illustrator 29.3.1, SVG Export Plug-In . SVG Version: 2.1.0 Build 151)  -->
  <defs>
    <style>
      .st0 {
        fill: url(#Dégradé_sans_nom1);
      }

      .st1 {
        fill: none;
        stroke: url(#Dégradé_sans_nom);
        stroke-width: 2px;
      }

      .st2 {
        fill: url(#Dégradé_sans_nom2);
      }
    </style>
    <linearGradient id="Dégradé_sans_nom" data-name="Dégradé sans nom" x1="-4.9" y1="26.8" x2="52.2" y2="70.8" gradientTransform="translate(0 72.3) scale(1 -1)" gradientUnits="userSpaceOnUse">
      <stop offset="0" stop-color="#5e13a5"/>
      <stop offset="1" stop-color="#ff1a1d"/>
    </linearGradient>
    <linearGradient id="Dégradé_sans_nom1" data-name="Dégradé sans nom" x1="6.9" y1="36.9" x2="39.3" y2="66.3" xlink:href="#Dégradé_sans_nom"/>
    <linearGradient id="Dégradé_sans_nom2" data-name="Dégradé sans nom" x1="19.4" y1="23.1" x2="51.8" y2="52.5" xlink:href="#Dégradé_sans_nom"/>
  </defs>
  <rect class="st1" x="2.1" y="2.4" width="43.3" height="41.9" rx="5" ry="5" shape-rendering="crispEdges"/>
  <path class="st0" d="M26.2,12.4h5.6v14.8c0,1.7-.4,3.2-1.2,4.5-.8,1.3-2,2.2-3.5,2.9-1.5.7-3.2,1-5.2,1s-3.7-.3-5.2-1c-1.5-.7-2.6-1.7-3.5-2.9-.8-1.3-1.2-2.8-1.2-4.5v-14.8h5.6v14.3c0,.8.2,1.5.5,2.1.4.6.9,1.1,1.5,1.5.6.4,1.4.5,2.2.5s1.6-.2,2.2-.5c.6-.4,1.1-.8,1.5-1.5.4-.6.5-1.3.5-2.1v-14.3Z"/>
  <path class="st2" d="M37.4,35.7c-.8,0-1.5-.3-2.1-.9-.6-.6-.9-1.3-.9-2.1,0-.8.3-1.5.9-2,.6-.6,1.3-.9,2.1-.9s1.5.3,2.1.9c.6.6.9,1.2.9,2,0,.5-.2,1-.4,1.5-.3.4-.6.8-1.1,1.1-.4.3-.9.4-1.4.4Z"/>
</svg>