<svg width="27" height="24" viewBox="0 0 27 24" fill="none" xmlns="http://www.w3.org/2000/svg">
<g clip-path="url(#clip0_1321_5861)">
<path d="M13.4221 0.000747763C13.336 0.0104995 13.0414 0.21236 13.0185 0.2933C12.9879 0.781862 12.9716 1.29675 12.9898 1.78727C12.9917 1.837 13.0108 1.88088 13.0137 1.92672C13.029 2.20854 12.9362 2.51475 13.2882 2.58301C13.5072 2.62592 13.839 2.58593 13.8801 2.31874C13.9308 1.9862 13.8897 1.56103 13.8849 1.22557C13.8801 0.921312 13.904 0.590728 13.861 0.290374C13.8381 0.126545 13.5722 -0.0177805 13.4211 -0.000227411L13.4221 0.000747763ZM8.27128 3.77955C8.63373 4.14426 9.16258 3.83903 9.06121 3.33682C9.03921 3.22857 8.83743 2.88824 8.77239 2.76537C8.64712 2.52937 8.31336 1.86918 8.15843 1.70633C8.12496 1.67122 8.06376 1.63514 8.01976 1.61368C7.54447 1.37574 7.25948 1.8175 7.37903 2.26705C7.43449 2.47671 8.1154 3.62157 8.27224 3.77857L8.27128 3.77955ZM17.934 3.80295C18.1157 3.98823 18.3873 3.96288 18.5795 3.81075C18.7593 3.66838 19.3647 2.62397 19.468 2.37627C19.6956 1.83115 19.2471 1.23824 18.7412 1.70535C18.5862 1.8487 18.2037 2.60446 18.0832 2.83655C17.9264 3.13691 17.6366 3.49967 17.935 3.80393L17.934 3.80295ZM22.6774 15.8181C22.7223 16.1555 22.5349 17.1248 22.8161 17.3501C22.97 17.4729 23.3468 17.4466 23.5381 17.4564C24.2859 17.4963 25.1294 17.51 25.8801 17.4807C26.0542 17.4739 26.3296 17.4642 26.4931 17.4271C26.8585 17.3452 26.8671 17.0478 26.9005 16.7191C27.0411 15.3402 27.001 13.8034 26.9684 12.4137C26.9541 11.7974 26.9637 11.1538 26.9005 10.5404C26.8728 10.2693 26.8728 10.0119 26.5763 9.93484C26.4358 9.89876 26.19 9.87926 26.0408 9.87243C24.7096 9.80612 23.2971 10.0772 21.9802 9.89388C21.6264 9.84415 21.5059 9.69885 21.2544 9.46383C20.2273 8.51011 19.3561 7.3048 18.329 6.3384C18.0325 6.0595 17.6586 5.6431 17.2158 5.86057L14.8862 8.21269C14.8594 8.23902 14.8269 8.23316 14.7944 8.23609C14.5084 8.26534 14.2053 8.21659 13.9222 8.21073C13.3542 8.19806 12.788 8.20196 12.2228 8.1649C12.1176 8.15808 12.0115 8.17465 11.9063 8.16003L9.62926 5.87129L9.24386 5.85277L5.20434 9.83147C4.25757 10.0275 3.24769 9.93582 2.28371 9.89779C1.75582 9.87731 1.23271 9.82075 0.700988 9.87341C0.455212 9.89779 0.115716 9.91339 0.0286898 10.1942L0 16.883C0.0114759 17.0166 0.0860695 17.2603 0.186484 17.3481C0.43226 17.5646 1.46414 17.4427 1.80363 17.4798L3.10998 17.3842C3.35862 17.3481 3.77367 17.4378 4.00032 17.3793C4.28435 17.3062 4.22506 16.6177 4.22506 16.3895C4.22506 16.3339 4.20019 16.2832 4.20019 16.2276C4.20019 16.1077 4.24705 15.9507 4.22506 15.8181C4.36181 15.8093 4.51387 15.7527 4.64871 15.7469C5.33822 15.7196 5.72458 16.2891 6.26586 16.6011C7.6401 17.3939 9.72394 17.6007 11.2808 17.5012C11.7112 17.4739 12.1234 17.4359 12.5241 17.2711C12.745 17.1804 13.2738 16.8527 13.4632 16.8478C13.7051 16.841 14.2015 17.2233 14.4597 17.3247C14.7848 17.4525 15.2869 17.4798 15.6407 17.5012C17.1584 17.5939 19.0826 17.4008 20.4511 16.6938C21.0115 16.4041 21.5355 15.7381 22.183 15.743C22.3436 15.744 22.5148 15.8112 22.6755 15.8151L22.6774 15.8181ZM8.57252 20.0659C8.41951 20.0727 8.18617 20.4004 8.0934 20.5243C7.88205 20.8061 7.33886 21.6272 7.3446 21.9607C7.35225 22.4161 7.83806 22.6872 8.15843 22.3234C8.31144 22.1499 8.55818 21.6545 8.67963 21.4273C8.75805 21.282 9.08798 20.6969 9.08894 20.5808C9.09085 20.336 8.81543 20.0542 8.57157 20.0659H8.57252ZM18.219 20.0835C17.9579 20.1264 17.7533 20.4404 17.8298 20.7037C17.89 20.9114 18.2133 21.4448 18.3357 21.6623C18.4399 21.8466 18.5805 22.1323 18.7077 22.2893C19.1055 22.7828 19.6937 22.3039 19.4919 21.7237C19.3962 21.4487 18.8923 20.5779 18.7067 20.3477C18.5795 20.1907 18.4332 20.0484 18.219 20.0835ZM13.3063 21.4409C13.139 21.4721 13.0118 21.635 12.9946 21.8017C12.9477 22.2464 12.9869 22.891 13.0147 23.3435C13.03 23.598 12.9573 23.8652 13.2509 23.9686C13.4909 24.0534 13.8275 23.9695 13.8773 23.6838C13.9758 23.1104 13.84 22.2796 13.862 21.6837C13.8342 21.4643 13.4852 21.4078 13.3073 21.4409H13.3063Z" fill="white"/>
<path d="M22.6774 15.8183C22.5158 15.8144 22.3446 15.7471 22.1849 15.7461C21.5365 15.7413 21.0134 16.4073 20.453 16.6969C19.0845 17.4039 17.1604 17.597 15.6427 17.5044C15.2889 17.4829 14.7868 17.4556 14.4616 17.3279C14.2034 17.2265 13.7071 16.8442 13.4651 16.851C13.2758 16.8559 12.7469 17.1835 12.526 17.2742C12.1244 17.439 11.7131 17.4761 11.2828 17.5044C9.72589 17.6038 7.64206 17.3971 6.26781 16.6043C5.72653 16.2922 5.33922 15.7227 4.65066 15.75C4.51582 15.7549 4.36376 15.8115 4.22701 15.8212C4.249 15.9539 4.2031 16.1109 4.20214 16.2308C4.20214 16.2864 4.22701 16.3371 4.22701 16.3927C4.22701 16.6209 4.2863 17.3093 4.00227 17.3825C3.77562 17.441 3.36058 17.3513 3.11193 17.3874L1.80559 17.4829C1.46609 17.4459 0.434213 17.5687 0.188437 17.3513C0.0880226 17.2625 0.0134291 17.0197 0.00195312 16.8861L0.030643 10.1974C0.117669 9.91655 0.457165 9.90095 0.702941 9.87657C1.23466 9.82391 1.75777 9.87949 2.28566 9.90095C3.24964 9.93898 4.25952 10.0306 5.20629 9.83464L9.24582 5.85593L9.63122 5.87446L11.9082 8.16319C12.0134 8.17782 12.1196 8.16124 12.2248 8.16806C12.79 8.20512 13.3561 8.20122 13.9242 8.2139C14.2072 8.21975 14.5104 8.26851 14.7963 8.23925C14.8289 8.23633 14.8614 8.24218 14.8882 8.21585L17.2178 5.86373C17.6605 5.64724 18.0345 6.06364 18.3309 6.34156C19.358 7.30796 20.2292 8.51328 21.2563 9.467C21.5088 9.70104 21.6293 9.84731 21.9822 9.89705C23.2991 10.0814 24.7116 9.80928 26.0428 9.87559C26.1919 9.88339 26.4368 9.90192 26.5783 9.938C26.8748 10.015 26.8748 10.2725 26.9025 10.5436C26.9666 11.157 26.9561 11.7996 26.9704 12.4169C27.0029 13.8065 27.0431 15.3424 26.9025 16.7223C26.869 17.0509 26.8604 17.3484 26.4951 17.4303C26.3316 17.4673 26.0561 17.4771 25.8821 17.4839C25.1314 17.5141 24.2879 17.5005 23.54 17.4595C23.3488 17.4488 22.972 17.4751 22.818 17.3532C22.5369 17.1289 22.7243 16.1596 22.6794 15.8212L22.6774 15.8183ZM5.2455 10.9034C4.92322 10.9366 4.5512 10.879 4.22414 10.9034V14.8821C4.43931 14.8509 4.68605 14.7495 4.90218 14.7417C5.60795 14.7173 6.15975 15.4399 6.7192 15.79C7.56268 16.3186 8.88241 16.4483 9.85882 16.497C10.4843 16.5282 11.87 16.6131 12.3931 16.2961C12.5958 16.1733 13.0147 15.753 13.0147 15.5023V9.24173H10.1342C9.89612 9.04474 9.65034 8.9287 9.7718 8.56789C9.86934 8.27728 10.2127 8.23243 10.4584 8.12028C10.4804 8.11053 10.4986 8.13393 10.49 8.08322L9.37683 6.94812L5.64811 10.7513C5.54579 10.8313 5.37269 10.8898 5.2455 10.9025V10.9034ZM22.6774 10.9034H21.6331C21.5375 10.9034 21.3118 10.8147 21.2305 10.7523L17.5018 6.9491L16.3886 8.0842C16.5923 8.23243 16.9452 8.24218 17.0772 8.48109C17.2847 8.85654 17.0169 9.02329 16.7664 9.24271H13.863V15.4331C13.863 15.673 14.1451 16.0358 14.3239 16.1801C14.6797 16.4668 15.1091 16.4999 15.5499 16.5214C16.8085 16.5828 18.9898 16.4795 20.0896 15.8388C20.65 15.5121 21.2047 14.7944 21.8646 14.7466C22.1333 14.7271 22.4125 14.8441 22.6765 14.8841V10.9054L22.6774 10.9034ZM3.26016 10.9034H0.964975V16.4502H3.26016V10.9034ZM25.9137 10.9034H23.6185V16.4502H25.9137V10.9034Z" fill="black"/>
<path d="M18.2189 20.0837C18.4332 20.0486 18.5795 20.19 18.7067 20.348C18.8922 20.5781 19.3962 21.449 19.4918 21.724C19.6936 22.3042 19.1054 22.783 18.7076 22.2896C18.5814 22.1326 18.4398 21.8468 18.3356 21.6625C18.2122 21.4451 17.89 20.9116 17.8297 20.7039C17.7532 20.4416 17.9579 20.1276 18.2189 20.0837Z" fill="black"/>
<path d="M17.9339 3.80318C17.6355 3.49892 17.9263 3.13616 18.0822 2.8358C18.2026 2.60371 18.5852 1.84795 18.7401 1.7046C19.246 1.23749 19.6955 1.8304 19.4669 2.37552C19.3636 2.62322 18.7583 3.66763 18.5785 3.81C18.3863 3.96213 18.1147 3.98748 17.933 3.8022L17.9339 3.80318Z" fill="black"/>
<path d="M8.57272 20.0662C8.81658 20.0554 9.09105 20.3363 9.09009 20.581C9.09009 20.6961 8.7592 21.2822 8.68078 21.4275C8.55837 21.6547 8.3126 22.1491 8.15958 22.3237C7.83826 22.6874 7.3534 22.4163 7.34575 21.9609C7.34001 21.6274 7.8832 20.8063 8.09455 20.5245C8.18732 20.4006 8.42162 20.073 8.57367 20.0662H8.57272Z" fill="black"/>
<path d="M8.27151 3.77978C8.11563 3.62278 7.43473 2.47695 7.3783 2.26826C7.25876 1.81871 7.54375 1.37695 8.01904 1.61489C8.06303 1.63635 8.12424 1.6734 8.15771 1.70754C8.31359 1.87039 8.64639 2.53058 8.77167 2.76657C8.8367 2.88847 9.03944 3.22881 9.06048 3.33803C9.16185 3.84024 8.63301 4.14547 8.27056 3.78075L8.27151 3.77978Z" fill="black"/>
<path d="M13.4218 0.000962775C13.572 -0.0165904 13.8378 0.127735 13.8617 0.291565C13.9048 0.591918 13.8818 0.922502 13.8856 1.22676C13.8904 1.56222 13.9315 1.98642 13.8809 2.31993C13.8397 2.58712 13.5089 2.62711 13.2889 2.5842C12.937 2.51594 13.0297 2.20973 13.0144 1.92791C13.0116 1.88207 12.9924 1.83819 12.9905 1.78846C12.9724 1.29794 12.9886 0.782077 13.0192 0.29449C13.0422 0.212575 13.3367 0.0116897 13.4228 0.00193795L13.4218 0.000962775Z" fill="black"/>
<path d="M13.3062 21.4411C13.4841 21.408 13.8332 21.4646 13.8609 21.684C13.838 22.2798 13.9747 23.1097 13.8762 23.684C13.8274 23.9698 13.4908 24.0536 13.2498 23.9688C12.9562 23.8654 13.0289 23.5982 13.0136 23.3437C12.9859 22.8912 12.9476 22.2466 12.9935 21.802C13.0107 21.6362 13.1379 21.4733 13.3053 21.4411H13.3062Z" fill="black"/>
<path d="M22.6773 10.9034V14.8821C22.4133 14.8422 22.1341 14.7251 21.8654 14.7446C21.2055 14.7924 20.6508 15.5101 20.0904 15.8368C18.9906 16.4775 16.8093 16.5809 15.5507 16.5194C15.1089 16.498 14.6805 16.4658 14.3247 16.1781C14.1459 16.0338 13.8638 15.671 13.8638 15.4312V9.24075H16.7672C17.0177 9.02134 17.2855 8.85458 17.078 8.47914C16.9451 8.23925 16.5922 8.23047 16.3894 8.08225L17.5026 6.94714L21.2313 10.7503C21.3116 10.8127 21.5373 10.9015 21.6339 10.9015H22.6782L22.6773 10.9034Z" fill="white"/>
<path d="M5.24548 10.9034C5.37267 10.8907 5.54577 10.8322 5.64809 10.7523L9.37682 6.9491L10.49 8.0842C10.4986 8.13491 10.4804 8.1115 10.4584 8.12126C10.2126 8.23242 9.86932 8.27826 9.77178 8.56886C9.65128 8.92967 9.8961 9.04572 10.1342 9.2427H13.0147V15.5033C13.0147 15.7539 12.5968 16.1742 12.3931 16.2971C11.87 16.615 10.4833 16.5292 9.8588 16.498C8.88144 16.4492 7.56266 16.3195 6.71918 15.791C6.15973 15.4409 5.60793 14.7183 4.90216 14.7427C4.68698 14.7505 4.44025 14.8519 4.22412 14.8831V10.9044C4.55119 10.88 4.9232 10.9376 5.24548 10.9044V10.9034Z" fill="white"/>
<path d="M3.26003 10.9034H0.964844V16.4502H3.26003V10.9034Z" fill="white"/>
<path d="M25.9138 10.9034H23.6187V16.4502H25.9138V10.9034Z" fill="white"/>
</g>
<defs>
<clipPath id="clip0_1321_5861">
<rect width="27" height="24" fill="white"/>
</clipPath>
</defs>
</svg>
