<svg width="31" height="28" viewBox="0 0 31 28" fill="none" xmlns="http://www.w3.org/2000/svg">
<path d="M19.5239 8.23802H27.8723C27.954 8.23802 28.6511 8.58813 28.7791 8.67535C30.7669 10.0463 30.216 12.9885 27.9333 13.5204C28.2514 14.2096 28.5963 14.8447 28.5146 15.6346C28.4098 16.6407 27.5213 17.8311 26.4708 17.9429C27.4762 19.6136 27.0497 21.8752 25.0082 22.3653C26.1173 24.4291 25.3678 26.7202 22.8815 26.9143C19.4897 27.1797 15.7323 26.73 12.3027 26.8799C10.7976 26.6404 10.3515 25.2387 9.34116 24.3345C9.08034 24.2756 8.82075 25.0999 8.58553 25.3149C8.46609 25.4242 8.06999 25.6453 7.91034 25.7055C7.04137 26.0384 3.20351 26.0642 2.33941 25.7424C1.64594 25.4844 1.18403 24.8235 1.02925 24.1147L1 10.3854C1.07191 9.61758 1.63863 8.81662 2.37354 8.57585C2.95244 8.38666 6.90365 8.39158 7.61296 8.51074C8.76103 8.70483 9.28387 9.8645 9.22294 10.9443C9.31922 11.1138 9.75797 10.921 9.88472 10.8632C11.5837 10.0967 13.7104 7.16803 14.5745 5.51821C15.073 4.56861 16.0224 1.68418 16.7999 1.25053C19.0071 0.0146996 20.2892 3.66569 20.2612 5.34254C20.2441 6.35725 19.77 7.27859 19.5263 8.23556L19.5239 8.23802ZM22.4489 21.5054H24.4598C25.8126 21.5054 26.628 19.2954 25.2459 18.379C24.6755 18.0006 23.5652 18.2352 23.8468 17.3274C24.0649 16.8876 25.8382 17.2144 26.5573 16.863C27.7821 16.2623 27.7188 14.3766 26.5037 13.7931C25.9723 13.5376 25.2422 13.8595 25.2678 12.9922C25.397 12.4553 26.7584 12.7047 27.2483 12.647C29.5274 12.3779 29.4311 9.51316 27.3726 9.23185C24.717 8.86822 21.2374 9.58564 18.6025 9.22693C18.4684 9.2085 18.3392 9.20973 18.232 9.11023C18.1649 9.05003 18.1003 8.97632 18.0772 8.88788C17.9882 8.55496 18.8267 7.09555 18.973 6.51817C19.1302 5.89412 19.2167 5.39905 19.1558 4.73936C19.0851 3.97772 18.3721 1.64364 17.3289 2.15591C16.2357 4.09073 15.6129 6.09927 14.31 7.95916C13.1473 9.61881 11.3229 11.6863 9.28022 12.1028L9.18028 12.2477L9.18394 23.0226C9.56419 23.3911 10.1004 23.5311 10.4917 23.9156C11.335 24.7436 11.2522 25.6748 12.7914 25.8971C15.8335 26.3369 19.7323 25.6441 22.8645 25.918C24.4098 25.7657 25.1496 23.826 23.8504 22.8567C23.1496 22.3334 21.9614 22.7425 22.4476 21.5066L22.4489 21.5054ZM3.03898 9.49596C2.65751 9.56599 2.38938 9.78342 2.16025 10.0844L2.12247 24.1208C2.2285 24.4955 2.51126 24.7547 2.89638 24.8149C3.51307 24.9119 6.8159 24.9218 7.37287 24.7964C7.78115 24.7043 8.19065 24.2117 8.19309 23.7805L8.16506 10.2908C8.00906 9.79939 7.63612 9.54756 7.14374 9.47754C6.39908 9.37189 3.75682 9.36452 3.0402 9.49596H3.03898Z" fill="#424B5A" stroke="#424B5A" stroke-width="0.6"/>
<path d="M5.44737 23.4369C5.72712 23.3762 6.76759 23.3384 6.87084 23.6515V23.9743C6.76406 24.2971 4.91346 24.4537 5.11378 23.728C5.13232 23.5512 5.29381 23.4703 5.44737 23.4369Z" fill="#424B5A"/>
</svg>
