<svg width="28" height="28" viewBox="0 0 28 28" fill="none" xmlns="http://www.w3.org/2000/svg">
<path d="M14 6.30834C14.28 6.30834 14.5492 6.41599 14.7431 6.62053C14.9369 6.8143 15.0554 7.08343 15.0554 7.36332V16.1046C15.0554 16.3845 14.9477 16.6536 14.7431 16.8474C14.5492 17.0411 14.28 17.1596 14 17.1596C13.72 17.1596 13.4508 17.0519 13.2569 16.8474C13.0631 16.6536 12.9446 16.3845 12.9446 16.1046V7.36332C12.9446 7.08343 13.0523 6.8143 13.2569 6.62053C13.4508 6.42676 13.72 6.30834 14 6.30834ZM14 21.6917C14.3662 21.6917 14.7323 21.5409 14.9908 21.2826C15.2492 21.0242 15.4 20.669 15.4 20.2922C15.4 19.9154 15.2492 19.5602 14.9908 19.3018C14.7323 19.0434 14.3769 18.8927 14 18.8927C13.6231 18.8927 13.2677 19.0434 13.0092 19.3018C12.7508 19.5602 12.6 19.9154 12.6 20.2922C12.6 20.669 12.7508 21.0242 13.0092 21.2826C13.2677 21.5409 13.6231 21.6917 14 21.6917ZM14 0.0107648C21.7323 0.0107648 28 6.27605 28 14.0054C28 21.7347 21.7323 28 14 28C11.7708 28 9.56307 27.4725 7.58154 26.4391L2.22923 27.9354C1.92769 28.0215 1.61538 28.0215 1.31384 27.9354C1.0123 27.8601 0.743076 27.6986 0.516923 27.4833C0.301538 27.268 0.139997 26.9881 0.0646128 26.6867C-0.0107719 26.3852 -0.0107719 26.073 0.0646128 25.7716L1.56154 20.4214C0.527689 18.4406 0 16.2338 0 13.9946C0 6.26528 6.26769 0 14 0V0.0107648ZM14 2.10996C10.8446 2.10996 7.81846 3.35871 5.58923 5.59785C3.36 7.82622 2.1 10.8512 2.1 14.0054C2.1 16.0615 2.61692 18.0423 3.59692 19.797L3.8123 20.1738L2.25077 25.7501L7.82923 24.1892L8.20615 24.4045C9.78923 25.2872 11.5662 25.7932 13.3754 25.89C15.1954 25.9869 17.0046 25.664 18.6738 24.9427C20.3431 24.2322 21.8292 23.1342 23.0138 21.767C24.1985 20.3891 25.0492 18.7636 25.5123 16.9981C25.9646 15.2434 26.0185 13.4025 25.6523 11.6263C25.2862 9.85006 24.5215 8.1707 23.4123 6.73895C22.3031 5.30719 20.8708 4.14456 19.2446 3.33718C17.6185 2.54056 15.82 2.12072 14 2.12072V2.10996Z" fill="black"/>
</svg>
