<svg width="44" height="44" viewBox="0 0 44 44" fill="none" xmlns="http://www.w3.org/2000/svg">
<path d="M23.0951 10.4725L23.0951 10.4725L23.097 10.4744C23.3838 10.7612 23.5585 11.159 23.5585 11.5709V25.3072C23.5585 25.7215 23.3992 26.1175 23.0989 26.4018L23.0989 26.4018L23.097 26.4037C22.8101 26.6905 22.4121 26.865 22 26.865C21.5855 26.865 21.1893 26.7058 20.9049 26.4056L20.9049 26.4056L20.903 26.4037C20.6161 26.117 20.4415 25.7191 20.4415 25.3072V11.5709C20.4415 11.1567 20.6008 10.7606 20.9011 10.4763L20.9011 10.4763L20.903 10.4744C21.1899 10.1877 21.5879 10.0131 22 10.0131C22.4145 10.0131 22.8107 10.1723 23.0951 10.4725ZM21.9 0.100223V0.116916H22C34.0956 0.116916 43.9 9.91763 43.9 22.0085C43.9 34.0993 34.0956 43.9 22 43.9C18.5126 43.9 15.0593 43.0748 11.9601 41.4584L11.925 41.4401L11.8869 41.4508L3.47615 43.8022L3.47561 43.8023C3.01972 43.9326 2.54797 43.9326 2.09207 43.8023L2.09209 43.8023L2.08886 43.8015C1.63469 43.688 1.22685 43.4443 0.88218 43.1165C0.556665 42.7908 0.312417 42.3672 0.198546 41.9119C0.0841802 41.4546 0.0840689 40.9812 0.198212 40.5239C0.198324 40.5234 0.198435 40.523 0.198546 40.5225L2.55014 32.1177L2.56081 32.0796L2.54249 32.0445C0.925528 28.9465 0.1 25.4945 0.1 21.9915C0.1 9.93405 9.85043 0.154064 21.9 0.100223ZM22.1 3.23283V3.21565H22C17.0151 3.21565 12.2342 5.18842 8.71229 8.72598C5.1906 12.2464 3.2 17.0253 3.2 22.0085C3.2 25.2564 4.01659 28.3859 5.56499 31.1583L5.56549 31.1592L5.88319 31.715L3.44062 40.4375L3.39269 40.6086L3.56386 40.5607L12.2898 38.1191L12.8458 38.4367L12.8467 38.4372C15.3479 39.8319 18.1551 40.6312 21.0131 40.7842C23.8885 40.9373 26.747 40.4271 29.3843 39.2875C32.0216 38.1649 34.3691 36.4302 36.2402 34.2708L36.2404 34.2705C38.1119 32.0936 39.456 29.5255 40.1875 26.7366L40.1876 26.7362C40.9021 23.9644 40.9872 21.0562 40.4087 18.2497C39.8303 15.4438 38.6224 12.7907 36.8698 10.5285C35.1173 8.26644 32.8546 6.42988 30.286 5.15457L30.2855 5.15433C27.7463 3.91042 24.9412 3.24802 22.1 3.23283ZM23.4862 33.3733C23.099 33.7605 22.5491 33.9869 22 33.9869C21.4344 33.9869 20.9013 33.7607 20.5138 33.3733C20.1262 32.9859 19.9 32.4531 19.9 31.8877C19.9 31.3224 20.1262 30.7895 20.5138 30.4021C20.9013 30.0147 21.4344 29.7886 22 29.7886C22.5656 29.7886 23.0987 30.0147 23.4862 30.4021C23.8738 30.7895 24.1 31.3224 24.1 31.8877C24.1 32.4531 23.8738 32.9859 23.4862 33.3733Z" fill="url(#paint0_linear_257_1496)" stroke="#FFF1F7" stroke-width="0.2"/>
<defs>
<linearGradient id="paint0_linear_257_1496" x1="-7.65217" y1="44" x2="51.3333" y2="-1.51243e-07" gradientUnits="userSpaceOnUse">
<stop stop-color="#4300DF"/>
<stop offset="1" stop-color="#FF001E"/>
</linearGradient>
</defs>
</svg>
