<svg width="35" height="32" viewBox="0 0 35 32" fill="none" xmlns="http://www.w3.org/2000/svg">
<g clip-path="url(#clip0_1243_108)">
<path d="M14.3291 31.655C13.9567 32.1071 13.104 32.1071 12.7196 31.6193C11.2423 29.5138 10.1973 26.9205 8.78 24.8149C7.687 23.1732 7.14651 23.887 5.57307 23.8275C-0.564546 23.5539 -2.22206 15.0364 3.55522 12.4431C8.37163 10.29 13.2961 10.0996 16.9955 5.67435C17.6681 4.86543 18.5689 2.39108 19.8541 3.43792L25.7155 20.3896C26.268 23.3398 23.2172 21.3175 21.7639 21.032C17.8483 20.2825 13.7886 21.5792 10.0892 22.7688C10.0051 22.8758 10.3534 23.4468 10.4495 23.6134C11.4224 25.4454 13.8847 28.8357 14.4131 30.5487C14.5333 30.9413 14.6293 31.2981 14.3291 31.655ZM19.0254 6.86394C18.8212 6.6855 17.4039 8.27956 17.1517 8.49368C14.6534 10.5993 11.7827 11.8245 8.73195 12.9546L11.0621 20.1874C11.3263 20.3658 13.4643 19.6045 13.9808 19.4855C17.0315 18.8074 19.9983 18.4149 23.0851 19.2119L19.0374 6.87584L19.0254 6.86394ZM8.97217 20.9963L6.58199 13.7755C3.14685 13.7398 0.468399 17.6892 2.96668 20.4729C4.64822 22.3405 6.90628 21.8409 8.97217 20.9963Z" fill="black"/>
<path d="M33.2584 7.63717C34.4715 7.47063 35.0601 8.80297 34.1953 9.46914C33.9671 9.64758 30.4118 10.8372 30.0515 10.8729C28.7903 10.9918 28.2979 9.67137 29.2468 9.02899C29.5951 8.79107 32.802 7.70854 33.2584 7.63717Z" fill="black"/>
<path d="M27.9976 0.0594822C28.9344 -0.214124 29.7031 0.594798 29.2828 1.4751C28.442 2.20075 27.1929 4.29443 26.3281 4.79405C25.3312 5.36506 24.3823 4.52045 24.8267 3.44982C24.9588 3.11673 27.7213 0.130858 28.0096 0.0475862L27.9976 0.0594822Z" fill="black"/>
<path d="M29.6431 16.1189C30.2797 15.9286 34.3874 16.7137 34.7958 17.2015C35.1801 17.6535 34.988 18.6647 34.4114 18.7717C33.8349 18.8788 30.0995 18.2245 29.571 17.9152C28.8624 17.4989 28.9585 16.3331 29.6311 16.1308L29.6431 16.1189Z" fill="black"/>
</g>
<defs>
<clipPath id="clip0_1243_108">
<rect width="35" height="32" fill="white"/>
</clipPath>
</defs>
</svg>
