<svg width="24" height="24" viewBox="0 0 24 24" fill="none" xmlns="http://www.w3.org/2000/svg">
<path d="M12 5.40715C12.24 5.40715 12.4708 5.49942 12.6369 5.67474C12.8031 5.84083 12.9046 6.07151 12.9046 6.31142V13.8039C12.9046 14.0438 12.8123 14.2745 12.6369 14.4406C12.4708 14.6067 12.24 14.7082 12 14.7082C11.76 14.7082 11.5292 14.6159 11.3631 14.4406C11.1969 14.2745 11.0954 14.0438 11.0954 13.8039V6.31142C11.0954 6.07151 11.1877 5.84083 11.3631 5.67474C11.5292 5.50865 11.76 5.40715 12 5.40715ZM12 18.5928C12.3138 18.5928 12.6277 18.4637 12.8492 18.2422C13.0708 18.0208 13.2 17.7163 13.2 17.3933C13.2 17.0704 13.0708 16.7659 12.8492 16.5444C12.6277 16.323 12.3231 16.1938 12 16.1938C11.6769 16.1938 11.3723 16.323 11.1508 16.5444C10.9292 16.7659 10.8 17.0704 10.8 17.3933C10.8 17.7163 10.9292 18.0208 11.1508 18.2422C11.3723 18.4637 11.6769 18.5928 12 18.5928ZM12 0.00922699C18.6277 0.00922699 24 5.37947 24 12.0046C24 18.6298 18.6277 24 12 24C10.0892 24 8.19692 23.5479 6.49846 22.6621L1.91077 23.9446C1.65231 24.0185 1.38461 24.0185 1.12615 23.9446C0.86769 23.88 0.636923 23.7416 0.443076 23.5571C0.258461 23.3725 0.119998 23.1326 0.0553824 22.8743C-0.00923302 22.6159 -0.00923302 22.3483 0.0553824 22.09L1.33846 17.504C0.452305 15.8062 0 13.9146 0 11.9954C0 5.37024 5.37231 0 12 0V0.00922699ZM12 1.80853C9.29538 1.80853 6.70154 2.87889 4.79077 4.79815C2.88 6.70819 1.8 9.30104 1.8 12.0046C1.8 13.767 2.24307 15.4648 3.08307 16.9689L3.26769 17.2918L1.92923 22.0715L6.71077 20.7336L7.03385 20.9181C8.39077 21.6747 9.91384 22.1084 11.4646 22.1915C13.0246 22.2745 14.5754 21.9977 16.0062 21.3795C17.4369 20.7705 18.7108 19.8293 19.7261 18.6574C20.7415 17.4764 21.4708 16.083 21.8677 14.5698C22.2554 13.0657 22.3015 11.4879 21.9877 9.9654C21.6738 8.44291 21.0185 7.00346 20.0677 5.77624C19.1169 4.54902 17.8892 3.55248 16.4954 2.86044C15.1015 2.17762 13.56 1.81776 12 1.81776V1.80853Z" fill="black"/>
</svg>
