<svg width="23" height="23" viewBox="0 0 23 23" fill="none" xmlns="http://www.w3.org/2000/svg">
<path d="M11.798 5.73897C12.0185 5.73897 12.2306 5.82377 12.3833 5.98489C12.536 6.13753 12.6293 6.34953 12.6293 6.57002V13.4558C12.6293 13.6763 12.5445 13.8883 12.3833 14.041C12.2306 14.1936 12.0185 14.2869 11.798 14.2869C11.5774 14.2869 11.3653 14.2021 11.2126 14.041C11.0599 13.8883 10.9666 13.6763 10.9666 13.4558V6.57002C10.9666 6.34953 11.0514 6.13753 11.2126 5.98489C11.3653 5.83225 11.5774 5.73897 11.798 5.73897ZM11.798 17.857C12.0864 17.857 12.3748 17.7383 12.5784 17.5347C12.782 17.3312 12.9008 17.0514 12.9008 16.7546C12.9008 16.4578 12.782 16.1779 12.5784 15.9744C12.3748 15.7709 12.0949 15.6522 11.798 15.6522C11.501 15.6522 11.2211 15.7709 11.0175 15.9744C10.8139 16.1779 10.6951 16.4578 10.6951 16.7546C10.6951 17.0514 10.8139 17.3312 11.0175 17.5347C11.2211 17.7383 11.501 17.857 11.798 17.857ZM11.798 0.778133C17.889 0.778133 22.8263 5.71353 22.8263 11.8022C22.8263 17.8909 17.889 22.8263 11.798 22.8263C10.0419 22.8263 8.30283 22.4108 6.7419 21.5967L2.52569 22.7754C2.28815 22.8433 2.04213 22.8433 1.8046 22.7754C1.56707 22.7161 1.35499 22.5889 1.17684 22.4193C1.00717 22.2497 0.879919 22.0292 0.820536 21.7917C0.761153 21.5543 0.761153 21.3084 0.820536 21.0709L1.99972 16.8563C1.18532 15.296 0.769638 13.5576 0.769638 11.7937C0.769638 5.70505 5.70693 0.769653 11.798 0.769653V0.778133ZM11.798 2.43175C9.31235 2.43175 6.92853 3.41543 5.17248 5.17929C3.41643 6.93466 2.42388 9.31756 2.42388 11.8022C2.42388 13.4219 2.83108 14.9822 3.60307 16.3645L3.77273 16.6613L2.54265 21.054L6.93701 19.8244L7.23393 19.994C8.48098 20.6893 9.88073 21.0879 11.3059 21.1642C12.7396 21.2405 14.1648 20.9861 15.4797 20.418C16.7946 19.8583 17.9653 18.9933 18.8985 17.9163C19.8317 16.8309 20.5018 15.5504 20.8666 14.1597C21.2229 12.7774 21.2653 11.3273 20.9769 9.92812C20.6885 8.52891 20.0862 7.20602 19.2124 6.07817C18.3386 4.95032 17.2103 4.03448 15.9293 3.39847C14.6484 2.77095 13.2316 2.44023 11.798 2.44023V2.43175Z" fill="white"/>
</svg>
