<svg width="154" height="154" viewBox="0 0 154 154" fill="none" xmlns="http://www.w3.org/2000/svg">
<g id="Calque_1" clip-path="url(#clip0_663_1681)">
<path id="Vector" d="M61.6021 140.783V147.752C61.6021 149.934 65.224 153.096 67.3529 153.548C70.2571 154.159 83.7816 154.154 86.6715 153.548C88.8148 153.096 92.4223 149.929 92.4223 147.752V140.783C98.6403 141.711 103.558 138.058 102.503 131.44C102.296 130.148 100.75 128.312 100.75 128.047C100.75 127.764 102.204 126.091 102.426 125.053C102.961 122.549 102.373 119.507 100.62 117.599C99.0015 115.835 97.6674 117.311 98.4235 113.845C101.101 101.566 115.093 89.3683 122.197 78.9344C148.967 39.6066 109.805 -8.03093 65.4407 1.14861C34.4519 7.55987 12.6914 43.807 28.1184 73.0278C35.2081 86.4559 52.027 99.1246 55.4804 113.485C56.4341 117.445 55.1866 115.657 53.4045 117.604C51.6225 119.55 51.0638 122.549 51.5984 125.058C51.8199 126.096 53.2745 127.764 53.2745 128.052C53.2745 128.316 51.7284 130.152 51.5213 131.445C50.4665 138.063 55.3841 141.716 61.6021 140.788V140.783ZM10.6926 18.5705C12.2435 20.4497 20.2291 23.266 22.4687 25.323C25.4404 26.3371 27.2273 23.3333 25.2526 21.0937C23.2779 18.8541 15.7257 16.2396 13.0767 13.9856C10.5385 13.827 9.0261 16.5568 10.6878 18.5753L10.6926 18.5705ZM143.337 18.5705C144.998 16.5568 143.486 13.8221 140.948 13.9807C138.299 16.2396 130.795 18.7916 128.772 21.0889C126.797 23.3285 128.589 26.3323 131.556 25.3182C133.8 23.2612 141.781 20.4449 143.332 18.5657L143.337 18.5705ZM1.63772 56.197C5.35599 56.8122 12.4169 56.197 16.5686 56.197C18.1388 56.197 18.1388 51.391 16.5686 51.391H1.15608C-0.476683 52.5444 -0.433335 55.8558 1.63772 56.197ZM152.873 51.391H137.461C135.89 51.391 135.89 56.197 137.461 56.197H152.391C154.275 56.197 154.597 52.3762 152.873 51.391ZM10.6733 88.9983C9.10316 91.209 10.63 94.1407 13.332 93.3814C14.2037 93.1363 24.7902 87.023 25.2574 86.4943C27.2321 84.2547 25.4404 81.2509 22.4735 82.265L10.6781 89.0031L10.6733 88.9983ZM143.337 89.0127C142.918 88.5032 132.625 82.5774 131.941 82.3659C128.531 81.323 126.677 84.1105 128.772 86.4895C129.239 87.0182 139.825 93.1314 140.697 93.3766C143.37 94.1311 145.037 91.0697 143.337 89.0127Z" fill="white"/>
<path id="Vector_2" d="M61.602 140.783C55.384 141.711 50.4664 138.058 51.5212 131.44C51.7283 130.148 53.2744 128.312 53.2744 128.047C53.2744 127.764 51.8199 126.091 51.5983 125.053C51.0637 122.549 51.6513 119.507 53.4045 117.599C55.1576 115.691 56.434 117.44 55.4803 113.48C52.027 99.1198 35.2032 86.4511 28.1183 73.023C12.6913 43.8071 34.4519 7.55991 65.4407 1.14865C109.805 -8.0309 148.972 39.6066 122.202 78.9344C115.103 89.3684 101.106 101.566 98.4283 113.846C97.6721 117.311 99.0063 115.835 100.625 117.599C102.378 119.507 102.965 122.544 102.431 125.053C102.209 126.091 100.755 127.759 100.755 128.047C100.755 128.312 102.301 130.148 102.508 131.44C103.563 138.058 98.645 141.711 92.427 140.783V147.752C92.427 149.924 88.8147 153.096 86.6762 153.548C83.7864 154.154 70.2619 154.159 67.3576 153.548C65.2288 153.101 61.6068 149.939 61.6068 147.752V140.783H61.602ZM92.8605 115.263C96.0538 93.5977 123.56 79.3958 125.655 57.8744C129.311 20.3248 89.0555 -6.60831 55.2395 10.1936C36.7397 19.3828 23.9521 41.9327 29.4717 62.5458C34.7842 82.39 57.6814 94.2993 61.1685 115.263H92.8653H92.8605ZM58.0812 120.689C55.567 122.054 56.0824 125.039 58.9289 125.428C69.761 126.899 83.902 124.26 95.1002 125.428C97.4843 125.197 98.4427 122.713 96.5547 121.04L58.0812 120.689ZM58.5725 130.792C54.9409 132.406 56.0679 135.574 59.9163 135.973C67.8007 136.79 86.2235 136.785 94.108 135.973C98.7317 135.497 98.7462 131.167 94.5992 130.681L58.5725 130.792ZM87.129 140.783H66.9C67.1938 142.557 66.0957 147.382 67.8633 148.233C68.7881 148.68 82.5871 148.689 84.5089 148.497C88.8581 148.069 86.6233 144.052 87.129 140.779V140.783Z" fill="black"/>
<path id="Vector_3" d="M10.6924 18.5705C9.03069 16.5568 10.543 13.8222 13.0813 13.9808C15.7303 16.2396 23.2343 18.7916 25.2572 21.0889C27.2801 23.3862 25.4402 26.3323 22.4733 25.3182C20.2288 23.2612 12.2481 20.4449 10.6972 18.5657L10.6924 18.5705Z" fill="black"/>
<path id="Vector_4" d="M143.337 18.5705C141.786 20.4497 133.8 23.266 131.561 25.323C128.589 26.3371 126.802 23.3333 128.777 21.0937C130.8 18.7964 138.304 16.2396 140.953 13.9856C143.491 13.827 145.003 16.5568 143.341 18.5754L143.337 18.5705Z" fill="black"/>
<path id="Vector_5" d="M143.336 89.0127C145.036 91.0745 143.37 94.1311 140.697 93.3766C139.825 93.1315 129.239 87.0182 128.771 86.4895C126.676 84.1105 128.531 81.323 131.941 82.3659C132.62 82.5726 142.912 88.5033 143.336 89.0127Z" fill="black"/>
<path id="Vector_6" d="M10.6732 88.9983L22.4686 82.2602C25.4403 81.2461 27.2272 84.2499 25.2525 86.4895C24.7853 87.0182 14.1988 93.1315 13.3271 93.3766C10.6251 94.1408 9.09826 91.2043 10.6684 88.9935L10.6732 88.9983Z" fill="black"/>
<path id="Vector_7" d="M1.63772 56.197C-0.433335 55.8558 -0.476683 52.5445 1.15608 51.391H16.5686C18.1388 51.391 18.1388 56.197 16.5686 56.197C12.4169 56.197 5.35599 56.8122 1.63772 56.197Z" fill="black"/>
<path id="Vector_8" d="M152.873 51.391C154.597 52.3762 154.274 56.197 152.391 56.197H137.46C135.89 56.197 135.89 51.391 137.46 51.391H152.873Z" fill="black"/>
<path id="Vector_9" d="M92.8605 115.263H61.1637C57.6766 94.3041 34.7794 82.3948 29.4669 62.5458C23.9473 41.9327 36.7349 19.3828 55.2347 10.1936C89.0556 -6.60831 129.306 20.3247 125.651 57.8695C123.556 79.391 96.049 93.5929 92.8557 115.258L92.8605 115.263ZM78.8255 14.7497C79.3794 14.197 79.5672 12.6062 79.3505 11.8421C78.4883 8.80947 68.5665 10.5589 67.3721 11.7267C66.1776 12.8946 66.7267 15.4514 68.6003 15.8119C69.7899 16.0426 78.2957 15.2832 78.8303 14.7545L78.8255 14.7497ZM61.0048 14.9804C58.7314 12.7072 51.8295 18.0755 49.8162 19.6855C42.5097 25.5345 36.3833 34.964 34.3748 44.1675C33.8402 46.6186 32.1207 54.7648 34.6349 55.9664C39.4658 58.2781 38.5796 49.7954 39.0997 46.955C40.718 38.1023 45.5778 29.9945 52.4508 24.2321C54.1655 22.7902 60.6002 19.2674 61.1637 18.5081C61.8284 17.6141 61.7609 15.7302 61.0096 14.9804H61.0048ZM69.2938 58.9605C69.2938 54.712 65.8453 51.2709 61.5876 51.2709C57.3298 51.2709 53.8813 54.712 53.8813 58.9605C53.8813 63.2091 57.3298 66.6502 61.5876 66.6502C65.8453 66.6502 69.2938 63.2091 69.2938 58.9605ZM100.148 58.9605C100.148 54.712 96.6992 51.2709 92.4415 51.2709C88.1838 51.2709 84.7352 54.712 84.7352 58.9605C84.7352 63.2091 88.1838 66.6502 92.4415 66.6502C96.6992 66.6502 100.148 63.2091 100.148 58.9605ZM57.1324 71.6773C52.446 72.7154 53.9921 83.5002 55.1239 86.9317C62.6712 109.847 97.3591 106.281 100.003 82.2554C100.292 79.6217 100.345 72.7442 97.2724 71.7926L57.1372 71.6773H57.1324Z" fill="#FFA500"/>
<path id="Vector_10" d="M58.5722 130.792L94.599 130.681C98.746 131.167 98.7267 135.497 94.1077 135.973C86.2185 136.785 67.8005 136.79 59.916 135.973C56.0677 135.574 54.9407 132.406 58.5722 130.792Z" fill="#0099FF"/>
<path id="Vector_11" d="M58.0811 120.689L96.5546 121.04C98.4427 122.708 97.4842 125.197 95.1001 125.428C83.9019 124.26 69.7657 126.899 58.9288 125.428C56.0823 125.044 55.567 122.054 58.0811 120.689Z" fill="#0099FF"/>
<path id="Vector_12" d="M87.1288 140.783C86.6231 144.056 88.8531 148.074 84.5087 148.502C82.5869 148.689 68.7831 148.685 67.8631 148.238C66.1003 147.382 67.1937 142.557 66.8999 140.788H87.1288V140.783Z" fill="#225AA8"/>
<path id="Vector_13" d="M57.1324 71.6773L97.2675 71.7927C100.34 72.7443 100.292 79.6265 99.9984 82.2554C97.3542 106.281 62.6664 109.847 55.1191 86.9317C53.9872 83.5002 52.4412 72.7154 57.1275 71.6773H57.1324ZM94.8352 76.863H59.1938C58.5725 82.2218 59.8922 86.2973 62.5749 90.7957L68.9807 86.3838C74.2451 83.8606 80.1789 83.8991 85.3903 86.528C87.5962 87.643 89.1326 89.5702 91.2229 90.8054C94.3295 86.5568 95.3651 82.1256 94.8401 76.863H94.8352ZM74.4811 89.9547C72.0006 90.344 69.0337 92.0261 67.401 93.9581C66.9819 95.8757 75.6563 97.5627 77.2313 97.5434C78.8062 97.5242 86.3198 95.8181 86.6473 94.3955C84.3162 90.4016 78.8062 89.277 74.4811 89.9547Z" fill="black"/>
<path id="Vector_14" d="M61.0047 14.9804C61.756 15.7302 61.8235 17.6141 61.1588 18.5081C60.5953 19.2626 54.1654 22.7902 52.4459 24.2321C45.5777 29.9945 40.7131 38.1023 39.0948 46.955C38.5746 49.7954 39.4609 58.2781 34.63 55.9664C32.1158 54.7648 33.8353 46.6186 34.3699 44.1675C36.3784 34.964 42.5048 25.5345 49.8113 19.6855C51.8246 18.0755 58.7265 12.7072 60.9999 14.9804H61.0047Z" fill="black"/>
<path id="Vector_15" d="M69.2939 58.9605C69.2939 63.2091 65.8453 66.6502 61.5876 66.6502C57.3299 66.6502 53.8813 63.2091 53.8813 58.9605C53.8813 54.712 57.3299 51.2709 61.5876 51.2709C65.8453 51.2709 69.2939 54.712 69.2939 58.9605ZM64.1451 58.9605C64.1451 57.562 63.0085 56.4277 61.6069 56.4277C60.2053 56.4277 59.0686 57.562 59.0686 58.9605C59.0686 60.3591 60.2053 61.4933 61.6069 61.4933C63.0085 61.4933 64.1451 60.3591 64.1451 58.9605Z" fill="black"/>
<path id="Vector_16" d="M100.148 58.9605C100.148 63.2091 96.6993 66.6502 92.4416 66.6502C88.1839 66.6502 84.7354 63.2091 84.7354 58.9605C84.7354 54.712 88.1839 51.2709 92.4416 51.2709C96.6993 51.2709 100.148 54.712 100.148 58.9605ZM94.9702 58.9605C94.9702 57.562 93.8336 56.4277 92.432 56.4277C91.0304 56.4277 89.8937 57.562 89.8937 58.9605C89.8937 60.3591 91.0304 61.4933 92.432 61.4933C93.8336 61.4933 94.9702 60.3591 94.9702 58.9605Z" fill="black"/>
<path id="Vector_17" d="M78.8252 14.7497C78.2954 15.2832 69.7848 16.0378 68.5952 15.8071C66.7264 15.4466 66.2351 12.8369 67.367 11.7219C68.5614 10.5493 78.4784 8.80467 79.3454 11.8373C79.5669 12.6014 79.3743 14.1922 78.8204 14.7449L78.8252 14.7497Z" fill="black"/>
<path id="Vector_18" d="M94.835 76.863C95.36 82.1304 94.3245 86.5568 91.2179 90.8054C89.1276 89.5702 87.5911 87.643 85.3852 86.528C80.1787 83.8943 74.24 83.8606 68.9757 86.3838L62.5699 90.7957C59.8871 86.2973 58.5674 82.217 59.1887 76.863H94.8302H94.835Z" fill="#FF8F8F"/>
<path id="Vector_19" d="M74.4809 89.9547C78.8061 89.277 84.3209 90.3969 86.6472 94.3955C86.3197 95.8181 78.7338 97.5242 77.2311 97.5434C75.7284 97.5627 66.9818 95.8709 67.4008 93.9581C69.0336 92.0309 72.0005 90.344 74.4809 89.9547Z" fill="#FF5252"/>
<path id="Vector_20" d="M61.6066 61.4933C63.0084 61.4933 64.1449 60.3593 64.1449 58.9605C64.1449 57.5617 63.0084 56.4277 61.6066 56.4277C60.2048 56.4277 59.0684 57.5617 59.0684 58.9605C59.0684 60.3593 60.2048 61.4933 61.6066 61.4933Z" fill="white"/>
<path id="Vector_21" d="M92.4318 61.4933C93.8336 61.4933 94.9701 60.3593 94.9701 58.9605C94.9701 57.5617 93.8336 56.4277 92.4318 56.4277C91.03 56.4277 89.8936 57.5617 89.8936 58.9605C89.8936 60.3593 91.03 61.4933 92.4318 61.4933Z" fill="white"/>
</g>
<defs>
<clipPath id="clip0_663_1681">
<rect width="154" height="154" fill="white"/>
</clipPath>
</defs>
</svg>
