<svg width="92" height="91" viewBox="0 0 92 91" fill="none" xmlns="http://www.w3.org/2000/svg">
<g id="Group 481896">
<g id="Group 796">
<g id="Group 832">
<g id="Group 537">
<g id="Rectangle 2" filter="url(#filter0_d_241_2457)">
<rect x="34.5" y="30.5" width="22.7419" height="22" rx="4.5" stroke="url(#paint0_linear_241_2457)" shape-rendering="crispEdges"/>
</g>
</g>
</g>
<g id="U.">
<path d="M47.2278 35.4786H50.3175V43.6094C50.3175 44.5491 50.0903 45.3677 49.6358 46.0653C49.1813 46.7588 48.5475 47.2963 47.7344 47.6779C46.9213 48.0555 45.9769 48.2442 44.9011 48.2442C43.8129 48.2442 42.8622 48.0555 42.0491 47.6779C41.236 47.2963 40.6043 46.7588 40.154 46.0653C39.7037 45.3677 39.4785 44.5491 39.4785 43.6094V35.4786H42.5745V43.3448C42.5745 43.7797 42.6704 44.1675 42.8622 44.5081C43.0582 44.8487 43.3313 45.1154 43.6815 45.3082C44.0318 45.5011 44.4383 45.5975 44.9011 45.5975C45.364 45.5975 45.7684 45.5011 46.1145 45.3082C46.4647 45.1154 46.7379 44.8487 46.9338 44.5081C47.1298 44.1675 47.2278 43.7797 47.2278 43.3448V35.4786Z" fill="url(#paint1_linear_241_2457)"/>
<path d="M53.3759 48.2627C52.9256 48.2627 52.5399 48.1067 52.2189 47.7949C51.902 47.483 51.7456 47.1055 51.7498 46.6624C51.7456 46.2274 51.902 45.856 52.2189 45.5483C52.5399 45.2364 52.9256 45.0805 53.3759 45.0805C53.8012 45.0805 54.1765 45.2364 54.5017 45.5483C54.8311 45.856 54.9979 46.2274 55.0021 46.6624C54.9979 46.9578 54.9187 47.2266 54.7644 47.4687C54.6143 47.7108 54.4163 47.9036 54.1702 48.0472C53.9284 48.1909 53.6636 48.2627 53.3759 48.2627Z" fill="url(#paint2_linear_241_2457)"/>
</g>
</g>
</g>
<defs>
<filter id="filter0_d_241_2457" x="0" y="0" width="91.7422" height="91" filterUnits="userSpaceOnUse" color-interpolation-filters="sRGB">
<feFlood flood-opacity="0" result="BackgroundImageFix"/>
<feColorMatrix in="SourceAlpha" type="matrix" values="0 0 0 0 0 0 0 0 0 0 0 0 0 0 0 0 0 0 127 0" result="hardAlpha"/>
<feOffset dy="4"/>
<feGaussianBlur stdDeviation="17"/>
<feComposite in2="hardAlpha" operator="out"/>
<feColorMatrix type="matrix" values="0 0 0 0 0 0 0 0 0 0 0 0 0 0 0 0 0 0 0.1 0"/>
<feBlend mode="normal" in2="BackgroundImageFix" result="effect1_dropShadow_241_2457"/>
<feBlend mode="normal" in="SourceGraphic" in2="effect1_dropShadow_241_2457" result="shape"/>
</filter>
<linearGradient id="paint0_linear_241_2457" x1="29.871" y1="53" x2="60.9701" y2="29.0534" gradientUnits="userSpaceOnUse">
<stop stop-color="#5E13A5"/>
<stop offset="1" stop-color="#FF1A1D"/>
</linearGradient>
<linearGradient id="paint1_linear_241_2457" x1="36.7788" y1="48.2627" x2="54.5712" y2="32.1465" gradientUnits="userSpaceOnUse">
<stop stop-color="#5E13A5"/>
<stop offset="1" stop-color="#FF1A1D"/>
</linearGradient>
<linearGradient id="paint2_linear_241_2457" x1="36.7788" y1="48.2627" x2="54.5712" y2="32.1465" gradientUnits="userSpaceOnUse">
<stop stop-color="#5E13A5"/>
<stop offset="1" stop-color="#FF1A1D"/>
</linearGradient>
</defs>
</svg>
