<svg width="15" height="21" viewBox="0 0 15 21" fill="none" xmlns="http://www.w3.org/2000/svg">
<path d="M2.79249 3.11565C2.96241 1.87257 4.41397 1.02749 5.54089 1.49912C5.74886 1.10902 5.86975 0.788167 6.21552 0.496245C7.5986 -0.674947 9.53035 0.366502 9.56417 2.16449C10.462 1.94621 11.3649 2.18203 11.8949 2.99555C11.9693 3.10864 12.2221 3.66881 12.2221 3.77225V8.46403C13.4843 8.11513 14.8082 8.86817 14.9426 10.269C15.083 11.733 14.9604 14.0254 14.6349 15.4614C14.2739 17.0551 13.1614 19.4326 12.1224 20.6642C11.9178 20.9071 11.7445 20.9719 11.4342 21L3.35975 20.9684C3.27183 20.9334 3.16531 20.9106 3.08669 20.858C2.87449 20.7151 1.79491 18.939 1.60385 18.5892C0.665452 16.8719 0.159056 14.9389 0.0694428 12.9621C0.000119747 11.428 -0.0438412 9.21707 0.0694428 7.70749C0.181036 6.22071 1.37982 5.21959 2.79249 5.70875C2.87111 4.90663 2.68597 3.89235 2.79249 3.11652V3.11565ZM8.02553 1.5938C7.65187 1.15636 6.89692 1.41759 6.84873 2.00582L6.8445 10.532C6.74813 11.3561 5.6229 11.3526 5.51722 10.6574L5.47072 3.29098C5.21288 2.51866 4.23728 2.63262 4.12653 3.44877C3.96422 5.72891 4.32351 8.28608 4.124 10.5329C4.0496 11.3736 2.99707 11.3306 2.82123 10.6968C2.62425 9.98676 2.88971 8.47017 2.79333 7.64174C2.69696 6.81332 1.76363 6.74319 1.47619 7.46028C1.58525 10.2024 1.11605 13.1497 1.88875 15.7971C2.28271 17.1472 3.01145 18.4385 3.84755 19.5404L11.2085 19.5202C12.4478 17.8485 13.322 15.9225 13.5418 13.8028C13.6348 12.9077 13.7075 11.406 13.6136 10.5303C13.5037 9.516 12.3126 9.49409 12.2187 10.5934C12.1443 11.4657 12.3151 12.4957 12.223 13.3539C12.1393 14.1333 11.1392 14.1946 10.9193 13.4556L10.8948 4.22898C10.8889 3.35059 9.7603 3.1849 9.56755 4.03875C9.4289 6.0708 9.73748 8.33166 9.56586 10.3365C9.46948 11.463 8.26394 11.463 8.16841 10.3365C7.94522 7.70486 8.40512 4.68747 8.17432 2.0628C8.1608 1.90764 8.12529 1.71215 8.02469 1.5938H8.02553Z" fill="#424B5A"/>
</svg>