<svg width="21" height="19" viewBox="0 0 21 19" fill="none" xmlns="http://www.w3.org/2000/svg">
<path id="Coeur" d="M20.5411 3.81109C20.23 3.05838 19.7867 2.3849 19.2111 1.81443C18.0522 0.649709 16.52 0.00792496 14.8789 0.00792496C13.2611 0.00792496 11.7289 0.641787 10.5622 1.80651L10.5078 1.86197L10.4533 1.80651C9.29444 0.641787 7.76222 0 6.12111 0C4.50333 0 2.97111 0.633863 1.81222 1.79066C1.23667 2.36114 0.793334 3.03461 0.474445 3.78732C0.163334 4.54004 0.00777778 5.34028 0 6.15638C0 6.97248 0.155554 7.77273 0.466665 8.52544C0.777777 9.27815 1.22111 9.95163 1.78889 10.5221L10.01 18.794C10.1422 18.9287 10.3133 19 10.5 19C10.6867 19 10.8578 18.9287 10.99 18.794L19.1956 10.5538C19.7711 9.98332 20.2144 9.31776 20.5256 8.55713C20.8367 7.80442 20.9922 7.01209 21 6.18807C21 5.37198 20.8444 4.57173 20.5333 3.81902L20.5411 3.81109ZM6.12889 1.41827C7.38111 1.41827 8.57111 1.91743 9.46556 2.81276L10.01 3.36739C10.2822 3.63678 10.7178 3.63678 10.99 3.36739L11.5344 2.82068C12.4367 1.92536 13.6189 1.43411 14.8789 1.43411C16.1389 1.43411 17.3211 1.93328 18.2233 2.83653C18.6589 3.27231 19.0011 3.78732 19.2422 4.36572C19.4833 4.94412 19.6 5.55421 19.6 6.18015C19.6 6.80609 19.4756 7.41618 19.2344 7.99458C18.9933 8.57298 18.6511 9.08799 18.2078 9.52377L10.4922 17.2727L2.76111 9.49208C2.32556 9.0563 1.98333 8.54128 1.74222 7.96288C1.50111 7.38449 1.38444 6.7744 1.38444 6.14846C1.38444 5.52252 1.50889 4.91243 1.75 4.33403C1.99111 3.75563 2.33333 3.24062 2.76889 2.80484C3.67111 1.90951 4.85333 1.41827 6.10555 1.41827" fill="#909090"/>
</svg>
