<svg width="24" height="24" viewBox="0 0 24 24" fill="none" xmlns="http://www.w3.org/2000/svg">
<mask id="path-1-inside-1_1222_89" fill="white">
<path d="M16.0275 17.8772C16.0788 19.1226 15.5848 20.1815 14.3965 20.6619C14.3452 21.5808 14.499 22.2805 13.8932 23.0548C12.882 24.3469 10.9388 24.3049 10.0207 22.9476C9.53144 22.2199 9.57338 21.4642 9.57804 20.6199C8.4177 20.2328 7.88645 19.0573 7.97966 17.8772C2.80237 14.4814 4.28892 6.40705 10.3143 4.99836C18.0779 3.17918 22.5702 13.4272 16.0275 17.8819V17.8772ZM11.6704 6.40239C6.74941 6.70092 4.56386 12.8441 8.24062 16.1466C8.54352 16.4218 9.37766 16.879 9.51746 17.1682C9.82502 17.8072 9.14466 19.09 10.4122 19.2159C11.1578 19.2905 12.854 19.2905 13.595 19.2112C14.8811 19.0713 14.0843 17.7839 14.5223 17.0982C14.6808 16.851 15.2306 16.5758 15.4916 16.3752C19.7369 13.054 17.0947 6.08053 11.6704 6.40705V6.40239ZM12.7795 20.8112H11.1857V21.6835C11.1857 22.0333 11.6285 22.3878 11.964 22.4018C12.2436 22.4158 12.7795 22.1126 12.7795 21.8327V20.8112Z"/>
</mask>
<path d="M16.0275 17.8772L25.0199 17.5071L7.02751 17.8772H16.0275ZM14.3965 20.6619L11.023 12.3181L5.72855 14.4587L5.41047 20.1607L14.3965 20.6619ZM13.8932 23.0548L20.9807 28.6017L20.9816 28.6006L13.8932 23.0548ZM10.0207 22.9476L2.55219 27.9696L2.55892 27.9796L2.56567 27.9896L10.0207 22.9476ZM9.57804 20.6199L18.5779 20.6696L18.6139 14.1471L12.4266 12.0826L9.57804 20.6199ZM7.97966 17.8772L16.9517 18.5858L17.3712 13.2739L12.9157 10.3516L7.97966 17.8772ZM10.3143 4.99836L12.3632 13.762L12.3676 13.761L10.3143 4.99836ZM16.0275 17.8819H7.02751V34.8976L21.0927 25.3212L16.0275 17.8819ZM11.6704 6.40239H20.6704V-3.16014L11.1254 -2.5811L11.6704 6.40239ZM8.24062 16.1466L14.2928 9.48547L14.2738 9.4682L14.2547 9.45104L8.24062 16.1466ZM9.51746 17.1682L17.6271 13.2651L17.6238 13.2582L17.6204 13.2512L9.51746 17.1682ZM10.4122 19.2159L11.3086 10.2607L11.3021 10.26L10.4122 19.2159ZM13.595 19.2112L14.5527 28.1601L14.5606 28.1593L14.5684 28.1584L13.595 19.2112ZM14.5223 17.0982L6.94492 12.242L6.93787 12.253L14.5223 17.0982ZM15.4916 16.3752L20.9762 23.511L21.0068 23.4875L21.0371 23.4637L15.4916 16.3752ZM11.6704 6.40705H2.67039V15.9651L12.2112 15.3908L11.6704 6.40705ZM12.7795 20.8112H21.7795V11.8112H12.7795V20.8112ZM11.1857 20.8112V11.8112H2.18575V20.8112H11.1857ZM11.964 22.4018L12.4138 13.4131L12.3764 13.4112L12.339 13.4096L11.964 22.4018ZM7.03512 18.2473C7.00925 17.6186 7.09619 16.4757 7.80043 15.2019C8.56729 13.8148 9.76826 12.8254 11.023 12.3181L17.77 29.0057C23.3606 26.7454 25.1848 21.513 25.0199 17.5071L7.03512 18.2473ZM5.41047 20.1607C5.3833 20.6478 5.38285 21.135 5.38197 21.2164C5.37988 21.4079 5.37557 21.2043 5.40974 20.9019C5.45049 20.5414 5.54949 19.9664 5.80444 19.2937C6.06535 18.6054 6.4175 18.0042 6.80486 17.5091L20.9816 28.6006C22.5003 26.6594 23.1032 24.628 23.2959 22.9233C23.3737 22.2343 23.3785 21.6351 23.3809 21.4128C23.3845 21.0804 23.3841 21.1355 23.3825 21.1632L5.41047 20.1607ZM6.80576 17.508C9.44407 14.1369 14.8699 14.0525 17.4758 17.9055L2.56567 27.9896C7.0076 34.5574 16.3199 34.557 20.9807 28.6017L6.80576 17.508ZM17.4893 17.9255C18.1915 18.9698 18.453 20.005 18.5391 20.6674C18.5749 20.9432 18.5757 21.1204 18.5754 21.1005C18.5742 21.0237 18.576 21.0215 18.5779 20.6696L0.578179 20.5703C0.577883 20.6239 0.216615 24.4962 2.55219 27.9696L17.4893 17.9255ZM12.4266 12.0826C14.2001 12.6744 15.4942 13.9196 16.2163 15.2481C16.8842 16.477 17.0244 17.6656 16.9517 18.5858L-0.992409 17.1686C-1.30103 21.0765 0.458758 27.065 6.7295 29.1573L12.4266 12.0826ZM12.9157 10.3516C13.2105 10.5449 13.5155 10.8968 13.6876 11.3342C13.8409 11.7235 13.8451 12.06 13.8 12.3073C13.7549 12.5544 13.6356 12.8516 13.3742 13.1425C13.08 13.47 12.6947 13.6845 12.3632 13.762L8.26544 -3.76532C-5.31595 -0.590094 -8.87502 17.5854 3.04357 25.4028L12.9157 10.3516ZM12.3676 13.761C12.1727 13.8067 11.6321 13.8148 11.0708 13.5066C10.6098 13.2535 10.3955 12.9333 10.3016 12.7203C10.208 12.5082 10.1144 12.1321 10.2398 11.6147C10.3923 10.9849 10.7708 10.5729 10.9623 10.4425L21.0927 25.3212C35.964 15.1959 25.638 -7.83609 8.26105 -3.76429L12.3676 13.761ZM25.0275 17.8819V17.8772H7.02751V17.8819H25.0275ZM11.1254 -2.5811C-1.64059 -1.80665 -7.48798 14.1165 2.22655 22.8422L14.2547 9.45104C16.6157 11.5717 15.1394 15.2085 12.2154 15.3859L11.1254 -2.5811ZM2.18844 22.8078C2.5023 23.093 2.78166 23.3102 2.94589 23.4345C3.1232 23.5686 3.28204 23.6813 3.38753 23.7551C3.49294 23.8289 3.59738 23.9003 3.6538 23.9389C3.72458 23.9874 3.7546 24.0081 3.77676 24.0236C3.85757 24.0803 3.69088 23.9695 3.44876 23.7623C3.32094 23.6528 3.06086 23.4226 2.75637 23.0856C2.59856 22.9109 2.39356 22.6687 2.17345 22.3623C1.95705 22.061 1.67923 21.6327 1.41454 21.0851L17.6204 13.2512C17.0877 12.1493 16.45 11.3921 16.1134 11.0195C15.7353 10.601 15.3848 10.2855 15.1544 10.0883C14.7071 9.70534 14.2867 9.4089 14.1036 9.28067C13.9939 9.20378 13.8894 9.13226 13.8279 9.09014C13.7521 9.03819 13.7265 9.02059 13.709 9.00829C13.5851 8.92158 13.9011 9.12959 14.2928 9.48547L2.18844 22.8078ZM1.40782 21.0712C0.919174 20.0559 0.746552 19.1712 0.67662 18.6641C0.607097 18.16 0.608553 17.7876 0.608822 17.7091C0.608854 17.6999 0.611379 17.5397 0.60402 17.851C0.599984 18.0218 0.59048 18.4507 0.623421 18.9625C0.680094 19.8431 0.918846 22.2796 2.77402 24.581C4.84538 27.1506 7.60401 27.9812 9.52232 28.1718L11.3021 10.26C12.5866 10.3876 14.955 11.0107 16.7878 13.2844C18.4044 15.2898 18.5564 17.3422 18.5863 17.8064C18.6058 18.11 18.5979 18.3228 18.599 18.2764C18.6001 18.2305 18.5994 18.2656 18.6027 18.142C18.6048 18.065 18.6082 17.9291 18.6087 17.7709C18.6097 17.4804 18.604 16.9019 18.5078 16.2048C18.4113 15.5048 18.1926 14.4402 17.6271 13.2651L1.40782 21.0712ZM9.51579 28.1712C10.848 28.3045 13.1663 28.3085 14.5527 28.1601L12.6372 10.2624C12.7543 10.2498 12.7471 10.2552 12.5632 10.2619C12.4106 10.2674 12.2133 10.2711 11.9967 10.2713C11.7805 10.2715 11.5801 10.2682 11.4221 10.2629C11.2358 10.2566 11.2124 10.251 11.3086 10.2607L9.51579 28.1712ZM14.5684 28.1584C16.4803 27.9504 19.3568 27.0781 21.428 24.309C23.2289 21.9011 23.3434 19.4004 23.3701 18.7045C23.3867 18.2706 23.3745 17.8795 23.3729 17.8136C23.3688 17.646 23.375 17.7956 23.3689 17.9847C23.3605 18.2482 23.3258 20.0351 22.1068 21.9434L6.93787 12.253C5.49978 14.5041 5.40044 16.7091 5.37806 17.4113C5.36505 17.8196 5.37683 18.1937 5.37817 18.2489C5.38196 18.4057 5.37482 18.2357 5.38332 18.0143C5.39371 17.7434 5.43885 15.6336 7.01378 13.528C7.85531 12.4028 8.91763 11.5683 10.0338 11.0227C11.0864 10.5081 12.0209 10.3294 12.6215 10.264L14.5684 28.1584ZM22.0997 21.9545C21.7037 22.5723 21.3083 23.0142 21.0508 23.2791C20.7827 23.5547 20.5497 23.7549 20.4007 23.8767C20.2466 24.0027 20.1224 24.0935 20.0507 24.1446C19.9769 24.1972 19.9253 24.2313 19.9108 24.2408C19.8966 24.2501 19.8962 24.2501 19.9303 24.2285C19.9381 24.2236 20.0365 24.1614 20.0923 24.1258C20.1642 24.08 20.2817 24.0045 20.4152 23.9144C20.5441 23.8275 20.7454 23.6884 20.9762 23.511L10.007 9.23942C10.2862 9.02486 10.5016 8.89332 10.4124 8.95021C10.3774 8.97251 10.3814 8.96975 10.2937 9.02536C10.2324 9.06424 10.1354 9.12593 10.0263 9.19764C9.83642 9.32238 9.44297 9.58526 9.00715 9.94159C8.78027 10.1271 8.47621 10.3909 8.14674 10.7297C7.82778 11.0577 7.38052 11.5623 6.94493 12.242L22.0997 21.9545ZM21.0371 23.4637C32.3169 14.6393 25.2699 -3.42787 11.1296 -2.57668L12.2112 15.3908C11.5122 15.4329 10.6923 15.2225 9.9978 14.7372C9.36657 14.2961 8.99302 13.7418 8.79826 13.2313C8.60379 12.7216 8.51092 12.0542 8.69109 11.2943C8.88936 10.4581 9.37141 9.73626 9.94611 9.28666L21.0371 23.4637ZM20.6704 6.40705V6.40239H2.67039V6.40705H20.6704ZM12.7795 11.8112H11.1857V29.8112H12.7795V11.8112ZM2.18575 20.8112V21.6835H20.1857V20.8112H2.18575ZM2.18575 21.6835C2.18575 25.511 4.38649 27.9436 5.50829 28.9293C6.70954 29.9849 8.78957 31.2772 11.5889 31.394L12.339 13.4096C14.8029 13.5124 16.4938 14.6205 17.3898 15.4078C18.2064 16.1254 20.1857 18.2058 20.1857 21.6835H2.18575ZM11.5141 31.3906C14.3208 31.531 16.4255 30.3906 17.3573 29.7891C17.998 29.3755 18.8753 28.7082 19.6908 27.6992C20.4314 26.783 21.7795 24.757 21.7795 21.8327H3.77948C3.77948 19.0484 5.06062 17.1652 5.6919 16.3842C6.3982 15.5103 7.12404 14.9703 7.59587 14.6658C8.10142 14.3395 8.66128 14.0612 9.27993 13.8482C9.78885 13.6731 10.9155 13.3381 12.4138 13.4131L11.5141 31.3906ZM21.7795 21.8327V20.8112H3.77948V21.8327H21.7795Z" fill="#424B5A" mask="url(#path-1-inside-1_1222_89)"/>
<path d="M3.83671 3.3052C4.08835 3.25389 4.33534 3.28188 4.54504 3.42182C4.72212 3.53843 5.74266 4.56463 5.86848 4.74655C6.38575 5.50221 5.54694 6.36981 4.7827 5.8847C4.61494 5.77742 3.54779 4.7139 3.43129 4.54131C3.15169 4.12616 3.31479 3.41715 3.83671 3.30987V3.3052Z" fill="#424B5A"/>
<path d="M18.6512 17.9753C18.8282 17.952 19.0566 17.9986 19.2104 18.0919C19.3269 18.1666 20.5804 19.426 20.6503 19.5426C21.0697 20.2609 20.2635 21.0726 19.5412 20.6528C19.4247 20.5875 18.1292 19.2907 18.0687 19.1834C17.7984 18.6983 18.092 18.0593 18.6465 17.98L18.6512 17.9753Z" fill="#424B5A"/>
<path d="M5.08569 17.9799C5.76139 17.8726 6.24137 18.5583 5.92449 19.1694C5.83595 19.342 4.73152 20.4568 4.54512 20.5874C3.80884 21.1052 2.96538 20.3542 3.3242 19.6125C3.39876 19.4586 4.56842 18.2738 4.7455 18.1432C4.84802 18.0639 4.95521 18.0032 5.08103 17.9799H5.08569Z" fill="#424B5A"/>
<path d="M21.4938 11.193C21.8713 11.137 23.2134 11.137 23.5349 11.2676C24.2199 11.5522 24.1221 12.6343 23.4137 12.765C23.1435 12.8163 21.5497 12.8163 21.3027 12.751C20.5618 12.5551 20.5851 11.3236 21.4938 11.1883V11.193Z" fill="#424B5A"/>
<path d="M0.747378 11.193C1.13416 11.137 2.44829 11.1324 2.77449 11.2863C3.45019 11.5988 3.31505 12.667 2.62537 12.7743C2.24324 12.8349 1.08756 12.8209 0.682137 12.7789C-0.193947 12.695 -0.282487 11.3423 0.747378 11.193Z" fill="#424B5A"/>
<path d="M11.815 0.0120997C12.2111 -0.0532041 12.7004 0.147372 12.7749 0.57651C12.8215 0.856384 12.8215 2.39102 12.7656 2.6569C12.6351 3.30061 11.6192 3.40789 11.3024 2.79684C11.1299 2.46099 11.1439 1.28552 11.1812 0.870377C11.2185 0.455232 11.3909 0.0820679 11.8196 0.0120997H11.815Z" fill="#424B5A"/>
<path d="M19.6949 3.30529C20.3846 3.16069 20.9019 3.75309 20.6409 4.40146C20.571 4.57405 19.4433 5.73086 19.2569 5.8568C18.5253 6.35591 17.6725 5.59092 18.0546 4.85393C18.1338 4.7 19.2289 3.60383 19.4107 3.46389C19.4946 3.40325 19.5971 3.32395 19.6996 3.30063L19.6949 3.30529Z" fill="#424B5A"/>
</svg>