<svg width="45" height="46" viewBox="0 0 45 46" fill="none" xmlns="http://www.w3.org/2000/svg">
<g id="Calque_1" clip-path="url(#clip0_955_764)">
<path id="Vector" d="M32.7348 13.8798C34.1505 13.7817 35.361 15.1472 35.4075 16.5113C35.4541 17.8886 34.069 19.2967 33.5874 20.5406C35.1777 20.6916 36.2921 22.063 36.0157 23.685C35.9502 24.0688 35.6069 24.6535 35.4192 25.0183C33.7082 28.3472 31.4224 32.2476 29.4452 35.4403C27.4985 38.5831 25.1735 39.411 22.7044 41.7597C20.829 43.5428 20.5191 47.1648 17.2629 45.6307C14.2701 44.2212 11.2642 41.9194 8.30191 40.3648C6.00892 38.2432 9.15451 36.1011 9.44695 33.6732C9.61718 32.2637 9.11814 29.7201 7.9149 28.8307C6.71166 27.9414 3.80468 26.8732 2.29154 26.1143C1.89288 25.915 0.235698 25.156 0.0829291 24.9011C-0.298266 24.2637 0.756569 22.4776 1.20906 21.937C3.76103 18.8908 7.32128 21.2249 10.2254 22.2608L7.10886 16.967C6.7393 16.2754 7.54389 15.7348 8.05748 15.4036C10.8757 13.5912 13.3884 14.7062 15.079 17.3187L19.2504 10.1304C20.5598 8.49668 22.7859 8.81316 23.8291 10.5494C25.0381 9.30547 27.0969 9.62782 27.9902 11.0857C28.6348 10.0322 29.1615 8.94503 30.5466 8.82782C32.8803 8.62855 34.2494 10.7546 33.2906 12.8806C33.2237 13.03 32.6519 13.8095 32.7377 13.8813L32.7348 13.8798ZM11.1856 40.5172L18.4923 44.6139C19.3813 44.6754 19.7712 43.3318 20.2063 42.6828C22.2432 39.6483 25.4557 38.4014 27.7007 35.619C29.6867 32.06 31.8633 28.5948 33.8187 25.0198C34.0326 24.6285 34.5957 23.7597 34.6495 23.3817C34.8503 21.9458 33.0258 21.3934 32.326 22.6564L28.2987 29.6659C27.6774 30.252 26.8015 29.6307 27.1624 28.8439L33.8842 17.1355C34.4735 15.537 32.454 14.5084 31.5141 15.9296L26.915 23.9751C26.141 24.5919 25.3306 23.8813 25.8486 23.008L32.0655 12.1875C32.7726 10.6168 30.8434 9.44173 29.8075 10.7736L23.4363 21.8696C22.8936 22.5289 21.9406 21.9883 22.2185 21.1824L26.9267 12.9216C27.3297 11.4344 25.5314 10.5274 24.5798 11.7392L18.229 22.8278C17.8885 23.1355 17.503 23.1839 17.1538 22.8542C15.9695 21.2762 15.0325 19.4916 13.8293 17.9296C12.3161 15.9648 10.947 15.2146 8.622 16.6769C10.1701 19.937 12.9767 22.9069 13.7769 26.4718C14.2846 28.7384 14.5538 31.8637 13.9267 34.104C13.32 36.271 11.9553 38.3956 11.1856 40.5201V40.5172ZM17.4797 20.9714L17.7809 20.7927L22.4978 12.5436C23.1074 10.9773 21.651 9.73038 20.375 10.9436L16.0262 18.5011L17.4797 20.9714ZM10.0086 39.7729C10.6677 37.9077 11.82 36.0762 12.4383 34.2139C13.0232 32.4498 12.9636 30.8058 12.7831 28.9758C12.6915 28.0439 12.1852 24.8161 11.4271 24.3253C9.20834 23.6952 5.68447 21.1809 3.39875 21.9941C2.58543 22.2842 1.67464 23.3333 1.62954 24.1948L8.72385 27.6923C10.9746 29.7758 11.4417 33.2571 10.1686 36.0102C9.53716 37.3758 7.67338 38.9099 10.0086 39.7729Z" fill="black"/>
<path id="Vector_2" d="M35.668 2.32532C36.1481 2.32532 36.4362 2.80151 36.3154 3.24546C36.2572 3.45938 35.198 5.244 35.0322 5.39784C34.424 5.96048 33.6965 5.38173 33.9555 4.52898C34.0035 4.37367 34.9521 2.78832 35.0802 2.65499C35.2417 2.48502 35.4119 2.32678 35.6665 2.32678L35.668 2.32532Z" fill="black"/>
<path id="Vector_3" d="M11.7952 8.74283C11.9858 8.70327 12.0659 8.71646 12.2434 8.78239C12.4209 8.84833 14.2483 9.92525 14.3254 10.0176C14.807 10.5846 14.3399 11.4124 13.451 11.1135C13.2589 11.0491 11.4664 9.97067 11.3893 9.86078C11.11 9.46811 11.2875 8.84686 11.7952 8.7443V8.74283Z" fill="black"/>
<path id="Vector_4" d="M41.7744 8.74285C42.5062 8.58607 42.9573 9.31721 42.4902 9.90036C42.4102 9.99999 40.5755 11.0989 40.4213 11.1458C39.6007 11.3993 39.1322 10.5934 39.6196 10.0161C39.7011 9.92087 41.6507 8.76776 41.7744 8.74138V8.74285Z" fill="black"/>
<path id="Vector_5" d="M41.6173 17.6689C41.9112 17.3524 43.8404 17.3583 44.3031 17.433C45.1935 17.5751 45.1906 18.6916 44.5199 18.822C44.194 18.885 42.2938 18.8836 41.965 18.822C41.4703 18.7297 41.3103 18 41.6173 17.6704V17.6689Z" fill="black"/>
<path id="Vector_6" d="M18.2785 2.32532C18.3978 2.32532 18.5404 2.38246 18.6422 2.44546C18.8779 2.59198 19.9051 4.32971 19.988 4.63741C20.2383 5.56195 19.3435 5.96195 18.7586 5.23081C18.5927 5.02275 17.679 3.44766 17.631 3.244C17.5234 2.79565 17.7882 2.32385 18.2785 2.32385V2.32532Z" fill="black"/>
<path id="Vector_7" d="M42.5222 27.3905C42.4728 27.4432 42.1294 27.5985 42.0537 27.6029C41.7206 27.6293 39.5687 26.3722 39.4756 26.0513C39.3475 25.6117 39.5338 25.1854 39.9863 25.1033C40.3063 25.0447 41.9403 25.9971 42.2632 26.2549C42.6066 26.5289 42.8932 26.9963 42.5208 27.3905H42.5222Z" fill="black"/>
<path id="Vector_8" d="M26.4669 0.156801C26.7943 -0.152356 27.5188 0.0102811 27.6105 0.506984C27.6716 0.83812 27.6731 2.75314 27.6105 3.07988C27.4825 3.75094 26.4131 3.75094 26.2516 2.84105C26.1672 2.36193 26.1395 0.464494 26.4669 0.155336V0.156801Z" fill="black"/>
<path id="Vector_9" d="M17.4797 20.9714L16.0262 18.5011L20.375 10.9436C21.651 9.73189 23.1074 10.9788 22.4978 12.5436L17.7809 20.7927L17.4797 20.9714Z" fill="white"/>
</g>
<defs>
<clipPath id="clip0_955_764">
<rect width="45" height="46" fill="white"/>
</clipPath>
</defs>
</svg>
