<svg width="28" height="19" viewBox="0 0 28 19" fill="none" xmlns="http://www.w3.org/2000/svg">
<g id="Calque_1" clip-path="url(#clip0_955_884)">
<path id="Vector" d="M11.8172 15.5618H25.9564C27.1333 15.4678 27.9285 14.6455 27.9921 13.4942V2.05977C27.8967 0.892828 27.0856 0.0783182 25.9007 0H5.98022C4.96233 0.0783182 4.15119 0.783182 4.0001 1.78566V7.10346C3.53887 7.36191 3.06968 7.56554 2.64026 7.86315C-0.341848 9.93075 -0.898507 14.0973 1.48718 16.8384C4.41362 20.1983 9.87684 19.5169 11.8252 15.554L11.8172 15.5618Z" fill="white"/>
<path id="Vector_2" d="M11.8169 15.5618C9.87655 19.5247 4.40538 20.2061 1.47893 16.8462C-0.906752 14.1051 -0.34214 9.93075 2.63202 7.87098C3.06144 7.57337 3.53062 7.36974 3.9839 7.11129V1.78566C4.1509 0.783182 4.95408 0.0783182 5.97993 0H25.9084C27.0933 0.0783182 27.9123 0.90066 27.9998 2.05977V13.4942C27.9282 14.6455 27.141 15.4678 25.964 15.554H11.8169V15.5618ZM5.78112 4.01772H26.1231L26.2105 3.93157V2.00495C26.2105 1.87964 25.9322 1.71517 25.797 1.75433L5.8845 1.80915C5.8845 1.80915 5.78907 1.92663 5.78907 1.95012V4.00989L5.78112 4.01772ZM26.1549 5.77205H5.72545V6.75886C9.66184 6.46125 12.9859 9.93858 12.3656 13.7918H25.9561C25.9561 13.7918 26.1549 13.6117 26.1549 13.596V5.77205ZM5.7175 8.48186C2.32188 8.8108 0.651896 12.7502 2.63997 15.4365C4.81889 18.3891 9.55846 17.5668 10.5445 14.0581C11.4193 10.9567 8.93818 8.16859 5.7175 8.48186Z" fill="black"/>
<path id="Vector_3" d="M26.1551 5.77203V13.6039C26.1551 13.6039 25.9722 13.7997 25.9563 13.7997H12.3658C12.9861 9.9464 9.66203 6.46123 5.72565 6.76668V5.77987H26.1471L26.1551 5.77203ZM21.0736 10.5573H19.2843V12.3194H21.0736V10.5573ZM24.4215 10.5573H22.6322V12.3194H24.4215V10.5573Z" fill="white"/>
<path id="Vector_4" d="M5.78131 4.01774V1.95797C5.78131 1.95797 5.84493 1.83266 5.87674 1.81699L25.7893 1.76217C25.9245 1.72301 26.2028 1.88748 26.2028 2.01279V3.93942L26.1153 4.02557H5.78131V4.01774Z" fill="white"/>
<path id="Vector_5" d="M5.7177 8.48188C8.93838 8.17644 11.4195 10.9567 10.5447 14.0581C9.55866 17.5668 4.81909 18.3891 2.64017 15.4365C0.652094 12.7424 2.33003 8.80299 5.7177 8.48188ZM4.74752 10.2362L3.55468 11.4501C3.57854 11.6773 4.65209 12.5074 4.835 12.7737C4.87476 12.8285 4.89862 12.852 4.88271 12.9304C4.82704 13.1418 3.54673 14.1286 3.54673 14.3166L4.74752 15.554L6.13917 14.2304C6.18689 14.1835 6.2346 14.1678 6.29822 14.1835C6.50498 14.2383 7.53877 15.5227 7.69782 15.4914L8.90657 14.3166L7.51492 12.899L8.89862 11.4188L7.65806 10.2362L6.21074 11.599L4.75547 10.2362H4.74752Z" fill="white"/>
<path id="Vector_6" d="M21.0815 10.5573H19.2922V12.3195H21.0815V10.5573Z" fill="black"/>
<path id="Vector_7" d="M24.4294 10.5573H22.6402V12.3195H24.4294V10.5573Z" fill="black"/>
<path id="Vector_8" d="M4.7475 10.2362L6.20277 11.5989L7.65009 10.2362L8.89065 11.4188L7.50695 12.899L8.8986 14.3166L7.68985 15.4914C7.53081 15.5227 6.49701 14.2383 6.29025 14.1834C6.22663 14.1678 6.17892 14.1834 6.1312 14.2304L4.73955 15.554L3.53876 14.3166C3.53876 14.1286 4.81908 13.1418 4.87474 12.9304C4.8986 12.852 4.86679 12.8285 4.82703 12.7737C4.64413 12.4996 3.57057 11.6694 3.54671 11.4501L4.73955 10.2362H4.7475Z" fill="black"/>
</g>
<defs>
<clipPath id="clip0_955_884">
<rect width="28" height="19" fill="white"/>
</clipPath>
</defs>
</svg>
