<svg width="50" height="50" viewBox="0 0 50 50" fill="none" xmlns="http://www.w3.org/2000/svg">
<rect x="0.2" y="0.2" width="49.6" height="49.6" rx="24.8" fill="white" stroke="#E0E0E0" stroke-width="0.4"/>
<g clip-path="url(#clip0_1080_1666)">
<path d="M29.36 15.359H35.1924C35.4422 15.359 35.7218 14.9162 35.7508 14.6762C35.8941 13.4703 35.6404 11.9839 35.7508 10.7463C35.7124 10.4211 35.4266 10.0483 35.0781 10.0603C32.963 10.2129 30.5918 9.86632 28.5072 10.0603C28.1212 10.096 27.9035 10.3735 27.8346 10.7463L27.8236 19.184L22.9638 27.1329L22.7962 27.109L19.3342 24.6139C18.8299 24.4565 18.4986 24.691 18.2574 25.1226L13.1697 33.4347C12.7093 33.4928 12.1987 33.4013 11.7429 33.4451C10.6302 33.5508 10.8291 35.0595 11.9191 34.9967H37.0123C37.6435 35.0428 38.1956 34.5364 37.9324 33.8791C37.6529 33.1812 36.5573 33.55 36.0131 33.4474C35.9473 33.4347 35.9019 33.4172 35.8729 33.3521L29.36 19.3159V15.359Z" fill="white"/>
<path d="M29.3602 15.359V19.3159L35.8731 33.3521C35.9021 33.418 35.9475 33.4355 36.0133 33.4474C36.5575 33.55 37.653 33.1804 37.9326 33.8791C38.1957 34.5364 37.6436 35.0428 37.0125 34.9975H11.9193C10.83 35.0595 10.6311 33.5516 11.7431 33.4451C12.1988 33.4021 12.7086 33.4928 13.1699 33.4347L18.2576 25.1226C18.4988 24.6918 18.83 24.4573 19.3343 24.6139L22.7963 27.109L22.9639 27.1329L27.8237 19.184L27.8347 10.7463C27.9036 10.3742 28.1213 10.096 28.5074 10.0603C30.592 9.86632 32.9631 10.2129 35.0782 10.0603C35.4267 10.0476 35.7125 10.4211 35.7509 10.7463C35.6405 11.9831 35.8942 13.4703 35.7509 14.6762C35.7227 14.9162 35.4424 15.359 35.1926 15.359H29.3602ZM34.2255 11.5507H29.3602V13.871H34.2255V11.5507ZM34.2255 33.4466L28.5387 21.0114C28.4048 21.1092 28.3124 21.292 28.2216 21.4327C26.776 23.6807 25.4784 26.1194 23.9913 28.3244C23.6616 28.8132 23.4252 29.2465 22.7548 28.9349L19.2505 26.4254L14.9396 33.4466H34.2247H34.2255Z" fill="black"/>
<path d="M34.2255 33.4468H14.9404L19.2513 26.4256L22.7556 28.935C23.4252 29.2474 23.6617 28.8142 23.9921 28.3246C25.4792 26.1195 26.7768 23.6808 28.2223 21.4329C28.3132 21.2922 28.4048 21.1094 28.5395 21.0116L34.2263 33.4468H34.2255Z" fill="white"/>
<path d="M34.2254 11.5508H29.3601V13.8711H34.2254V11.5508Z" fill="white"/>
</g>
<defs>
<clipPath id="clip0_1080_1666">
<rect width="27" height="25" fill="white" transform="translate(11 10)"/>
</clipPath>
</defs>
</svg>