<svg width="40" height="31" viewBox="0 0 40 31" fill="none" xmlns="http://www.w3.org/2000/svg">
<g id="Group 482117">
<g id="Group 482218">
<path id="Vector" d="M39 22.2443V22.6789C38.7928 22.959 38.6173 23.0971 38.2386 23.0257L31.61 20.5068C25.0319 23.8688 14.5368 20.896 13.0477 13.2051C11.5972 5.71123 19.2103 0.627102 26.1978 1.02116C33.3806 1.42681 40.0747 7.58107 37.1064 14.9272C36.9725 15.2585 36.5333 15.892 36.5532 16.1866L39 22.2443ZM37.2928 21.3751L35.2861 16.1219C35.2604 15.6873 35.7075 15.1744 35.8959 14.7601C39.2092 7.50767 31.495 1.79865 24.567 2.18016C13.6287 2.7838 9.70166 15.3782 20.3019 19.7428C23.986 21.2601 27.9804 20.9433 31.5426 19.2734L37.2938 21.3751H37.2928Z" fill="black" stroke="black" stroke-width="0.4"/>
<path id="Vector_2" d="M2.71117 28.329L8.46535 26.2245C9.25749 26.4717 10.005 26.8735 10.817 27.1169C14.8431 28.3213 19.6337 27.5728 22.823 24.8173C23.4288 24.2938 23.9077 23.6563 24.4738 23.0971C25.1697 22.8943 25.5574 23.3821 25.1846 24.0079C24.7642 24.713 23.5726 25.7609 22.8905 26.2593C18.7463 29.2833 13.0368 29.5788 8.39397 27.4617L1.76536 29.9806C1.28154 30.0907 0.907781 29.7247 1.0208 29.2533L3.45176 23.1416C3.29908 22.5292 2.90449 21.9797 2.69035 21.3606C0.759068 15.7752 4.56512 10.6167 9.87118 8.77001C10.466 8.56333 12.1009 7.8602 11.9938 9.02596C11.9472 9.53785 10.5711 9.75226 10.0933 9.92901C5.18971 11.7399 1.78023 16.6183 4.10807 21.7141C4.29743 22.1274 4.74456 22.6413 4.71779 23.0759L2.71117 28.329Z" fill="black" stroke="black" stroke-width="0.4"/>
<path id="Vector_3" d="M22.2083 12.9145C22.9797 12.7493 22.9311 13.4978 23.1799 13.9634C24.0494 15.5937 26.5121 15.6459 27.4559 14.0542C27.7226 13.6051 27.796 12.5156 28.6397 12.9802C29.3773 13.3868 28.3244 14.9611 27.908 15.3648C26.0838 17.1323 22.8686 16.4765 21.9704 14.1295C21.8187 13.7325 21.5758 13.0487 22.2083 12.9135V12.9145Z" fill="black" stroke="black" stroke-width="0.4"/>
<path id="Vector_4" d="M21.3944 7.70377C22.1221 7.60236 22.9777 7.85154 23.4933 8.37019C23.9493 8.82896 24.681 10.5433 23.6003 10.5877C22.9331 10.6148 23.0412 10.1048 22.9381 9.70883C22.6377 8.55563 20.9295 8.55563 20.6291 9.70883C20.5259 10.1039 20.634 10.6148 19.9668 10.5877C19.247 10.5578 19.3749 9.74747 19.5236 9.28194C19.7764 8.49382 20.5517 7.8216 21.3944 7.70377Z" fill="black" stroke="black" stroke-width="0.4"/>
<path id="Vector_5" d="M28.5188 7.70377C29.2465 7.60236 30.102 7.85154 30.6176 8.37019C31.0736 8.82896 31.8053 10.5433 30.7247 10.5877C30.0574 10.6148 30.1655 10.1048 30.0624 9.70883C29.762 8.55563 28.0538 8.55563 27.7534 9.70883C27.6503 10.1039 27.7583 10.6148 27.0911 10.5877C26.3713 10.5578 26.4992 9.74747 26.648 9.28194C26.9008 8.49382 27.6761 7.8216 28.5188 7.70377Z" fill="black" stroke="black" stroke-width="0.4"/>
</g>
</g>
</svg>
