<svg width="41" height="41" viewBox="0 0 41 41" fill="none" xmlns="http://www.w3.org/2000/svg">
<g id="Group 482116">
<g id="Group 482113">
<rect id="Rectangle 2434" width="41" height="41" rx="6" fill="#F9F8F8"/>
</g>
<g id="Group 482114">
<g id="Group 482115">
<path id="Vector" d="M30.8463 33H30.6356C30.5489 32.9232 30.4418 32.9169 30.3445 32.8422C29.9372 32.5302 29.3106 31.8443 28.9139 31.4527C27.3268 29.8856 25.808 28.2566 24.2019 26.7001C23.7769 26.0514 24.882 25.5028 25.1526 25.0133L23.4104 23.2469H23.3336C22.2842 24.2188 20.9417 24.9407 19.5617 25.3288C14.0837 26.8712 8.48438 23.48 7.24823 17.9752L7.01144 16.604C7.03822 16.0863 6.97549 15.5356 7.01144 15.0221C7.30602 10.8548 10.512 7.26077 14.5411 6.28602C21.898 4.50626 28.417 11.3267 26.3126 18.5816C25.9179 19.9423 25.1956 21.2678 24.2561 22.3236L26.0744 24.1414C26.746 23.6068 27.0604 22.6349 27.9744 23.4026C29.9562 25.0675 31.7266 27.398 33.6956 29.1229C34.0847 29.5947 34.1107 29.7863 33.7217 30.2582C33.16 30.9392 31.9232 32.1584 31.2438 32.7366C31.1134 32.8472 30.9908 32.9141 30.847 32.9993L30.8463 33ZM16.1761 7.28824C9.77338 7.758 6.18757 15.0116 9.62608 20.448C13.0272 25.826 20.8726 25.7507 24.192 20.3107C27.8645 14.2904 23.1419 6.77692 16.1761 7.28824ZM27.4614 24.6823L27.2838 24.7196L25.6819 26.3754L30.7596 31.4132L32.3777 29.8124L32.4306 29.6574L27.4614 24.6823Z" fill="black" stroke="black" stroke-width="0.2"/>
<path id="Vector_2" d="M16.2289 11.2423C19.1769 11.0345 22.0713 12.3889 23.8022 14.7637C24.1475 15.237 24.5338 15.6779 24.2645 16.2709C23.8614 17.1584 22.669 18.3268 21.8677 18.8825C18.0986 21.4989 12.8228 20.8292 10.0489 17.1267C9.82336 16.8252 9.28563 16.0928 9.33497 15.7385C9.36668 15.5096 9.9777 14.6722 10.1553 14.4482C11.6071 12.6107 13.8799 11.4085 16.2296 11.2423H16.2289ZM16.4925 12.5072C14.5791 12.6086 12.6889 13.4911 11.414 14.9159C11.2893 15.0553 10.7713 15.6885 10.7269 15.816C10.6888 15.9258 11.0334 16.3505 11.1272 16.4696C12.82 18.6325 15.7067 19.6347 18.3925 19.0452C20.301 18.6261 21.9367 17.4816 23.0361 15.8836C21.6837 13.677 19.0789 12.3691 16.4925 12.5065V12.5072Z" fill="black" stroke="black" stroke-width="0.2"/>
<path id="Vector_3" d="M16.4377 13.3495C19.9467 12.8748 20.4005 18.0007 17.2087 18.338C13.6602 18.7127 13.4679 13.7517 16.4377 13.3495ZM16.5949 14.6137C15.1297 14.863 15.2974 17.3802 17.1502 17.0661C18.6633 16.8097 18.3152 14.3214 16.5949 14.6137Z" fill="black" stroke="black" stroke-width="0.2"/>
</g>
</g>
</g>
</svg>
