<svg width="50" height="50" viewBox="0 0 50 50" fill="none" xmlns="http://www.w3.org/2000/svg">
<rect x="0.2" y="0.2" width="49.6" height="49.6" rx="24.8" fill="white" stroke="#E0E0E0" stroke-width="0.4"/>
<g clip-path="url(#clip0_1080_1656)">
<path d="M31.51 17.07C31.73 17.02 32.03 17.04 32.24 17.13C32.5 17.24 33.58 18.35 33.68 18.62C33.99 19.47 33.14 20.2 32.34 19.78C32.15 19.68 31.19 18.74 31.07 18.55C30.73 18.04 30.88 17.21 31.52 17.07H31.51Z" fill="black"/>
<path d="M18.7899 17.07C19.6099 16.88 20.2499 17.56 19.9399 18.35C19.8599 18.56 18.8499 19.6 18.6399 19.73C17.8199 20.24 16.8899 19.5 17.2199 18.61C17.3299 18.31 18.4999 17.13 18.7899 17.06V17.07Z" fill="black"/>
<path d="M15.5601 15.1C15.0701 14.58 15.3701 13.67 16.1001 13.52C16.4801 13.44 17.5701 13.46 17.9401 13.56C18.8901 13.82 18.7601 15.18 17.9301 15.35C17.6301 15.41 16.4001 15.41 16.0801 15.35C15.9101 15.33 15.6801 15.21 15.5701 15.08L15.5601 15.1Z" fill="black"/>
<path d="M35.3701 15.1C35.2601 15.22 35.0201 15.34 34.8601 15.37C34.5401 15.42 33.3101 15.42 33.0101 15.37C32.1301 15.19 32.0801 13.75 33.0901 13.54C33.4101 13.47 34.5201 13.47 34.8401 13.54C35.5701 13.69 35.8601 14.58 35.3801 15.12L35.3701 15.1Z" fill="black"/>
<path d="M32.6299 9.00999C33.3899 8.88999 33.8899 9.56999 33.6599 10.29C33.5999 10.47 32.4899 11.62 32.2999 11.74C31.5099 12.21 30.6599 11.47 30.9499 10.58C31.0099 10.39 32.0099 9.36999 32.2099 9.21999C32.3399 9.11999 32.4699 9.03999 32.6299 9.01999V9.00999Z" fill="black"/>
<path d="M17.9499 9.01C18.1999 8.97 18.4399 9.01 18.6499 9.15C18.8099 9.25 19.7899 10.25 19.8899 10.41C20.4099 11.26 19.4999 12.25 18.6299 11.73C18.4799 11.64 17.4499 10.61 17.3499 10.45C17.0099 9.9 17.2799 9.11 17.9499 9.01Z" fill="black"/>
<path d="M12.0199 36.95C12.0399 36.73 12.1199 36.38 12.1699 36.15C12.5199 34.72 13.4399 33.59 14.6499 32.84C12.4099 30.4 14.4799 26.43 17.7099 27.06C19.7999 27.47 20.9599 30.02 20.0199 31.98C19.8699 32.3 19.6299 32.55 19.4299 32.83C20.1399 33.32 20.7699 33.86 21.2399 34.6C21.7599 33.89 22.3499 33.27 23.1099 32.83C21.2499 30.97 22.2799 27.58 24.7899 27.06C28.0299 26.39 30.1199 30.41 27.8399 32.83C28.5999 33.27 29.1899 33.89 29.7099 34.6C30.1799 33.91 30.7599 33.26 31.5199 32.91C31.5499 32.71 31.3399 32.62 31.2399 32.47C29.4699 29.88 31.6399 26.39 34.6699 27.07C37.1599 27.63 38.1199 30.96 36.3099 32.83C37.7899 33.71 38.8199 35.29 38.9399 37.07C38.9699 37.59 39.0099 38.82 38.9399 39.3C38.8899 39.66 38.6399 39.82 38.3599 39.98H12.5999C12.2999 39.82 12.1799 39.69 12.0199 39.38C12.0699 38.59 11.9599 37.72 12.0199 36.93V36.95ZM16.8499 28.64C14.7899 28.86 14.8199 32.01 16.7799 32.21C19.4799 32.5 19.3099 28.37 16.8499 28.64ZM25.2699 28.64C23.0599 28.94 23.3199 32.55 25.8299 32.21C27.9099 31.93 27.5599 28.33 25.2699 28.64ZM33.7399 28.64C31.5599 28.88 31.7299 32.53 34.2499 32.21C36.3599 31.94 36.0599 28.39 33.7399 28.64ZM20.4899 38.36V37.3C20.4899 34.35 16.9199 32.85 14.7799 34.72C14.1899 35.23 13.5899 36.34 13.5899 37.14V38.36H20.4799H20.4899ZM28.9099 38.36V36.97C28.9099 36.67 28.5999 35.88 28.4499 35.6C27.1799 33.32 23.8099 33.32 22.5399 35.6C22.3799 35.89 22.0799 36.65 22.0799 36.97V38.36H28.9199H28.9099ZM37.3799 38.36V37.14C37.3799 36.35 36.7799 35.23 36.1899 34.72C34.0499 32.86 30.4799 34.36 30.4799 37.3V38.36H37.3699H37.3799Z" fill="black"/>
<g clip-path="url(#clip1_1080_1656)">
<path d="M26.096 9.02378C29.7759 9.34884 32.028 13.3853 30.531 16.7512C30.0246 17.8891 29.0835 18.5067 28.8584 19.8246C28.772 20.3295 28.903 20.8759 28.6102 21.3108C28.5403 21.4145 28.3735 21.5315 28.3542 21.6325C28.2926 21.9559 28.3972 22.4101 28.335 22.7699C28.2348 23.3499 27.6607 23.8538 27.0933 23.962C25.9342 23.7986 23.7646 24.4195 22.9803 23.3836C22.4657 22.7042 22.7931 22.2986 22.6665 21.6325C22.6324 21.4526 22.2604 21.228 22.2147 20.7638C22.033 18.9178 21.9329 19.0475 20.9614 17.6005C18.335 13.6855 21.4331 8.61153 26.096 9.02378Z" fill="white"/>
<path d="M26.0962 9.02378C21.4333 8.61208 18.3352 13.6855 20.9627 17.5999C21.9342 19.0475 22.0343 18.9173 22.216 20.7633C22.2617 21.2274 22.6337 21.452 22.6678 21.632C22.7944 22.2981 22.467 22.7037 22.9816 23.3831C23.7659 24.4189 25.9349 23.7981 27.0946 23.9614C27.662 23.8527 28.2361 23.3494 28.3363 22.7694C28.3985 22.4095 28.2939 21.9554 28.3555 21.632C28.3748 21.531 28.5416 21.4134 28.6115 21.3102C28.9043 20.8753 28.7733 20.329 28.8597 19.824C29.0853 18.5061 30.0259 17.8891 30.5323 16.7506C32.0282 13.3853 29.7761 9.34884 26.0962 9.02378ZM23.5336 20.4542C23.5143 19.515 23.2606 18.6099 22.768 17.8135C22.4719 17.335 22.0547 16.936 21.7955 16.4338C20.5857 14.0889 21.8615 11.1551 24.39 10.4686C28.0275 9.48074 31.026 13.414 29.0875 16.6662C28.8696 17.0321 28.5603 17.3279 28.328 17.6811C27.7958 18.4901 27.4953 19.484 27.4892 20.4542H23.5336ZM23.9866 21.776H27.0351V22.5403C27.0351 22.5475 26.9719 22.6132 26.952 22.6226H24.0691C24.0499 22.6132 23.986 22.5475 23.986 22.5403V21.776H23.9866Z" fill="black"/>
<path d="M23.5335 20.4542H27.4885C27.4946 19.484 27.7951 18.4901 28.3273 17.681C28.5596 17.3278 28.8689 17.032 29.0868 16.6661C31.0259 13.4139 28.0274 9.48068 24.3899 10.4685C21.8614 11.1551 20.5856 14.0888 21.7953 16.4338C22.0546 16.936 22.4718 17.335 22.7679 17.8135C23.2605 18.6093 23.5142 19.5143 23.5335 20.4542Z" fill="white"/>
<path d="M23.9865 21.7759V22.5403C23.9865 22.5475 24.0498 22.6131 24.0696 22.6225H26.9525C26.9718 22.6131 27.0356 22.5475 27.0356 22.5403V21.7759H23.9871H23.9865Z" fill="white"/>
</g>
</g>
<defs>
<clipPath id="clip0_1080_1656">
<rect width="27" height="31" fill="white" transform="translate(12 9)"/>
</clipPath>
<clipPath id="clip1_1080_1656">
<rect width="11" height="15" fill="white" transform="matrix(-1 0 0 1 31 9)"/>
</clipPath>
</defs>
</svg>