<svg width="30" height="35" viewBox="0 0 30 35" fill="none" xmlns="http://www.w3.org/2000/svg">
<g id="Vector">
<path d="M28.8044 24.2365H28.5C27.8226 24.1191 28.0736 20.8724 28.0089 20.2643C27.5093 15.6389 22.7641 9.55743 17.8394 13.3221C16.7497 14.1555 12.8145 18.0457 12.0239 19.1188C10.5365 21.1363 12.6383 23.5737 14.9228 22.3252C15.8104 21.841 16.9567 20.4622 17.723 20.1243C17.9785 20.0117 18.2323 19.92 18.4975 20.0761C18.8984 20.3463 18.0399 21.7959 17.9219 22.2528C17.7085 23.0749 17.7004 23.844 17.6066 24.6741L17.1426 24.8093C16.1709 24.206 17.0925 22.9655 16.795 22.0968C15.8637 22.8899 15.1313 23.5222 13.8622 23.6976C13.5792 23.7362 13.2898 23.5479 13.0942 23.5817C12.8517 23.6236 11.2268 25.3273 10.2471 24.8334C10.8 26.6257 10.1808 28.6158 8.30695 29.1789C8.24874 29.4379 8.39749 29.5071 8.54461 29.6648C13.7118 35.233 23.4205 33.6 26.8222 26.9281C27.1892 26.209 27.6807 24.2108 27.9523 23.8697C28.2498 23.4965 28.8028 23.8295 28.8044 24.2365C28.8076 25.6427 26.9661 28.7365 26.0122 29.8224C21.503 34.9579 13.8638 35.3569 8.62868 31.0291C8.18892 30.6655 7.48724 29.7098 7.10245 29.491C6.71766 29.2722 6.2585 29.3108 5.83329 29.1451C5.29329 28.9344 2.1228 25.8309 1.67819 25.2356C0.101833 23.1264 1.42274 20.1179 4.10172 20.0069C4.03544 19.5403 3.60376 19.3263 3.36609 18.8903C2.91987 18.073 2.74525 16.7136 3.31112 15.9236C3.55202 15.5874 3.9546 15.5214 4.08232 15.9317C4.31514 16.6798 3.5116 17.3169 4.38466 18.6796C4.86807 19.4341 8.01108 22.5553 8.78551 23.1489C9.9803 24.066 10.7046 24.0354 12.0223 23.3838C10.9973 22.314 10.3586 21.5224 10.5817 19.9409C10.6302 19.5998 11.0393 18.8582 10.9762 18.7182C10.8711 18.4849 7.76694 15.5214 7.41934 15.338C6.55922 14.8859 5.87694 14.9101 5.01358 15.3187L4.58191 14.7797C4.57544 14.1507 5.91089 14.0381 6.36359 14.0558C5.32885 11.8919 6.64005 9.2968 9.1121 9.22923C9.18 8.98468 9.04743 8.96216 8.95365 8.82541C8.34737 7.94698 6.91006 7.06694 6.29407 6.16277C4.24723 3.14619 7.92215 -0.525196 10.9714 1.66444L20.444 11.0746C23.2556 11.3786 24.9565 12.0946 26.6411 14.3872C27.5271 15.5938 29 18.6249 29 20.0841V22.7387L28.8044 24.2365ZM19.4594 11.4752L10.4605 2.4946C8.12102 0.853583 5.53095 3.55161 7.26413 5.83617L15.4207 13.9801C15.7991 14.1732 16.5945 13.0502 16.9583 12.7671C17.6794 12.2072 18.5524 11.6586 19.4611 11.4752H19.4594ZM8.58341 10.2267C7.22371 10.5083 6.76778 12.0447 7.08628 13.2513C7.40479 14.458 10.7741 16.9002 11.6181 18.0698L14.9292 14.7749C13.7005 13.8707 11.1913 10.4149 9.82994 10.201C9.47102 10.1447 8.94072 10.1527 8.58341 10.2267ZM3.7331 21.0076C2.03711 21.3197 1.50357 23.3034 2.41382 24.6597C2.72909 25.1278 5.58269 27.924 6.03053 28.1396C8.01269 29.0888 9.8445 27.5781 9.39665 25.4319C9.23659 24.6677 5.72496 21.1797 4.95538 21.006C4.58514 20.9223 4.10658 20.94 3.73148 21.0092L3.7331 21.0076Z" fill="white"/>
<path d="M28.8044 24.2365H28.5C27.8226 24.1191 28.0736 20.8724 28.0089 20.2643C27.5093 15.6389 22.7641 9.55743 17.8394 13.3221C16.7497 14.1555 12.8145 18.0457 12.0239 19.1188C10.5365 21.1363 12.6383 23.5737 14.9228 22.3252C15.8104 21.841 16.9567 20.4622 17.723 20.1243C17.9785 20.0117 18.2323 19.92 18.4975 20.0761C18.8984 20.3463 18.0399 21.7959 17.9219 22.2528C17.7085 23.0749 17.7004 23.844 17.6066 24.6741L17.1426 24.8093C16.1709 24.206 17.0925 22.9655 16.795 22.0968C15.8637 22.8899 15.1313 23.5222 13.8622 23.6976C13.5792 23.7362 13.2898 23.5479 13.0942 23.5817C12.8517 23.6236 11.2268 25.3273 10.2471 24.8334C10.8 26.6257 10.1808 28.6158 8.30695 29.1789C8.24874 29.4379 8.39749 29.5071 8.54461 29.6648C13.7118 35.233 23.4205 33.6 26.8222 26.9281C27.1892 26.209 27.6807 24.2108 27.9523 23.8697C28.2498 23.4965 28.8028 23.8295 28.8044 24.2365ZM28.8044 24.2365C28.8076 25.6427 26.9661 28.7365 26.0122 29.8224C21.503 34.9579 13.8638 35.3569 8.62868 31.0291C8.18892 30.6655 7.48724 29.7098 7.10245 29.491C6.71766 29.2722 6.2585 29.3108 5.83329 29.1451C5.29329 28.9344 2.1228 25.8309 1.67819 25.2356C0.101833 23.1264 1.42274 20.1179 4.10172 20.0069C4.03544 19.5403 3.60376 19.3263 3.36609 18.8903C2.91987 18.073 2.74525 16.7136 3.31112 15.9236C3.55202 15.5874 3.9546 15.5214 4.08232 15.9317C4.31514 16.6798 3.5116 17.3169 4.38466 18.6796C4.86807 19.4341 8.01108 22.5553 8.78551 23.1489C9.9803 24.066 10.7046 24.0354 12.0223 23.3838C10.9973 22.314 10.3586 21.5224 10.5817 19.9409C10.6302 19.5998 11.0393 18.8582 10.9762 18.7182C10.8711 18.4849 7.76694 15.5214 7.41934 15.338C6.55922 14.8859 5.87694 14.9101 5.01358 15.3187L4.58191 14.7797C4.57544 14.1507 5.91089 14.0381 6.36359 14.0558C5.32885 11.8919 6.64005 9.2968 9.1121 9.22923C9.18 8.98468 9.04743 8.96216 8.95365 8.82541C8.34737 7.94698 6.91006 7.06694 6.29407 6.16277C4.24723 3.14619 7.92215 -0.525196 10.9714 1.66444L20.444 11.0746C23.2556 11.3786 24.9565 12.0946 26.6411 14.3872C27.5271 15.5938 29 18.6249 29 20.0841V22.7387L28.8044 24.2365ZM19.4594 11.4752L10.4605 2.4946C8.12102 0.853583 5.53095 3.55161 7.26413 5.83617L15.4207 13.9801C15.7991 14.1732 16.5945 13.0502 16.9583 12.7671C17.6794 12.2072 18.5524 11.6586 19.4611 11.4752H19.4594ZM8.58341 10.2267C7.22371 10.5083 6.76778 12.0447 7.08628 13.2513C7.40479 14.458 10.7741 16.9002 11.6181 18.0698L14.9292 14.7749C13.7005 13.8707 11.1913 10.4149 9.82994 10.201C9.47102 10.1447 8.94072 10.1527 8.58341 10.2267ZM3.7331 21.0076C2.03711 21.3197 1.50357 23.3034 2.41382 24.6597C2.72909 25.1278 5.58269 27.924 6.03053 28.1396C8.01269 29.0888 9.8445 27.5781 9.39665 25.4319C9.23659 24.6677 5.72496 21.1797 4.95538 21.006C4.58514 20.9223 4.10658 20.94 3.73148 21.0092L3.7331 21.0076Z" stroke="white"/>
</g>
</svg>
