<svg width="41" height="41" viewBox="0 0 41 41" fill="none" xmlns="http://www.w3.org/2000/svg">
<g id="Group 482113">
<g id="Group 482106">
<rect id="Rectangle 2434" width="41" height="41" rx="6" fill="#F9F8F8"/>
</g>
<g id="Group 482112">
<path id="Vector" d="M7.04826 31.226C7.06505 31.0309 7.14093 30.708 7.19263 30.5089C7.52366 29.2194 8.40596 28.1977 9.55887 27.5251C7.42026 25.3246 9.39436 21.7475 12.4838 22.3179C14.4834 22.6866 15.5893 24.9834 14.6909 26.7497C14.5458 27.0346 14.3148 27.2618 14.1322 27.5199C14.8097 27.9639 15.41 28.4446 15.8626 29.1179C16.3601 28.482 16.9235 27.9213 17.6446 27.5258C15.8686 25.8453 16.8563 22.7921 19.2508 22.3277C22.3388 21.7285 24.3344 25.3495 22.1663 27.5258C22.8874 27.9213 23.4508 28.482 23.9483 29.1179C24.4009 28.4944 24.9515 27.9128 25.6787 27.5965C25.7082 27.4144 25.5068 27.3372 25.4088 27.2023C23.7214 24.8727 25.7922 21.7239 28.6862 22.3363C31.0584 22.8386 31.9757 25.8394 30.252 27.5251C31.6614 28.3208 32.6485 29.74 32.7619 31.3492C32.7948 31.8181 32.8291 32.9229 32.7593 33.3558C32.7082 33.6761 32.4719 33.828 32.21 33.9714H7.60088C7.31349 33.8254 7.198 33.7127 7.04826 33.4324C7.09392 32.7173 6.98649 31.9327 7.04826 31.2267V31.226ZM11.6579 23.7397C9.6945 23.9414 9.72136 26.7739 11.5947 26.9606C14.1765 27.218 14.0087 23.4981 11.6579 23.7397ZM19.6926 23.7384C17.5808 24.0082 17.8286 27.2658 20.2277 26.9567C22.2173 26.7006 21.8802 23.4581 19.6926 23.7384ZM27.779 23.7397C25.7029 23.9532 25.8559 27.2455 28.2618 26.956C30.2762 26.7137 29.9901 23.5118 27.779 23.7397ZM15.134 32.5005V31.5443C15.134 28.888 11.7263 27.5382 9.68644 29.2174C9.12779 29.6772 8.55503 30.6759 8.55503 31.3976V32.5005H15.134ZM23.1701 32.5005V31.2503C23.1701 30.9831 22.8746 30.2672 22.7269 30.0164C21.519 27.9639 18.2933 27.9652 17.0846 30.0164C16.9295 30.2803 16.6415 30.9647 16.6415 31.2503V32.5005H23.1708H23.1701ZM31.2559 32.5005V31.3976C31.2559 30.6818 30.6784 29.6732 30.1244 29.2174C28.0839 27.5395 24.6769 28.8919 24.6769 31.5443V32.5005H31.2559Z" fill="black"/>
<g id="Group 482108">
<path id="Vector_2" d="M18.4812 19.0256L18.4812 19.0256C18.2291 18.5785 18.169 18.1246 18.1641 17.6509C18.1622 17.4703 18.1682 17.2891 18.1745 17.104C18.1764 17.045 18.1784 16.9855 18.1802 16.9256C18.1874 16.6792 18.1904 16.4268 18.1701 16.1703L18.1701 16.1703C18.1258 15.6092 17.9108 15.2464 17.6588 14.9196C17.5936 14.835 17.5271 14.754 17.4607 14.6732C17.2688 14.4395 17.0785 14.2077 16.9268 13.8979L16.9267 13.8979C15.7606 11.5212 17.399 8.56324 20.0263 8.31771C22.8828 8.05095 25.014 10.8087 24.0888 13.5183C23.9399 13.9542 23.6848 14.285 23.4255 14.6212C23.3853 14.6735 23.3449 14.7259 23.3048 14.7788C23.0092 15.1689 22.7341 15.5838 22.6878 16.1703C22.6632 16.4801 22.6735 16.7922 22.6835 17.096C22.688 17.2334 22.6925 17.369 22.6937 17.502C22.6975 17.9353 22.6676 18.3549 22.5044 18.7698C22.1778 19.5987 21.394 20.052 20.5743 20.1017C19.7544 20.1513 18.9154 19.7959 18.4812 19.0256ZM21.3781 15.5957H21.4648L21.4771 15.5099C21.5604 14.9282 21.8816 14.5109 22.2185 14.0732C22.2307 14.0574 22.2428 14.0416 22.255 14.0258C22.6012 13.5754 22.9536 13.098 22.9921 12.4139L22.9921 12.4139C23.0746 10.9456 22.1349 9.96741 21.0328 9.69102C19.9306 9.41463 18.6589 9.83877 18.0841 11.1657L18.0841 11.1657C17.8745 11.6498 17.8024 12.0496 17.8269 12.4002C17.8515 12.7512 17.9725 13.0443 18.1352 13.315C18.2555 13.5152 18.4018 13.7075 18.5489 13.901C18.5983 13.966 18.6477 14.031 18.6964 14.0966C18.8923 14.3606 19.0807 14.6398 19.2197 14.9728L19.2197 14.9729C19.2888 15.1381 19.3403 15.3355 19.3824 15.5182L19.4003 15.5957H19.4798H21.3781ZM21.3827 17.0106V16.9106L19.8592 18.5126L19.7939 18.5883C19.7939 18.5883 19.7939 18.5883 19.7939 18.5883C19.974 18.7438 20.2146 18.8175 20.4494 18.8138C20.6843 18.8101 20.9224 18.7289 21.096 18.5627L21.0962 18.5625C21.1209 18.5388 21.1502 18.4995 21.1773 18.46C21.206 18.4183 21.2372 18.3689 21.2661 18.3195C21.2948 18.2703 21.3222 18.2197 21.3427 18.1757C21.353 18.1537 21.3622 18.132 21.369 18.112C21.375 18.0947 21.3827 18.0689 21.3827 18.0426V17.0106Z" fill="black" stroke="black" stroke-width="0.2"/>
<path id="Vector_3" d="M25.8386 14.7064C26.0178 14.666 26.2542 14.6815 26.4227 14.7541C26.6356 14.8456 27.5058 15.7344 27.5864 15.9536C27.8375 16.6347 27.1546 17.227 26.5033 16.8882C26.3536 16.8102 25.58 16.0497 25.48 15.9005C25.208 15.4917 25.3289 14.822 25.8386 14.7064Z" fill="black"/>
<path id="Vector_4" d="M14.5378 14.7064C15.1992 14.5571 15.7169 15.0997 15.4671 15.7384C15.3993 15.9112 14.5915 16.7443 14.4183 16.8512C13.7589 17.2606 13.0082 16.6669 13.2708 15.9529C13.3587 15.7149 14.2994 14.7595 14.5371 14.7057L14.5378 14.7064Z" fill="black"/>
<path id="Vector_5" d="M11.9081 13.1176C11.5119 12.6967 11.7557 11.9692 12.3398 11.8489C12.6453 11.7857 13.5243 11.7971 13.8211 11.8798C14.5832 12.0923 14.4852 13.1875 13.8123 13.3247C13.572 13.3738 12.5775 13.3691 12.3217 13.3314C12.1861 13.3119 12.0014 13.2164 11.9081 13.1169V13.1176Z" fill="black"/>
<path id="Vector_6" d="M28.9486 13.1183C28.86 13.2157 28.6666 13.3132 28.535 13.3327C28.2792 13.3697 27.2847 13.3751 27.0443 13.326C26.3339 13.1808 26.293 12.0223 27.1054 11.8502C27.3666 11.7944 28.255 11.7957 28.5175 11.8502C29.1037 11.9712 29.3374 12.6906 28.9493 13.1189L28.9486 13.1183Z" fill="black"/>
<path id="Vector_7" d="M26.7443 8.21479C27.3553 8.11797 27.7622 8.66594 27.5722 9.24619C27.5239 9.39276 26.6261 10.3199 26.473 10.41C25.8358 10.7845 25.1549 10.1895 25.3893 9.47479C25.4383 9.32485 26.2434 8.49718 26.4039 8.3775C26.5086 8.30018 26.6127 8.23496 26.7443 8.21479Z" fill="black"/>
<path id="Vector_8" d="M13.8366 8.21479C14.038 8.18319 14.2287 8.2195 14.3992 8.33111C14.5275 8.41516 15.3178 9.21392 15.3977 9.34368C15.8194 10.0255 15.0855 10.8222 14.3838 10.41C14.2616 10.3381 13.4343 9.50505 13.3551 9.3773C13.0812 8.93489 13.3027 8.29951 13.8359 8.21479H13.8366Z" fill="black"/>
</g>
</g>
</g>
</svg>
