<svg width="41" height="41" viewBox="0 0 41 41" fill="none" xmlns="http://www.w3.org/2000/svg">
<rect width="41" height="41" rx="6" fill="#F9F8F8"/>
<path fill-rule="evenodd" clip-rule="evenodd" d="M17.4127 21.159C16.8754 21.159 16.4388 20.7225 16.4388 20.1852C16.4388 19.6495 16.8754 19.213 17.4127 19.213C17.95 19.213 18.3865 19.6495 18.3865 20.1852C18.3865 20.7225 17.95 21.159 17.4127 21.159ZM21.1983 21.159C20.661 21.159 20.2245 20.7225 20.2245 20.1852C20.2245 19.6495 20.661 19.213 21.1983 19.213C21.7357 19.213 22.1722 19.6495 22.1722 20.1852C22.1722 20.7225 21.7357 21.159 21.1983 21.159ZM24.0104 20.1852C24.0104 20.7225 24.4469 21.159 24.9842 21.159C25.5215 21.159 25.958 20.7225 25.958 20.1852C25.958 19.6495 25.5215 19.213 24.9842 19.213C24.4469 19.213 24.0104 19.6495 24.0104 20.1852Z" fill="black"/>
<path fill-rule="evenodd" clip-rule="evenodd" d="M21.0166 11.6667C16.175 11.6667 12.6666 15.6218 12.6666 20.0125C12.6666 21.4146 13.075 22.8576 13.7916 24.1763C13.925 24.3941 13.9416 24.6687 13.85 24.9282L13.2916 26.7977C13.1666 27.2484 13.55 27.5814 13.975 27.4479L15.6583 26.9479C16.1166 26.7977 16.475 26.9888 16.9 27.2484C18.1166 27.9653 19.6333 28.3334 21 28.3334C25.1333 28.3334 29.3333 25.1369 29.3333 19.9875C29.3333 15.5467 25.75 11.6667 21.0166 11.6667Z" stroke="black" stroke-width="1.5" stroke-linecap="round" stroke-linejoin="round"/>
</svg>
