<svg width="29" height="23" viewBox="0 0 29 23" fill="none" xmlns="http://www.w3.org/2000/svg">
<path d="M17.3116 7.14182C17.3768 6.17296 16.8344 5.23975 15.8835 4.94665C15.6305 4.86865 15.3936 4.85138 15.1519 4.84661C15.0917 4.84543 15.0309 4.84502 14.9694 4.84462C14.7856 4.8434 14.5954 4.84215 14.3953 4.8197L14.3588 4.81562L14.3518 4.77964C13.7154 1.53648 10.5977 -0.564852 7.31572 0.211945L7.31571 0.211947C5.11614 0.732239 3.42273 2.57537 3.0076 4.77927L3.00134 4.81251L2.96816 4.81906C2.77958 4.85631 2.58762 4.8534 2.40079 4.8471C2.38085 4.84642 2.36098 4.84571 2.34118 4.84501C2.17367 4.83902 2.01092 4.83321 1.85163 4.85169C0.986338 4.95212 0.236224 5.68471 0.0788301 6.53457L0.0490601 18.6646C0.151602 19.6817 0.938188 20.4706 1.96535 20.5612C1.96536 20.5612 1.96538 20.5612 1.96539 20.5612L1.96099 20.611C2.10457 20.6236 2.25049 20.618 2.39663 20.6124C2.6045 20.6044 2.81284 20.5965 3.01563 20.6406L17.3116 7.14182ZM17.3116 7.14182H17.2358L17.3218 7.22728L17.3226 7.22808L17.3984 7.3034L17.4037 7.24182H21.6633M17.3116 7.14182L21.6633 7.24182M21.6633 7.24182C22.5918 7.33459 23.1443 8.00706 23.5842 8.83545C23.7546 9.15636 23.9067 9.49769 24.0569 9.83505C24.1007 9.9333 24.1443 10.0312 24.1882 10.1282C24.382 10.5566 24.5807 10.9663 24.818 11.2963L24.8232 11.3035L24.8306 11.3085C25.1624 11.5334 25.5726 11.7254 26.0006 11.9152C26.0773 11.9492 26.1545 11.9832 26.232 12.0172C26.5888 12.174 26.9515 12.3334 27.2907 12.5135C28.1174 12.9525 28.7865 13.5054 28.8777 14.4166C28.9827 15.4677 28.9651 17.5351 28.88 18.603L28.88 18.6031C28.8161 19.4131 28.3235 20.1576 27.5414 20.4318L27.5414 20.4318C27.1584 20.5663 26.7299 20.5816 26.2894 20.5725C26.1824 20.5703 26.0744 20.5667 25.9664 20.563C25.6331 20.5516 25.2985 20.5403 24.9849 20.5717L24.9847 20.5704L24.9737 20.5741C24.958 20.5795 24.9455 20.5898 24.9368 20.5982C24.9273 20.6073 24.9181 20.6184 24.9093 20.6302C24.8916 20.654 24.8724 20.6851 24.8525 20.7203C24.8126 20.791 24.767 20.8834 24.7214 20.9787C24.6988 21.0262 24.6766 21.0732 24.655 21.1191C24.6322 21.1675 24.6101 21.2147 24.5885 21.2597C24.5469 21.3463 24.5116 21.4163 24.4871 21.455L24.4871 21.4551C23.2656 23.3896 20.3199 23.4569 18.9999 21.5961C18.8847 21.4335 18.8018 21.264 18.7192 21.0934L18.713 21.0804C18.633 20.915 18.5523 20.7482 18.4429 20.5927L18.428 20.5715L18.4021 20.5714L9.67036 20.5586V20.5583L9.66443 20.559C9.5813 20.5688 9.51426 20.6172 9.45977 20.68C9.40541 20.7426 9.35987 20.8238 9.31972 20.9081C9.28696 20.9768 9.25669 21.0502 9.22792 21.1199C9.22138 21.1357 9.21491 21.1514 9.20852 21.1668L21.6633 7.24182ZM26.7368 18.7462C26.7973 18.7384 26.8589 18.7293 26.9111 18.7016C26.9669 18.672 27.0076 18.6238 27.0337 18.548L27.0364 18.54L27.0364 18.5315L27.0195 14.4995L27.0194 14.4855L27.0121 14.4735C27.0053 14.4624 26.9955 14.4531 26.9873 14.446C26.9784 14.4383 26.9675 14.4301 26.9553 14.4217C26.931 14.4048 26.8987 14.385 26.8603 14.3628C26.7832 14.3184 26.6781 14.2628 26.5539 14.1997C26.3056 14.0734 25.9786 13.9158 25.6427 13.7557C25.5132 13.6939 25.3825 13.6318 25.2545 13.571C24.7162 13.3154 24.2255 13.0823 24.0702 12.9904C23.8392 12.8538 23.6698 12.7344 23.5236 12.5931C23.3777 12.452 23.2532 12.2873 23.1141 12.0583C22.8481 11.6201 22.625 11.1378 22.3997 10.6507C22.3878 10.6252 22.376 10.5995 22.3641 10.5739C22.1271 10.0619 21.885 9.54713 21.5871 9.08167L21.5723 9.05862H21.545H17.357H17.307V9.10862V18.6942V18.7442H17.357H17.3578H18.4125H18.4406L18.4552 18.7201C18.5444 18.5729 18.6158 18.4242 18.6858 18.2784C18.6973 18.2544 18.7088 18.2305 18.7203 18.2067C18.8023 18.0373 18.8865 17.8716 19.0007 17.7098C20.2811 15.9044 23.1085 15.8997 24.3919 17.7099C24.5072 17.8725 24.5901 18.042 24.6726 18.2127L24.6789 18.2256C24.7588 18.391 24.8395 18.5578 24.9489 18.7134L24.9651 18.7363L24.9931 18.7345C25.2317 18.7189 25.4993 18.7334 25.7718 18.7482C25.8026 18.7499 25.8335 18.7515 25.8644 18.7532C26.1666 18.7691 26.4716 18.7813 26.7368 18.7462ZM26.7368 18.7462L26.7304 18.6966M26.7368 18.7462C26.7369 18.7462 26.7369 18.7462 26.7369 18.7462L26.7304 18.6966M26.7304 18.6966C26.8536 18.6806 26.9413 18.663 26.9864 18.5318L26.9695 14.4997C26.9186 14.4167 26.0285 13.994 25.2348 13.617L26.7304 18.6966ZM15.4289 18.7442H15.4789V18.6942V6.86209C15.4789 6.81588 15.4549 6.77998 15.4227 6.75428C15.3916 6.72942 15.3503 6.71166 15.3058 6.69843C15.2163 6.67185 15.0984 6.65921 14.9789 6.65466C14.7402 6.64556 14.478 6.66832 14.3886 6.68936L14.3571 6.69678L14.3509 6.72856C13.9325 8.89559 12.3037 10.7235 10.1386 11.2723C6.83889 12.1086 3.64303 10.0111 3.00756 6.72853L3.00044 6.69178L2.96318 6.68826C2.94444 6.68648 2.92206 6.68416 2.89674 6.68153C2.77646 6.66903 2.59005 6.64967 2.41427 6.64992C2.30795 6.65007 2.20223 6.65734 2.11538 6.6788C2.03129 6.69959 1.95045 6.73722 1.91521 6.80984L1.91019 6.82018V6.83167V18.5742V18.5857L1.91524 18.5961C1.95112 18.6697 2.03657 18.7071 2.12471 18.7277C2.2164 18.7491 2.32866 18.7564 2.44182 18.7564C2.65536 18.7564 2.88226 18.7304 3.00125 18.7167C3.00862 18.7158 3.01558 18.715 3.0221 18.7143L3.05335 18.7107L3.06366 18.681C3.8077 16.5386 6.31709 15.6355 8.22386 16.9728L8.25257 16.9319L8.22386 16.9728C8.86265 17.4208 9.17683 18.0165 9.50837 18.7156L9.52192 18.7442H9.55355H15.4289ZM8.24029 1.88788C7.00132 2.01314 6.10612 2.58453 5.54285 3.36703C4.9803 4.14852 4.75073 5.13777 4.83619 6.0976C4.92165 7.05745 5.32246 7.99114 6.02492 8.66091C6.72825 9.33151 7.73116 9.73474 9.01393 9.63708C10.2835 9.54057 11.2036 8.97466 11.7845 8.1863C12.3646 7.399 12.6044 6.39277 12.5207 5.41691C12.437 4.44102 12.0294 3.49197 11.3101 2.81982C10.5898 2.14677 9.5603 1.75447 8.24029 1.88788ZM6.00509 18.1806C5.54576 18.2531 5.22037 18.4897 5.02367 18.8015C4.82765 19.1121 4.76092 19.4948 4.81243 19.8593C4.86395 20.2238 5.03422 20.5735 5.31645 20.8171C5.5996 21.0615 5.99236 21.1963 6.48198 21.1352C6.95868 21.0758 7.2971 20.8411 7.50231 20.5258C7.70678 20.2117 7.77732 19.8203 7.72546 19.448C7.6736 19.0757 7.49878 18.7187 7.20781 18.4745C6.91582 18.2294 6.51044 18.1009 6.00509 18.1806ZM21.4317 18.1806C20.9724 18.2531 20.647 18.4897 20.4503 18.8015C20.2543 19.1121 20.1875 19.4948 20.2391 19.8593C20.2906 20.2238 20.4608 20.5735 20.7431 20.8171C21.0262 21.0615 21.419 21.1963 21.9086 21.1352C22.3853 21.0758 22.7237 20.8411 22.9289 20.5258C23.1334 20.2117 23.2039 19.8203 23.1521 19.448C23.1002 19.0757 22.9254 18.7187 22.6344 18.4745C22.3424 18.2294 21.9371 18.1009 21.4317 18.1806Z" fill="black" stroke="white" stroke-width="0.1"/>
</svg>
