<svg width="25" height="23" viewBox="0 0 25 23" fill="none" xmlns="http://www.w3.org/2000/svg">
<path id="Vector" d="M1 1.51903C1.1752 1.12773 1.4704 1 1.8826 1C8.07217 1.00872 14.2623 1.00623 20.4519 1.00623C21.0687 1.00623 21.3039 1.25048 21.3039 1.89351C21.3039 3.37023 21.3039 4.84758 21.3039 6.3243V6.60469C21.6687 6.60469 22.0179 6.60469 22.3671 6.60469C22.6665 6.60469 22.9659 6.60282 23.2653 6.60469C23.7177 6.60781 23.9955 6.89132 23.9985 7.35739C24.0015 7.84714 23.9991 8.33688 23.9991 8.82663C23.9991 12.9309 23.9991 17.0358 23.9991 21.1401C23.9991 21.747 23.7537 22 23.1657 22C20.5683 22 17.9715 22 15.3741 22C14.8191 22 14.5665 21.7371 14.5659 21.1607C14.5659 20.517 14.5659 19.8728 14.5659 19.2005C14.4633 19.2005 14.3763 19.2005 14.2893 19.2005C11.9169 19.2005 9.54396 19.2017 7.17157 19.1998C6.63097 19.1998 6.28537 18.7039 6.49357 18.2253C6.61957 17.935 6.85057 17.8004 7.15777 17.8004C8.17597 17.8016 9.19356 17.8004 10.2118 17.8004C10.2922 17.8004 10.3732 17.8004 10.4662 17.8004V15.0008H10.2136C7.44397 15.0008 4.67498 14.9946 1.906 15.0071C1.4884 15.0089 1.1806 14.8905 1.0012 14.4874V1.51903H1ZM19.9455 2.42127H2.36439V13.5839H14.5653V13.2855C14.5653 11.3346 14.5653 9.38305 14.5653 7.43216C14.5653 6.87075 14.8215 6.60469 15.3615 6.60469C16.8057 6.60469 18.2505 6.60469 19.6947 6.60469H19.9449V2.42127H19.9455ZM22.6413 8.02098H15.9309V20.5881H22.6413V8.02098ZM14.5527 17.7904V15.0177H11.8401V17.7904H14.5527Z" fill="black" stroke="black" stroke-width="0.2"/>
</svg>
