<svg width="40" height="31" viewBox="0 0 40 31" fill="none" xmlns="http://www.w3.org/2000/svg">
<g id="Group 482223">
<path id="Vector" d="M38.9995 22.2445V22.6792C38.7923 22.9593 38.6168 23.0974 38.2381 23.0259L31.6095 20.507C25.0314 23.8691 14.5363 20.8962 13.0472 13.2053C11.5968 5.71147 19.2098 0.627346 26.1973 1.0214C33.3802 1.42705 40.0742 7.58132 37.1059 14.9274C36.9721 15.2587 36.5329 15.8923 36.5527 16.1869L38.9995 22.2445ZM37.2923 21.3753L35.2857 16.1222C35.2599 15.6875 35.707 15.1747 35.8954 14.7603C39.2087 7.50792 31.4945 1.7989 24.5665 2.1804C13.6282 2.78404 9.70117 15.3785 20.3014 19.743C23.9855 21.2604 27.9799 20.9436 31.5421 19.2737L37.2933 21.3753H37.2923Z" fill="black" stroke="black" stroke-width="0.4"/>
<path id="Vector_2" d="M2.71068 28.3293L8.46486 26.2247C9.257 26.472 10.0045 26.8738 10.8165 27.1172C14.8426 28.3215 19.6332 27.573 22.8226 24.8175C23.4283 24.294 23.9072 23.6566 24.4733 23.0974C25.1692 22.8946 25.5569 23.3823 25.1841 24.0082C24.7637 24.7132 23.5721 25.7611 22.89 26.2595C18.7458 29.2835 13.0363 29.5791 8.39348 27.462L1.76487 29.9808C1.28106 30.0909 0.907293 29.7249 1.02031 29.2536L3.45127 23.1418C3.29859 22.5295 2.90401 21.9799 2.68986 21.3608C0.75858 15.7754 4.56463 10.6169 9.87069 8.77026C10.4655 8.56357 12.1004 7.86045 11.9933 9.0262C11.9467 9.53809 10.5706 9.75251 10.0928 9.92925C5.18922 11.7402 1.77974 16.6186 4.10758 21.7143C4.29695 22.1277 4.74407 22.6415 4.71731 23.0761L2.71068 28.3293Z" fill="black" stroke="black" stroke-width="0.4"/>
</g>
</svg>
