<svg width="67" height="66" viewBox="0 0 67 66" fill="none" xmlns="http://www.w3.org/2000/svg">
<g id="Calque_1" clip-path="url(#clip0_555_838)">
<rect id="Rectangle 2575" x="2.01501" y="16.5" width="63.9774" height="40" fill="#B4FF92"/>
<path id="Vector" d="M5.01066 53.2917C5.36083 53.8281 7.35358 53.787 7.86731 53.4629C8.33728 53.1684 8.33958 52.043 7.96407 51.6732C7.14854 50.8696 3.74129 51.349 5.00836 53.2917H5.01066Z" fill="black"/>
<path id="Vector_2" d="M23.2264 40.0927C23.0052 38.9535 23.6019 35.2075 22.943 34.5546C22.4822 34.0958 21.4709 34.251 21.0355 34.7235C20.2937 36.148 15.3314 40.3232 15.1563 41.4737C14.8085 43.7634 19.598 42.7201 20.9249 42.9439C20.9641 43.9643 20.5701 45.6147 21.9754 45.6695C23.7793 45.7403 22.9591 44.0145 23.2632 43.0945C23.413 42.6403 24.2746 42.6608 24.3875 41.9052C24.5694 40.6908 23.3784 40.8757 23.2264 40.0927Z" fill="black"/>
<path id="Vector_3" d="M31.6905 34.3217C30.5294 34.5317 29.3545 35.6229 29.0872 36.7643C28.8407 37.8189 28.8499 42.3571 29.1425 43.3615C29.8405 45.7653 32.5405 45.8612 34.6416 45.6923C36.3095 45.5599 37.8207 44.7929 38.1502 43.0054C38.3483 41.9234 38.3414 37.6021 38.0488 36.5908C37.3116 34.0523 33.8767 33.9268 31.6905 34.3217Z" fill="black"/>
<path id="Vector_4" d="M49.8371 40.4328C49.0285 39.1156 51.2378 32.6097 47.5287 34.7235L41.7763 41.1222C41.3155 41.839 41.9997 42.7978 42.6955 42.9439C43.9625 43.2087 46.0474 42.7475 47.4181 42.9439C47.6301 42.9439 46.7616 46.82 48.805 46.2767C50.3462 45.8658 49.4155 44.0761 49.7588 43.0968C49.92 42.6311 50.7678 42.6608 50.8807 41.9075C51.0535 40.7501 50.1089 40.8779 49.8371 40.4351V40.4328Z" fill="black"/>
<path id="Vector_5" d="M30.2598 9.15397C28.6909 8.22259 27.9399 10.042 27.0299 10.9802C26.0577 10.1858 25.6661 8.49881 24.0834 8.97363C22.2197 9.53291 24.8483 12.2974 25.5256 12.9251C24.4727 14.1761 21.8349 16.7054 24.9081 17.1163L27.0322 14.8701C27.7947 15.6439 28.5918 17.6186 29.905 17.0364C31.8309 16.1804 29.1332 13.8497 28.5757 12.9229C29.1263 12.0303 31.4577 10.2292 30.2621 9.15397H30.2598Z" fill="black"/>
<path id="Vector_6" d="M26.1084 21.7139H33.5956V26.1653C33.5956 26.7611 35.0815 28.1765 35.7312 28.3865C36.5951 28.6673 38.4957 28.6787 39.3619 28.455C40.06 28.2746 41.6588 26.8136 41.6588 26.1653V19.4311H26.1084C25.3574 19.4311 25.3574 21.7139 26.1084 21.7139Z" fill="black"/>
<path id="Vector_7" d="M43.3912 9.15398C41.7003 8.17467 41.2556 10.1516 40.1613 10.9779C39.0717 10.1812 38.7561 8.35501 37.049 9.04213C35.7335 10.4985 37.8207 11.7564 38.6109 12.9206C38.0396 14.2423 35.9086 15.2993 36.8785 16.863C38.4589 17.872 39.3873 16.0229 40.0508 14.8632C40.3042 14.6852 42.0159 18.2874 43.4465 16.8607C44.7619 15.5481 41.9652 14.0255 41.8776 13.1397C41.7786 12.1285 44.7343 10.6081 43.3935 9.1517L43.3912 9.15398Z" fill="black"/>
<path id="Vector_8" d="M63.6688 14.8563C59.4 14.4614 54.546 15.1941 50.2149 14.8335C48.7636 3.08166 35.6921 -3.84661 25.1478 2.26898C23.8439 3.02687 22.6598 3.50397 23.4937 5.24117C24.4475 5.83242 27.1774 3.76649 28.2993 3.33733C42.3338 -2.01125 54.1728 14.9042 44.3104 26.0511C33.4551 38.3188 12.9517 25.348 21.0356 9.60815C21.448 8.80689 22.8256 7.5856 22.0147 6.70444C20.4297 4.9855 18.672 8.87766 18.1928 9.98709C17.5408 11.496 17.004 13.2035 17.0087 14.8631L2.89357 14.9156C1.22335 15.3608 0.34101 16.4885 0.182051 18.164C0.212 20.75 0.212 34.5 0.191266 37.3532C0.195874 37.3897 0.205089 37.4217 0.209696 37.4559C0.209696 37.4993 0.212 37.5906 0.212 37.5906C0.212 37.5906 -0.30404 48.6758 0.182051 53.7938C0.299543 55.0288 1.46524 57.0947 2.84058 57.0947H26.6844V63.2583C25.7283 63.2423 23.4016 63.0551 23.2219 64.2992C23.0767 65.2922 23.8807 65.6301 24.747 65.7488C24.747 65.7488 42.6665 65.7488 42.8245 65.6712C45.8585 64.1805 42.5158 62.7903 40.5046 63.2583V57.0947H64.3484C65.0949 57.0947 66.7075 55.5972 66.8434 54.7731L66.9977 17.9449C66.7513 16.1004 65.5049 15.0252 63.6665 14.854L63.6688 14.8563ZM63.4315 54.8142L2.88205 54.6019C2.76225 54.5289 2.49502 54.1043 2.49502 54.0152V50.2486H55.8269C56.8497 50.2486 56.8497 47.9659 55.8269 47.9659H2.49502L2.26687 37C2.26687 30.25 1.8568 20.9976 2.25535 17.9935C2.31755 17.521 2.66089 17.655 3.05713 17.3605L16.776 17.1482C17.2897 26.6378 25.2054 33.8057 34.8719 33.1346C43.1332 32.5616 50.1573 25.3891 50.1827 17.1459L64.0006 17.2669L64.5765 17.8376L64.6963 47.9659H59.7432C58.7204 47.9659 58.7204 50.2486 59.7432 50.2486H64.6963C64.4198 51.6845 65.551 54.7845 63.4339 54.8142H63.4315Z" fill="black"/>
<path id="Vector_9" d="M41.6588 19.4311V26.1653C41.6588 26.8136 40.06 28.2746 39.3619 28.455C38.4957 28.6787 36.5951 28.6673 35.7312 28.3865C35.0815 28.1765 33.5956 26.7611 33.5956 26.1653V21.7139H26.1084C25.3574 21.7139 25.3574 19.4311 26.1084 19.4311H41.6588Z" fill="black"/>
<path id="Vector_10" d="M31.6905 34.3217C33.8744 33.9268 37.3093 34.0546 38.0488 36.5908C38.3437 37.6021 38.3483 41.9234 38.1502 43.0055C37.8207 44.7929 36.3118 45.5599 34.6416 45.6923C32.5405 45.8589 29.8429 45.7631 29.1425 43.3616C28.8499 42.3571 28.8407 37.819 29.0872 36.7643C29.3545 35.6252 30.5294 34.5317 31.6905 34.3217ZM32.1466 36.6C31.9439 36.657 31.6144 36.931 31.5085 37.109C31.2113 37.6044 31.1514 41.8983 31.3403 42.5535C31.6928 43.7748 35.1553 43.72 35.6829 42.8434C35.98 42.348 36.0399 38.0541 35.851 37.3989C35.54 36.3237 33.0243 36.3511 32.1466 36.6Z" fill="black"/>
<path id="Vector_11" d="M42.6955 42.9438C41.9997 42.7977 41.3155 41.839 41.7763 41.1222L47.5287 34.7235C51.2378 32.6119 49.0285 39.1179 49.8371 40.4328C50.1089 40.8756 51.0558 40.7478 50.8807 41.9052C50.7678 42.6585 49.92 42.6288 49.7588 43.0945C49.4155 44.0761 50.3485 45.8658 48.805 46.2744C46.7593 46.82 47.6278 42.9415 47.4181 42.9415C46.0474 42.7452 43.9625 43.2064 42.6955 42.9415V42.9438ZM47.4181 40.4328L47.4135 38.6065L45.5728 40.3186L47.4158 40.4328H47.4181Z" fill="black"/>
<path id="Vector_12" d="M22.943 34.5523C23.6019 35.2052 23.0075 38.9535 23.2264 40.0903C23.3784 40.8733 24.5694 40.6884 24.3875 41.9029C24.2746 42.6562 23.4153 42.6356 23.2632 43.0922C22.9591 44.0122 23.7793 45.738 21.9754 45.6672C20.5701 45.6124 20.9641 43.9597 20.9249 42.9415C19.598 42.7178 14.8085 43.7611 15.1563 41.4714C15.3314 40.3209 20.2937 36.1457 21.0355 34.7212C21.4709 34.2487 22.4822 34.0935 22.943 34.5523ZM20.9249 40.4328L20.9203 38.6065L19.0796 40.3186L20.9226 40.4328H20.9249Z" fill="black"/>
<path id="Vector_13" d="M43.4464 16.8629C42.0158 18.2897 40.3041 14.6874 40.0507 14.8655C39.3872 16.0252 38.4588 17.8742 36.8784 16.8652C35.9085 15.2992 38.0395 14.2423 38.6108 12.9228C37.8207 11.7586 35.7358 10.5008 37.0489 9.04439C38.756 8.35727 39.0739 10.1835 40.1613 10.9802C41.2578 10.1538 41.7002 8.17464 43.3911 9.15624C44.7342 10.6127 41.7762 12.133 41.8753 13.1443C41.9628 14.0323 44.7619 15.5549 43.4441 16.8652L43.4464 16.8629Z" fill="black"/>
<path id="Vector_14" d="M24.0811 8.97363C25.6637 8.49881 26.0554 10.1858 27.0276 10.9802C27.9376 10.042 28.6886 8.22259 30.2574 9.15397C31.4531 10.2292 29.124 12.0303 28.5711 12.9229C29.1286 13.852 31.8263 16.1804 29.9003 17.0364C28.5895 17.6186 27.7924 15.6439 27.0276 14.8701L24.9035 17.1163C21.8326 16.7054 24.4681 14.1761 25.5209 12.9251C24.8436 12.2997 22.215 9.53291 24.0788 8.97363H24.0811Z" fill="black"/>
<path id="Vector_15" d="M7.96641 51.6732C8.34192 52.0431 8.33731 53.1685 7.86965 53.4629C7.35591 53.7871 5.36086 53.8282 5.013 53.2917C3.74593 51.3468 7.15318 50.8674 7.96871 51.6732H7.96641Z" fill="black"/>
<path id="Vector_16" d="M32.1466 36.6C33.0243 36.3512 35.54 36.3238 35.851 37.399C36.0399 38.0541 35.9823 42.348 35.6829 42.8434C35.1553 43.72 31.6928 43.7725 31.3403 42.5535C31.1514 41.8983 31.209 37.6044 31.5085 37.109C31.6144 36.931 31.9439 36.6593 32.1466 36.6Z" fill="white"/>
<path id="Vector_17" d="M47.4181 40.4327L45.5751 40.3186L47.4158 38.6065L47.4181 40.4327Z" fill="white"/>
<path id="Vector_18" d="M20.925 40.4327L19.082 40.3186L20.9227 38.6065L20.925 40.4327Z" fill="white"/>
<g id="Group 482422">
<path id="Vector_19" d="M21.5464 28.238C16.7145 23.8065 15.3596 16.3284 17.8384 10.3335C23.3163 -2.92297 43.79 -2.76885 48.752 10.7511C54.9096 27.5277 34.2542 39.8929 21.5464 28.238ZM48.0835 16.5987C48.0835 8.66719 41.6276 2.23889 33.662 2.23889C25.6963 2.23889 19.2404 8.66719 19.2404 16.5987C19.2404 24.5302 25.6963 30.9585 33.662 30.9585C41.6276 30.9585 48.0835 24.5302 48.0835 16.5987Z" fill="black"/>
<path id="Vector_20" d="M48.0834 16.5988C48.0834 24.5303 41.6274 30.9586 33.6618 30.9586C25.6962 30.9586 19.2402 24.5303 19.2402 16.5988C19.2402 8.66723 25.6962 2.23669 33.6618 2.23669C41.6274 2.23669 48.0834 8.665 48.0834 16.5965V16.5988Z" fill="#FF9898"/>
<path id="Vector_21" d="M40.8267 18.5151V24.8898C40.8267 25.5041 39.3216 26.8867 38.6643 27.0564C37.8478 27.2686 36.0599 27.2575 35.2434 26.9917C34.631 26.7929 33.2313 25.4527 33.2313 24.8898V20.6773H26.1786C25.4698 20.6773 25.4698 18.5174 26.1786 18.5174H40.8245L40.8267 18.5151Z" fill="black"/>
<path id="Vector_22" d="M42.5113 16.0849C41.1632 17.434 39.5503 14.0255 39.3125 14.193C38.6889 15.2897 37.8118 17.0409 36.3246 16.0849C35.4116 14.604 37.417 13.6033 37.9554 12.3525C37.2106 11.2491 35.2478 10.0609 36.4861 8.68272C38.0945 8.03275 38.3928 9.76155 39.418 10.5143C40.4498 9.73252 40.8671 7.86076 42.4597 8.7877C43.7249 10.1658 40.9389 11.6043 41.0331 12.5625C41.1161 13.4023 43.7518 14.843 42.5113 16.0849Z" fill="black"/>
<path id="Vector_23" d="M24.2718 8.61797C25.7613 8.16902 26.1315 9.76604 27.0489 10.5165C27.9058 9.62979 28.6124 7.90545 30.0907 8.78772C31.2168 9.80401 29.023 11.5105 28.5025 12.3548C29.0274 13.2326 31.569 15.4394 29.7542 16.248C28.5182 16.7997 27.769 14.9301 27.0489 14.1975L25.048 16.3239C22.1543 15.933 24.6397 13.5408 25.6312 12.357C24.9942 11.7629 22.5154 9.14733 24.2718 8.61797Z" fill="black"/>
</g>
</g>
<defs>
<clipPath id="clip0_555_838">
<rect width="67" height="66" fill="white"/>
</clipPath>
</defs>
</svg>
