<svg width="41" height="41" viewBox="0 0 41 41" fill="none" xmlns="http://www.w3.org/2000/svg">
<g id="Group 482109">
<g id="Group 482103">
<rect id="Rectangle 2434" width="41" height="41" rx="6" fill="#F9F8F8"/>
</g>
<g id="Group 482107">
<path id="Vector" d="M18.5628 8.62488C21.6476 8.17801 25.0674 11.9682 26.607 14.3001C28.0395 16.4689 30.1426 20.8636 28.7879 23.3802C28.2237 24.4292 27.4907 24.5532 26.4011 24.6631C23.8316 24.9221 21.238 25.0266 18.6639 25.2473L18.5178 25.3362L22.2655 30.9147C23.6008 33.5117 20.3489 35.785 18.3716 33.5374L14.0962 27.257C14.0317 27.2227 13.3734 27.5854 13.1962 27.6423C10.2078 28.6062 7.39812 25.6684 8.4085 22.7212C9.03416 20.8955 11.072 20.2139 12.4586 19.0792L17.1328 9.58336C17.3955 9.11543 18.0351 8.69975 18.5621 8.6241L18.5628 8.62488ZM19.0307 9.73076C17.303 9.88049 17.6247 12.366 17.896 13.5249C18.6654 16.8097 21.6857 21.2129 24.6469 22.8632C25.749 23.4777 27.1985 24.001 27.8133 22.46C28.9325 19.6563 25.6876 14.6167 23.8145 12.607C22.8267 11.5471 20.5479 9.59974 19.0307 9.73076ZM23.7547 23.7281C23.2899 23.3233 22.7691 22.9919 22.2997 22.591C20.1251 20.738 18.0064 17.6208 17.1071 14.9006C16.9307 14.3671 16.846 13.8127 16.6859 13.2792C16.6695 13.2238 16.675 13.1466 16.5996 13.163L13.5778 19.4387L16.7449 24.1952L23.7547 23.7281ZM12.7586 20.2849C11.3114 21.3884 8.91991 22.2206 9.39945 24.5033C9.80749 26.4467 11.8446 27.225 13.5234 26.2174C14.2819 25.7628 14.9783 25.1677 15.726 24.692L12.7586 20.2841V20.2849ZM15.0288 26.5325L19.3035 32.8956C20.2611 33.9375 21.8746 32.8402 21.322 31.5705L17.2144 25.4766C17.0861 25.3838 16.8094 25.4025 16.6602 25.4539C16.2141 25.6068 15.5488 26.3789 15.0288 26.5325Z" fill="black" stroke="black" stroke-width="0.4"/>
<path id="Vector_2" d="M34.5547 9.98969L30.4292 12.7091C29.7935 12.9743 29.2401 12.2568 29.7764 11.7624L33.8801 9.04994C34.505 8.83391 34.9472 9.48355 34.5555 9.98969H34.5547Z" fill="black"/>
<path id="Vector_3" d="M30.8958 15.4543C31.0248 15.4208 31.1523 15.4356 31.2821 15.4473C32.7751 15.5791 34.4026 16.1344 35.9166 16.2841C36.5539 16.5898 36.3829 17.3518 35.7114 17.4251L30.9805 16.5672C30.389 16.4799 30.3626 15.5931 30.8958 15.4551V15.4543Z" fill="black"/>
<path id="Vector_4" d="M27.5194 4.7107C27.9849 4.60386 28.2499 4.84796 28.2873 5.30419L27.8139 9.73469C27.5753 10.3539 26.7289 10.2362 26.673 9.57404L27.1409 5.08972C27.1774 4.93297 27.3631 4.74657 27.5186 4.7107H27.5194Z" fill="black"/>
<path id="Vector_5" d="M22.8444 19.0215C22.919 18.9334 23.1273 18.8367 23.2105 18.747C24.5504 17.2964 23.4359 15.1252 21.4617 15.3865C20.9729 15.4512 20.2695 16.1999 19.8902 15.4933C19.3718 14.5278 21.4882 14.1683 22.0959 14.2143C24.9522 14.4335 26.0015 18.3266 23.6931 19.8427C22.9804 20.3107 22.3983 19.5495 22.8452 19.0207L22.8444 19.0215Z" fill="black"/>
</g>
</g>
</svg>
