<svg width="22" height="20" viewBox="0 0 22 20" fill="none" xmlns="http://www.w3.org/2000/svg">
<path d="M20.563 4.68627C20.2667 3.97318 19.8444 3.33514 19.2963 2.79469C18.1926 1.69127 16.7333 1.08327 15.1704 1.08327C13.6296 1.08327 12.1704 1.68377 11.0593 2.78719L11.0074 2.83973L10.9556 2.78719C9.85185 1.68377 8.39259 1.07576 6.82963 1.07576C5.28889 1.07576 3.82963 1.67626 2.72593 2.77218C2.17778 3.31263 1.75556 3.95066 1.45185 4.66375C1.15556 5.37685 1.00741 6.13498 1 6.90812C1 7.68126 1.14815 8.4394 1.44444 9.15249C1.74074 9.86559 2.16296 10.5036 2.7037 11.0441L10.5333 18.8806C10.6593 19.0082 10.8222 19.0758 11 19.0758C11.1778 19.0758 11.3407 19.0082 11.4667 18.8806L19.2815 11.0741C19.8296 10.5336 20.2519 9.90312 20.5481 9.18252C20.8444 8.46942 20.9926 7.7188 21 6.93815C21 6.165 20.8519 5.40687 20.5556 4.69377L20.563 4.68627ZM6.83704 2.41938C8.02963 2.41938 9.16296 2.89227 10.0148 3.74048L10.5333 4.26592C10.7926 4.52113 11.2074 4.52113 11.4667 4.26592L11.9852 3.74799C12.8444 2.89978 13.9704 2.43439 15.1704 2.43439C16.3704 2.43439 17.4963 2.90729 18.3556 3.763C18.7704 4.17584 19.0963 4.66375 19.3259 5.21171C19.5556 5.75967 19.6667 6.33764 19.6667 6.93064C19.6667 7.52363 19.5481 8.10161 19.3185 8.64957C19.0889 9.19753 18.763 9.68544 18.3407 10.0983L10.9926 17.4394L3.62963 10.0683C3.21481 9.65541 2.88889 9.1675 2.65926 8.61955C2.42963 8.07159 2.31852 7.49361 2.31852 6.90062C2.31852 6.30762 2.43704 5.72964 2.66667 5.18168C2.8963 4.63373 3.22222 4.14582 3.63704 3.73298C4.4963 2.88477 5.62222 2.41938 6.81481 2.41938" fill="white"/>
<path d="M6.83704 2.41938C8.02963 2.41938 9.16296 2.89227 10.0148 3.74048L10.5333 4.26592C10.7926 4.52113 11.2074 4.52113 11.4667 4.26592L11.9852 3.74799C12.8444 2.89978 13.9704 2.43439 15.1704 2.43439C16.3704 2.43439 17.4963 2.90729 18.3556 3.763C18.7704 4.17584 19.0963 4.66375 19.3259 5.21171C19.5556 5.75966 19.6667 6.33764 19.6667 6.93064C19.6667 7.52363 19.5482 8.10162 19.3185 8.64957C19.0889 9.19753 18.763 9.68544 18.3407 10.0983L10.9926 17.4394L3.62963 10.0683C3.21481 9.65541 2.88889 9.1675 2.65926 8.61955C2.42963 8.07159 2.31852 7.49361 2.31852 6.90062C2.31852 6.30762 2.43704 5.72964 2.66667 5.18168C2.8963 4.63373 3.22222 4.14582 3.63704 3.73298C4.4963 2.88477 5.62222 2.41938 6.81481 2.41938M20.563 4.68627C20.2667 3.97318 19.8444 3.33514 19.2963 2.79469C18.1926 1.69127 16.7333 1.08327 15.1704 1.08327C13.6296 1.08327 12.1704 1.68377 11.0593 2.78719L11.0074 2.83973L10.9556 2.78719C9.85185 1.68377 8.39259 1.07576 6.82963 1.07576C5.28889 1.07576 3.82963 1.67626 2.72593 2.77218C2.17778 3.31263 1.75556 3.95066 1.45185 4.66375C1.15556 5.37685 1.00741 6.13498 1 6.90812C1 7.68127 1.14815 8.4394 1.44444 9.15249C1.74074 9.86559 2.16296 10.5036 2.7037 11.0441L10.5333 18.8806C10.6593 19.0082 10.8222 19.0758 11 19.0758C11.1778 19.0758 11.3407 19.0082 11.4667 18.8806L19.2815 11.0741C19.8296 10.5336 20.2519 9.90312 20.5481 9.18252C20.8444 8.46942 20.9926 7.7188 21 6.93815C21 6.165 20.8519 5.40687 20.5556 4.69377L20.563 4.68627Z" stroke="white" stroke-width="0.5"/>
</svg>
