<svg width="27" height="23" viewBox="0 0 27 23" fill="none" xmlns="http://www.w3.org/2000/svg">
<g id="Coeur">
<path d="M25.4537 5.21226C25.0833 4.38032 24.5556 3.63595 23.8704 3.00542C22.4907 1.7181 20.6667 1.00876 18.713 1.00876C16.787 1.00876 14.963 1.70934 13.5741 2.99667L13.5093 3.05797L13.4444 2.99667C12.0648 1.70934 10.2407 1 8.28704 1C6.36111 1 4.53704 1.70059 3.15741 2.97915C2.47222 3.60968 1.94445 4.35405 1.56482 5.18599C1.19444 6.01793 1.00926 6.90242 1 7.80442C1 8.70642 1.18518 9.59091 1.55555 10.4229C1.92592 11.2548 2.4537 11.9992 3.12963 12.6297L12.9167 21.7723C13.0741 21.9212 13.2778 22 13.5 22C13.7222 22 13.9259 21.9212 14.0833 21.7723L23.8519 12.6647C24.537 12.0342 25.0648 11.2986 25.4352 10.4579C25.8056 9.62594 25.9907 8.75021 26 7.83945C26 6.93745 25.8148 6.05296 25.4444 5.22102L25.4537 5.21226ZM8.2963 2.56756C9.78704 2.56756 11.2037 3.11927 12.2685 4.10884L12.9167 4.72185C13.2407 5.0196 13.7593 5.0196 14.0833 4.72185L14.7315 4.1176C15.8056 3.12802 17.213 2.58507 18.713 2.58507C20.213 2.58507 21.6204 3.13678 22.6944 4.13511C23.213 4.61677 23.6204 5.18599 23.9074 5.82527C24.1944 6.46456 24.3333 7.13886 24.3333 7.83069C24.3333 8.52252 24.1852 9.19683 23.8982 9.83611C23.6111 10.4754 23.2037 11.0446 22.6759 11.5263L13.4907 20.0909L4.28704 11.4912C3.76852 11.0096 3.36111 10.4404 3.07408 9.80108C2.78704 9.1618 2.64815 8.48749 2.64815 7.79567C2.64815 7.10384 2.7963 6.42953 3.08333 5.79024C3.37037 5.15096 3.77778 4.58174 4.2963 4.10008C5.37037 3.11051 6.77778 2.56756 8.26852 2.56756" fill="black"/>
<path d="M8.2963 2.56756C9.78704 2.56756 11.2037 3.11927 12.2685 4.10884L12.9167 4.72185C13.2407 5.0196 13.7593 5.0196 14.0833 4.72185L14.7315 4.1176C15.8056 3.12802 17.213 2.58507 18.713 2.58507C20.213 2.58507 21.6204 3.13678 22.6944 4.13511C23.213 4.61677 23.6204 5.18599 23.9074 5.82527C24.1944 6.46456 24.3333 7.13887 24.3333 7.83069C24.3333 8.52252 24.1852 9.19683 23.8982 9.83611C23.6111 10.4754 23.2037 11.0446 22.6759 11.5263L13.4907 20.0909L4.28704 11.4912C3.76852 11.0096 3.36111 10.4404 3.07408 9.80108C2.78704 9.1618 2.64815 8.48749 2.64815 7.79567C2.64815 7.10384 2.7963 6.42953 3.08333 5.79024C3.37037 5.15096 3.77778 4.58174 4.2963 4.10008C5.37037 3.11051 6.77778 2.56756 8.26852 2.56756M25.4537 5.21226C25.0833 4.38032 24.5556 3.63595 23.8704 3.00542C22.4907 1.7181 20.6667 1.00876 18.713 1.00876C16.787 1.00876 14.963 1.70934 13.5741 2.99667L13.5093 3.05797L13.4444 2.99667C12.0648 1.70934 10.2407 1 8.28704 1C6.36111 1 4.53704 1.70059 3.15741 2.97915C2.47222 3.60968 1.94444 4.35405 1.56482 5.18599C1.19445 6.01793 1.00926 6.90242 1 7.80442C1 8.70642 1.18518 9.59091 1.55555 10.4229C1.92592 11.2548 2.4537 11.9992 3.12963 12.6297L12.9167 21.7723C13.0741 21.9212 13.2778 22 13.5 22C13.7222 22 13.9259 21.9212 14.0833 21.7723L23.8519 12.6647C24.537 12.0342 25.0648 11.2986 25.4352 10.4579C25.8056 9.62594 25.9907 8.75021 26 7.83945C26 6.93745 25.8148 6.05296 25.4444 5.22102L25.4537 5.21226Z" stroke="black" stroke-width="0.2"/>
</g>
</svg>
