<svg width="41" height="41" viewBox="0 0 41 41" fill="none" xmlns="http://www.w3.org/2000/svg">
<g id="Group 482110">
<g id="Group 482104">
<rect id="Rectangle 2434" width="41" height="41" rx="6" fill="#F9F8F8"/>
</g>
<g id="Group 482038">
<path id="Baguette" d="M27.9243 21.6957L25.6552 18.2829L26.7858 14.317C26.8569 14.0721 26.7858 13.8035 26.6039 13.6218C26.4221 13.4401 26.1533 13.369 25.9082 13.4401L21.9629 14.5935L18.5394 12.2867C18.326 12.1445 18.0493 12.1208 17.82 12.2472C17.5907 12.3657 17.4405 12.6027 17.4326 12.8555L17.314 16.9793L14.0723 19.5232C13.8668 19.6812 13.7719 19.9419 13.8114 20.1947C13.851 20.4475 14.0249 20.6608 14.27 20.7477L17.3061 21.8379C17.3061 21.8379 17.2665 21.8695 17.2428 21.8853L8.40752 30.7801C8.1308 31.0566 8.1308 31.5069 8.40752 31.7834C8.54193 31.9256 8.72378 31.9888 8.90563 31.9888C9.08747 31.9888 9.26932 31.9177 9.40373 31.7834L18.2469 22.9045C18.2944 22.8571 18.326 22.8097 18.3576 22.7544L19.5436 26.025C19.591 26.1435 19.6622 26.2462 19.757 26.3331C19.8519 26.4121 19.9705 26.4674 20.097 26.4832C20.1365 26.4832 20.1682 26.4911 20.2077 26.4911C20.3184 26.4911 20.4212 26.4674 20.516 26.42C20.6109 26.3726 20.6979 26.3015 20.7611 26.2146L23.2754 22.9519L27.3392 22.8097C27.6001 22.8018 27.8294 22.6517 27.948 22.4225C28.0666 22.1934 28.0429 21.9169 27.9006 21.7036L27.9243 21.6957ZM22.9117 21.5377C22.6982 21.5377 22.5084 21.6483 22.374 21.8142L20.437 24.3265L19.3538 21.3481C19.2826 21.1506 19.1245 20.9926 18.9269 20.9215L15.9541 19.8471L18.4446 17.8958C18.6106 17.7694 18.7055 17.5719 18.7134 17.3586L18.8083 14.1906L21.4332 15.9602C21.5201 16.0155 21.615 16.055 21.7178 16.0708C21.8206 16.0866 21.9234 16.0787 22.0262 16.055L25.0622 15.1623L24.1925 18.2118C24.1609 18.3145 24.1609 18.4172 24.1767 18.5199C24.1925 18.6226 24.232 18.7174 24.2874 18.8043L26.0663 21.4271L22.9038 21.5377H22.9117Z" fill="black" stroke="black" stroke-width="0.1"/>
<path id="Vector" d="M32.6065 15.4938V18.112M33.9714 16.8029H31.2416M23.442 8.20001V10.8183M24.8069 9.50915H22.077M32.6065 8.20001V10.8183M33.9714 9.50915H31.2416" stroke="black" stroke-width="0.4" stroke-linecap="round" stroke-linejoin="round"/>
</g>
</g>
</svg>
