<svg width="12" height="12" viewBox="0 0 12 12" fill="none" xmlns="http://www.w3.org/2000/svg">
<g id="Group">
<path id="Vector" d="M7.27206 4.73529L6.96031 4.68344C6.95278 4.72872 6.9552 4.77509 6.9674 4.81933C6.9796 4.86358 7.00129 4.90464 7.03095 4.93966C7.06062 4.97468 7.09755 5.00282 7.13918 5.02213C7.18082 5.04144 7.22616 5.05145 7.27206 5.05147V4.73529ZM0.316176 4.73529V4.41912C0.232321 4.41912 0.151901 4.45243 0.092606 4.51172C0.0333114 4.57102 0 4.65144 0 4.73529H0.316176ZM1.58088 11.375H8.76441V10.7426H1.58088V11.375ZM9.52324 4.41912H7.27206V5.05147H9.52324V4.41912ZM7.58381 4.78715L8.09348 1.72972L7.46999 1.62538L6.96031 4.68344L7.58381 4.78715ZM7.15824 0.625H7.02354V1.25735H7.15824V0.625ZM5.1815 1.61084L3.5905 3.99671L4.11662 4.34766L5.70698 1.96116L5.18087 1.61084H5.1815ZM2.80132 4.41912H0.316176V5.05147H2.80132V4.41912ZM0 4.73529V9.79412H0.632353V4.73529H0ZM10.3149 10.104L11.0738 6.30985L10.4541 6.18591L9.69524 9.98003L10.3149 10.104ZM3.5905 3.99671C3.50389 4.12663 3.38654 4.23317 3.24887 4.30686C3.1112 4.38055 2.95747 4.41911 2.80132 4.41912V5.05147C3.06155 5.05148 3.31776 4.98724 3.54721 4.86446C3.77665 4.74169 3.97224 4.56417 4.11662 4.34766L3.5905 3.99671ZM8.09348 1.72972C8.11617 1.59385 8.10899 1.45467 8.07244 1.32186C8.03589 1.18904 7.97085 1.06578 7.88184 0.960648C7.79284 0.855514 7.682 0.771028 7.55704 0.713063C7.43207 0.655099 7.29599 0.625048 7.15824 0.625V1.25735C7.20418 1.25728 7.2496 1.26723 7.29131 1.2865C7.33302 1.30577 7.37004 1.33389 7.39977 1.36893C7.42951 1.40396 7.45125 1.44505 7.46348 1.48934C7.47572 1.53363 7.47815 1.58005 7.47062 1.62538L8.09348 1.72972ZM9.52324 5.05147C9.66357 5.05146 9.80215 5.08259 9.929 5.14261C10.0559 5.20264 10.1678 5.29006 10.2568 5.39858C10.3458 5.50709 10.4095 5.634 10.4436 5.77015C10.4776 5.9063 10.4816 6.0483 10.4541 6.18591L11.0738 6.30985C11.1196 6.08059 11.1134 5.84402 11.0567 5.61718C11.0001 5.39034 10.8939 5.17888 10.7457 4.99803C10.5975 4.81719 10.4111 4.67147 10.1998 4.57136C9.98852 4.47126 9.75767 4.41926 9.52387 4.41912V5.05147H9.52324ZM8.76441 11.375C9.12996 11.3751 9.48423 11.2485 9.76694 11.0167C10.0496 10.785 10.2433 10.4624 10.3149 10.104L9.69524 9.98003C9.65223 10.1952 9.53596 10.3888 9.36624 10.5278C9.19651 10.6669 8.98383 10.7428 8.76441 10.7426V11.375ZM7.02291 0.625C6.65844 0.624946 6.29959 0.714904 5.97824 0.886885C5.6569 1.05887 5.38299 1.30755 5.18087 1.61084L5.70698 1.96116C5.85136 1.74465 6.04695 1.56714 6.2764 1.44436C6.50584 1.32158 6.76205 1.25735 7.02228 1.25735V0.625H7.02291ZM1.58088 10.7426C1.32932 10.7426 1.08805 10.6427 0.910171 10.4648C0.732287 10.2869 0.632353 10.0457 0.632353 9.79412H0C0 10.0017 0.0408907 10.2073 0.120338 10.3991C0.199784 10.5909 0.316231 10.7652 0.46303 10.912C0.609828 11.0588 0.784104 11.1752 0.975905 11.2547C1.16771 11.3341 1.37328 11.375 1.58088 11.375V10.7426Z" fill="#C2CBD3"/>
<g id="Vector_2">
<path d="M2.84546 4.73535V11.0589V4.73535Z" fill="#C2CBD3"/>
<path d="M2.84546 4.73535V11.0589" stroke="#C2CBD3"/>
</g>
</g>
</svg>
