<svg width="24" height="24" viewBox="0 0 24 24" fill="none" xmlns="http://www.w3.org/2000/svg">
<g id="notifications-none">
<path id="Vector" d="M10.8235 20.5588C11.9235 20.5588 12.8235 19.6588 12.8235 18.5588H8.82355C8.82355 19.6588 9.72355 20.5588 10.8235 20.5588ZM16.8235 14.5588V9.55882C16.8235 6.48882 15.1935 3.91882 12.3235 3.23882V2.55882C12.3235 1.72882 11.6535 1.05882 10.8235 1.05882C9.99355 1.05882 9.32355 1.72882 9.32355 2.55882V3.23882C6.46355 3.91882 4.82355 6.47882 4.82355 9.55882V14.5588L2.82355 16.5588V17.5588H18.8235V16.5588L16.8235 14.5588ZM14.8235 15.5588H6.82355V9.55882C6.82355 7.07882 8.33355 5.05882 10.8235 5.05882C13.3135 5.05882 14.8235 7.07882 14.8235 9.55882V15.5588Z" fill="#0C1116"/>
</g>
</svg>
