<svg width="24" height="21" viewBox="0 0 24 21" fill="none" xmlns="http://www.w3.org/2000/svg">
<g id="Group 482119">
<path id="Vector" d="M19.204 16.9607C19.4208 17.5075 20.0242 18.1376 20.0876 18.7211C20.1709 19.498 19.6441 20.2682 18.8873 20.4615H5.10758C4.34741 20.2915 3.82396 19.488 3.90731 18.7211C3.97066 18.1343 4.56746 17.5075 4.79084 16.9607H2.00689C1.53345 16.9607 1 16.2238 1 15.767V2.28699C1.04334 1.55347 1.50011 1.05668 2.24028 1H21.8046C22.4848 1.06002 22.9715 1.60682 22.9982 2.28699V15.6737C23.0349 16.1605 22.4981 16.9573 21.9913 16.9573H19.2074L19.204 16.9607ZM22.4814 4.23081V2.10028C22.4814 1.92356 22.1514 1.58681 21.968 1.5368L2.14692 1.51346C1.91354 1.50346 1.51678 1.90023 1.51678 2.10028V4.23081H22.4814ZM22.4814 4.74427H1.51678V15.9037C1.51678 15.9237 1.69015 16.2138 1.72683 16.2538C1.84352 16.3738 2.08024 16.4639 2.24694 16.4839L5.0709 16.4639L10.7422 6.69142C11.3623 5.86789 12.5126 5.82121 13.1927 6.6114L18.924 16.4605L21.7479 16.4805C21.988 16.5206 22.4781 16.1071 22.4781 15.9004V4.74427H22.4814ZM11.7524 6.5814C11.4357 6.63474 11.1823 6.90148 11.0256 7.16488L4.43743 18.6411C4.31407 19.2446 4.57746 19.738 5.15426 19.9414C9.6986 20.0414 14.293 20.0414 18.8373 19.9414C19.5074 19.708 19.7575 19.0545 19.4608 18.4077L12.9493 7.13487C12.6893 6.68476 12.2625 6.49471 11.7491 6.5814H11.7524Z" fill="black" stroke="black" stroke-width="0.9"/>
<path id="Vector_2" d="M11.7845 10.3231C12.3284 10.2362 12.8163 10.5228 12.8461 11.0122C12.6524 12.2809 12.6748 13.6366 12.4699 14.8956C12.3656 15.5429 11.6467 15.5074 11.5461 15.0244C11.3077 13.8459 11.4046 12.4806 11.1662 11.2859C11.1066 10.8802 11.2556 10.4069 11.7808 10.3231H11.7845Z" fill="black"/>
<path id="Vector_3" d="M11.3744 16.4967C12.0142 15.7838 13.2655 16.6328 12.7057 17.5286C12.0706 18.5464 10.5982 17.3739 11.3744 16.4967Z" fill="black"/>
</g>
</svg>
