<svg width="22" height="22" viewBox="0 0 22 22" fill="none" xmlns="http://www.w3.org/2000/svg">
<path id="Vector" d="M11 5.49977C11.1989 5.49977 11.3897 5.57879 11.5303 5.71943C11.671 5.86008 11.75 6.05083 11.75 6.24974L11.75 12.4994C11.75 12.6983 11.671 12.8891 11.5303 13.0297C11.3897 13.1704 11.1989 13.2494 11 13.2494C10.8011 13.2494 10.6103 13.1704 10.4697 13.0297C10.329 12.8891 10.25 12.6983 10.25 12.4994L10.25 6.24974C10.25 6.05083 10.329 5.86008 10.4697 5.71943C10.6103 5.57879 10.8011 5.49977 11 5.49977ZM11 16.4972C11.2652 16.4972 11.5196 16.3919 11.7071 16.2043C11.8946 16.0168 12 15.7625 12 15.4973C12 15.2321 11.8946 14.9777 11.7071 14.7902C11.5196 14.6027 11.2652 14.4973 11 14.4973C10.7348 14.4973 10.4804 14.6027 10.2929 14.7902C10.1054 14.9777 10 15.2321 10 15.4973C10 15.7625 10.1054 16.0168 10.2929 16.2043C10.4804 16.3919 10.7348 16.4972 11 16.4972ZM11 1C16.523 1 21 5.47677 21 10.9995C21 16.5222 16.523 20.999 11 20.999C9.40399 21.0012 7.83083 20.6198 6.41301 19.8871L2.58701 20.954C2.37355 21.0136 2.14809 21.0153 1.93373 20.9591C1.71937 20.9028 1.52382 20.7906 1.36712 20.6339C1.21041 20.4772 1.09818 20.2817 1.04194 20.0673C0.985686 19.853 0.987437 19.6275 1.04701 19.4141L2.11501 15.5913C1.38036 14.1723 0.997931 12.5974 1.00001 10.9995C1.00001 5.47677 5.47701 1 11 1ZM11 2.49992C8.74567 2.49992 6.58366 3.39541 4.9896 4.98939C3.39554 6.58337 2.50001 8.74527 2.50001 10.9995C2.50001 12.4694 2.87301 13.8823 3.57301 15.1363L3.72301 15.4063L2.61101 19.3901L6.59801 18.2781L6.86801 18.4281C8.00239 19.0588 9.26614 19.4213 10.5624 19.4879C11.8586 19.5545 13.1528 19.3233 14.3458 18.8122C15.5389 18.3011 16.599 17.5235 17.4449 16.5392C18.2909 15.5549 18.9002 14.3899 19.2261 13.1337C19.552 11.8774 19.5858 10.5632 19.325 9.29177C19.0643 8.02038 18.5158 6.82559 17.7216 5.79902C16.9275 4.77245 15.9088 3.94137 14.7437 3.3695C13.5786 2.79764 12.2979 2.50017 11 2.49992Z" fill="white" stroke="white" stroke-width="0.5"/>
</svg>
