<svg width="25" height="22" viewBox="0 0 25 22" fill="none" xmlns="http://www.w3.org/2000/svg">
<g id="Group">
<g id="Group 93">
<path id="Vector" d="M1 1H2.94445L3.77779 4.33334M3.77779 4.33334L6.55557 15.4445H21.0001L23.7779 4.33334H3.77779Z" stroke="black" stroke-width="1.8" stroke-linecap="round" stroke-linejoin="round"/>
<path id="Vector_2" d="M6.55562 21C7.4761 21 8.22229 20.2538 8.22229 19.3333C8.22229 18.4128 7.4761 17.6666 6.55562 17.6666C5.63514 17.6666 4.88895 18.4128 4.88895 19.3333C4.88895 20.2538 5.63514 21 6.55562 21Z" stroke="black" stroke-width="1.8" stroke-linecap="round" stroke-linejoin="round"/>
<path id="Vector_3" d="M21 21C21.9205 21 22.6667 20.2538 22.6667 19.3333C22.6667 18.4128 21.9205 17.6666 21 17.6666C20.0796 17.6666 19.3334 18.4128 19.3334 19.3333C19.3334 20.2538 20.0796 21 21 21Z" stroke="black" stroke-width="1.8" stroke-linecap="round" stroke-linejoin="round"/>
</g>
</g>
</svg>
