<svg width="31" height="31" viewBox="0 0 31 31" fill="none" xmlns="http://www.w3.org/2000/svg">
<path d="M15.5 6.98424C15.81 6.98424 16.1081 7.10342 16.3227 7.32987C16.5373 7.54441 16.6685 7.84237 16.6685 8.15225V17.8301C16.6685 18.1399 16.5492 18.4379 16.3227 18.6524C16.1081 18.867 15.81 18.9981 15.5 18.9981C15.19 18.9981 14.8919 18.8789 14.6773 18.6524C14.4627 18.4379 14.3315 18.1399 14.3315 17.8301V8.15225C14.3315 7.84237 14.4508 7.54441 14.6773 7.32987C14.8919 7.11534 15.19 6.98424 15.5 6.98424ZM15.5 24.0158C15.9054 24.0158 16.3108 23.8489 16.5969 23.5629C16.8831 23.2768 17.05 22.8835 17.05 22.4664C17.05 22.0492 16.8831 21.6559 16.5969 21.3699C16.3108 21.0838 15.9173 20.917 15.5 20.917C15.0827 20.917 14.6892 21.0838 14.4031 21.3699C14.1169 21.6559 13.95 22.0492 13.95 22.4664C13.95 22.8835 14.1169 23.2768 14.4031 23.5629C14.6892 23.8489 15.0827 24.0158 15.5 24.0158ZM15.5 0.0119182C24.0608 0.0119182 31 6.94848 31 15.506C31 24.0634 24.0608 31 15.5 31C13.0319 31 10.5877 30.416 8.39384 29.2718L2.46808 30.9285C2.13423 31.0238 1.78846 31.0238 1.45461 30.9285C1.12077 30.8451 0.822692 30.6663 0.572307 30.4279C0.333846 30.1895 0.154997 29.8797 0.0715356 29.5459C-0.011926 29.2122 -0.011926 28.8666 0.0715356 28.5329L1.72884 22.6094C0.584227 20.4164 0 17.9731 0 15.494C0 6.93656 6.93923 0 15.5 0V0.0119182ZM15.5 2.33602C12.0065 2.33602 8.65615 3.71857 6.18808 6.19762C3.72 8.66474 2.325 12.0138 2.325 15.506C2.325 17.7824 2.8973 19.9754 3.9823 21.9181L4.22077 22.3353L2.49192 28.509L8.66807 26.7809L9.08538 27.0192C10.8381 27.9965 12.8054 28.5567 14.8085 28.664C16.8235 28.7712 18.8265 28.4137 20.6746 27.6151C22.5227 26.8285 24.1681 25.6128 25.4796 24.0992C26.7911 22.5736 27.7331 20.7739 28.2458 18.8193C28.7465 16.8766 28.8062 14.8385 28.4008 12.872C27.9954 10.9054 27.1488 9.04614 25.9208 7.46098C24.6927 5.87582 23.1069 4.58862 21.3065 3.69473C19.5061 2.81276 17.515 2.34794 15.5 2.34794V2.33602Z" fill="black"/>
</svg>
