<svg width="24" height="24" viewBox="0 0 24 24" fill="none" xmlns="http://www.w3.org/2000/svg">
<path id="Vector" d="M11.8444 23.5877H11.8443C9.96995 23.5903 8.12241 23.1424 6.45732 22.2818L6.4224 22.2638L6.38454 22.2743L1.85286 23.5381L1.85284 23.5381C1.61709 23.6039 1.36808 23.6058 1.13133 23.5437C0.894587 23.4816 0.678612 23.3576 0.505539 23.1846C0.332467 23.0115 0.208519 22.7955 0.146395 22.5588C0.0842713 22.3221 0.0862049 22.0731 0.151998 21.8373L1.41698 17.3094L1.42757 17.2715L1.40947 17.2366C0.546696 15.5701 0.0975704 13.7205 0.10001 11.844V11.8438C0.10001 5.35772 5.35799 0.1 11.8444 0.1C18.3309 0.1 23.5889 5.35772 23.5889 11.8438C23.5889 18.33 18.3309 23.5877 11.8444 23.5877ZM11.8445 1.67658H11.8444C9.14779 1.67658 6.56158 2.74777 4.65475 4.6545C2.74792 6.56123 1.67668 9.14732 1.67668 11.8438C1.67668 13.602 2.12286 15.2923 2.96027 16.7924L3.11789 17.0761L1.81183 21.7551L1.76414 21.926L1.93501 21.8783L6.61785 20.5723L6.90174 20.73C8.2587 21.4844 9.7704 21.9181 11.3209 21.9977C12.8715 22.0774 14.4197 21.8009 15.8468 21.1895C17.2739 20.5781 18.542 19.648 19.554 18.4705C20.5659 17.2931 21.2947 15.8995 21.6846 14.3968C22.0744 12.894 22.1149 11.3219 21.8029 9.80105C21.491 8.2802 20.8349 6.85098 19.885 5.62299C18.935 4.395 17.7164 3.40085 16.3227 2.71678C14.929 2.0327 13.3971 1.67687 11.8445 1.67658ZM11.8444 5.42973C12.0535 5.42973 12.254 5.51278 12.4019 5.66062C12.5497 5.80845 12.6328 6.00895 12.6328 6.21802V13.6204C12.6328 13.8295 12.5497 14.03 12.4019 14.1778C12.254 14.3257 12.0535 14.4087 11.8444 14.4087C11.6354 14.4087 11.4349 14.3257 11.287 14.1778C11.1392 14.03 11.0561 13.8295 11.0561 13.6204V6.21802C11.0561 6.00896 11.1392 5.80845 11.287 5.66062C11.4349 5.51278 11.6354 5.42973 11.8444 5.42973ZM12.6113 17.938C12.4079 18.1413 12.1321 18.2556 11.8444 18.2556C11.5568 18.2556 11.281 18.1413 11.0776 17.938C10.8743 17.7346 10.76 17.4588 10.76 17.1712C10.76 16.8836 10.8743 16.6078 11.0776 16.4044C11.281 16.2011 11.5568 16.0868 11.8444 16.0868C12.1321 16.0868 12.4079 16.2011 12.6113 16.4044C12.8146 16.6078 12.9289 16.8836 12.9289 17.1712C12.9289 17.4588 12.8146 17.7346 12.6113 17.938Z" fill="black" stroke="#535353" stroke-width="0.2"/>
</svg>
