<svg width="25" height="25" viewBox="0 0 25 25" fill="none" xmlns="http://www.w3.org/2000/svg">
<g id="Calque_1" clip-path="url(#clip0_955_637)">
<path id="Vector" d="M12.3076 0.0152312C11.8609 0.0881317 11.6813 0.501234 11.6424 0.909477C11.6036 1.31772 11.5939 2.56675 11.7687 2.91667C12.094 3.55333 13.1573 3.44155 13.2932 2.77087C13.3515 2.48899 13.3515 0.894897 13.3029 0.603295C13.2301 0.156172 12.7203 -0.0528092 12.3028 0.0152312H12.3076ZM3.99531 3.44641C3.44666 3.55819 3.28158 4.29692 3.5729 4.72946C3.69428 4.90928 4.80129 6.01737 4.98094 6.12915C5.77721 6.63459 6.65117 5.73549 6.11223 4.9433C5.98599 4.75862 4.91782 3.68942 4.73332 3.56305C4.51483 3.41725 4.2575 3.38809 3.99531 3.44155V3.44641ZM20.5179 3.44641C20.4111 3.47071 20.3043 3.54847 20.2169 3.61651C20.0276 3.76232 18.8866 4.90442 18.804 5.0648C18.4059 5.83269 19.2993 6.63459 20.0567 6.10971C20.2558 5.97363 21.4307 4.76834 21.4987 4.59338C21.7706 3.91298 21.2268 3.30061 20.5131 3.45127L20.5179 3.44641ZM16.6968 18.6292C23.5137 13.9878 18.8283 3.31033 10.7442 5.20574C4.46628 6.67833 2.91743 15.0862 8.31169 18.6243C8.21458 19.849 8.77294 21.0786 9.97706 21.482C9.97706 22.3617 9.9285 23.149 10.4383 23.9071C11.3948 25.3214 13.4195 25.3652 14.4731 24.0189C15.1043 23.217 14.944 22.4832 14.9974 21.5257C16.2356 21.0251 16.7502 19.9268 16.6968 18.6243V18.6292ZM0.776242 11.6647C-0.296782 11.8202 -0.204531 13.2297 0.708267 13.3171C1.13068 13.356 2.3348 13.3706 2.73293 13.3123C3.45152 13.2005 3.59232 12.0876 2.8883 11.7619C2.54843 11.6064 1.17923 11.6064 0.776242 11.6647ZM22.3921 11.6647C21.4502 11.8008 21.421 13.0887 22.193 13.2928C22.4504 13.3609 24.106 13.356 24.3925 13.3074C25.1305 13.1713 25.2324 12.0487 24.5187 11.7473C24.1837 11.6064 22.7854 11.6113 22.3921 11.6696V11.6647ZM5.29654 18.7361C5.16059 18.7555 5.05377 18.8236 4.94695 18.9062C4.76245 19.0423 3.54377 20.2767 3.46608 20.4371C3.09223 21.2098 3.97104 21.9874 4.73818 21.4528C4.92753 21.3167 6.0831 20.1552 6.17535 19.9754C6.50551 19.3387 6.00541 18.6243 5.30139 18.7361H5.29654ZM19.4303 18.7312C18.8526 18.8138 18.5467 19.4797 18.8283 19.9851C18.8914 20.0969 20.2412 21.448 20.3626 21.516C21.1151 21.9583 21.9551 21.1078 21.5181 20.3593C21.4453 20.2378 20.1392 18.9208 20.0178 18.8479C19.8576 18.7507 19.6197 18.7021 19.4352 18.7264L19.4303 18.7312Z" fill="white"/>
<path id="Vector_2" d="M16.6974 18.6285C16.7508 19.9261 16.2362 21.0294 14.9981 21.53C14.9446 22.4874 15.1049 23.2164 14.4737 24.0231C13.4201 25.3694 11.3954 25.3256 10.4389 23.9114C9.92911 23.1532 9.97281 22.3659 9.97767 21.4862C8.76869 21.0828 8.21519 19.8581 8.3123 18.6285C2.91805 15.0904 4.46689 6.6777 10.7448 5.20997C18.8338 3.31455 23.5143 13.992 16.6974 18.6334V18.6285ZM12.1577 6.67284C7.03049 6.98388 4.75335 13.3845 8.58419 16.8254C8.89979 17.1122 9.76889 17.5885 9.91455 17.8898C10.235 18.5556 9.52612 19.8921 10.8468 20.0233C11.6236 20.1011 13.391 20.1011 14.1629 20.0185C15.503 19.8727 14.6728 18.5313 15.1292 17.8169C15.2942 17.5593 15.8672 17.2726 16.1391 17.0636C20.5622 13.6032 17.8093 6.33749 12.1577 6.6777V6.67284ZM13.3133 21.6855H11.6527V22.5943C11.6527 22.9588 12.114 23.3282 12.4636 23.3427C12.7549 23.3573 13.3133 23.0414 13.3133 22.7498V21.6855Z" fill="black"/>
<path id="Vector_3" d="M19.431 18.7306C19.6155 18.7063 19.8534 18.7549 20.0136 18.8521C20.135 18.9298 21.4411 20.242 21.5139 20.3635C21.9509 21.112 21.1109 21.9576 20.3583 21.5202C20.2369 21.4522 18.8872 20.1011 18.824 19.9893C18.5424 19.4839 18.8483 18.818 19.4261 18.7354L19.431 18.7306Z" fill="black"/>
<path id="Vector_4" d="M5.29714 18.7354C6.00116 18.6236 6.50126 19.338 6.1711 19.9747C6.07885 20.1545 4.92814 21.3161 4.73393 21.4522C3.96679 21.9916 3.08798 21.2091 3.46184 20.4364C3.53952 20.276 4.7582 19.0416 4.94271 18.9055C5.04952 18.8229 5.1612 18.7597 5.29229 18.7354H5.29714Z" fill="black"/>
<path id="Vector_5" d="M22.3927 11.6641C22.786 11.6058 24.1843 11.6058 24.5193 11.7419C25.233 12.0383 25.1311 13.1658 24.3931 13.3019C24.1115 13.3554 22.451 13.3554 22.1936 13.2873C21.4216 13.0832 21.4459 11.8002 22.3927 11.6592V11.6641Z" fill="black"/>
<path id="Vector_6" d="M0.776837 11.6641C1.17983 11.6058 2.54903 11.6009 2.8889 11.7613C3.59292 12.0869 3.45211 13.1999 2.73353 13.3117C2.33539 13.3748 1.13127 13.3603 0.708863 13.3165C-0.203936 13.229 -0.296187 11.8196 0.776837 11.6641Z" fill="black"/>
<path id="Vector_7" d="M12.3082 0.0145598C12.7209 -0.0534806 13.2307 0.155501 13.3084 0.602624C13.357 0.894226 13.357 2.49318 13.2987 2.7702C13.1627 3.44088 12.1043 3.55266 11.7741 2.916C11.5945 2.56608 11.6091 1.34135 11.6479 0.908806C11.6867 0.476263 11.8664 0.0874603 12.3131 0.0145598H12.3082Z" fill="black"/>
<path id="Vector_8" d="M3.99592 3.44579C4.25811 3.39233 4.51544 3.42149 4.73393 3.56729C4.91843 3.68879 5.98174 4.758 6.11284 4.94754C6.65178 5.73487 5.77782 6.63883 4.98155 6.13339C4.80676 6.02161 3.69489 4.91352 3.57351 4.7337C3.28219 4.30116 3.45213 3.56243 3.99592 3.45065V3.44579Z" fill="black"/>
<path id="Vector_9" d="M20.5186 3.44574C21.2371 3.29508 21.7761 3.9123 21.5042 4.58785C21.4314 4.76767 20.2564 5.97296 20.0622 6.10418C19.2999 6.6242 18.4113 5.82716 18.8095 5.05927C18.892 4.89889 20.033 3.75678 20.2224 3.61098C20.3098 3.5478 20.4166 3.46518 20.5234 3.44088L20.5186 3.44574Z" fill="black"/>
<path id="Vector_10" d="M12.1577 6.67281C17.8141 6.32775 20.5623 13.5984 16.1391 17.0587C15.8672 17.2725 15.2894 17.5593 15.1292 17.812C14.6728 18.5264 15.503 19.8678 14.1629 20.0136C13.391 20.0962 11.6236 20.0962 10.8468 20.0185C9.52613 19.8824 10.235 18.5507 9.91455 17.8849C9.77375 17.5884 8.90465 17.1073 8.5842 16.8206C4.75821 13.3797 7.0305 6.97899 12.1577 6.66795V6.67281Z" fill="white"/>
<path id="Vector_11" d="M13.3133 21.6854V22.7498C13.3133 23.0414 12.7549 23.3573 12.4636 23.3427C12.1091 23.3233 11.6527 22.9588 11.6527 22.5943V21.6854H13.3133Z" fill="white"/>
</g>
<defs>
<clipPath id="clip0_955_637">
<rect width="25" height="25" fill="white"/>
</clipPath>
</defs>
</svg>
