<svg width="23" height="24" viewBox="0 0 23 24" fill="none" xmlns="http://www.w3.org/2000/svg">
<g id="Group 482616">
<g id="Group 482604">
<path id="Vector" d="M12.962 1.96453L12.8967 1.8046L12.7466 1.71908C12.6168 1.64509 12.4762 1.61665 12.3734 1.60347C12.2622 1.58921 12.1473 1.58723 12.0416 1.59142C11.8354 1.59959 11.6131 1.6336 11.4498 1.68352L11.4486 1.68389C11.158 1.77354 10.9456 2.00435 10.7969 2.20743C10.6371 2.42591 10.4887 2.70054 10.3505 2.99696C10.0734 3.59104 9.80157 4.35056 9.54135 5.10489C9.48535 5.26722 9.42986 5.42938 9.37483 5.59019C9.17034 6.18782 8.97214 6.76703 8.77718 7.26895C8.65396 7.58619 8.53621 7.86141 8.42409 8.08227C8.30909 8.30877 8.21607 8.44542 8.15078 8.51326C7.97388 8.68982 7.64385 8.88841 7.16893 9.1032C6.70398 9.31347 6.15165 9.5172 5.57233 9.72227C5.42832 9.77325 5.28235 9.82441 5.13598 9.8757C4.70146 10.028 4.26354 10.1815 3.86377 10.3348C3.33381 10.5382 2.82978 10.7563 2.45827 10.9958C2.02358 11.2753 1.69621 11.7126 1.61098 12.2083C1.52092 12.732 1.71402 13.2647 2.21567 13.6315L2.26044 13.6643L2.31129 13.6864L8.24455 16.2688C8.60858 17.0393 8.89718 17.8807 9.19063 18.7517C9.20491 18.7941 9.2192 18.8365 9.23352 18.879C9.53033 19.7608 9.83677 20.6711 10.2294 21.5076L10.2295 21.5077C10.2419 21.5341 10.2549 21.562 10.2686 21.5913C10.3485 21.7626 10.4495 21.9792 10.5646 22.1889C10.6975 22.4312 10.8694 22.703 11.0848 22.9123C11.3003 23.1216 11.6223 23.3265 12.0322 23.2788C12.4287 23.2326 12.7549 22.9661 13.0267 22.6065L13.0269 22.6062C13.3468 22.1823 13.6012 21.645 13.8199 21.08C14.0397 20.5119 14.235 19.8843 14.4245 19.2695L14.4386 19.2235C14.808 18.0248 15.1519 16.9087 15.6219 16.1552C15.8346 16.0296 16.2379 15.8488 16.7869 15.6263C17.2143 15.453 17.6987 15.2664 18.1985 15.0739C18.4078 14.9933 18.6197 14.9116 18.8313 14.8295C19.5417 14.5537 20.2471 14.2727 20.7987 14.0177C21.0735 13.8906 21.3228 13.7642 21.5198 13.6429C21.6183 13.5823 21.7131 13.5172 21.7949 13.448C21.8706 13.3839 21.9667 13.2902 22.0317 13.1658L21.5886 12.9342L22.0317 13.1658C22.1931 12.8571 22.224 12.4426 22.1754 12.096C22.1286 11.7625 21.9804 11.306 21.5883 11.0655L21.5577 11.0467L21.5247 11.0325L15.6266 8.4917L12.962 1.96453Z" fill="black" stroke="black"/>
<path id="Vector_2" d="M11.8724 0.875051L11.8071 0.715122L11.657 0.629602C11.5272 0.555613 11.3866 0.527168 11.2838 0.51399C11.1726 0.499733 11.0577 0.497749 10.952 0.501938C10.7458 0.510116 10.5235 0.544119 10.3602 0.594042L10.359 0.594414C10.0684 0.684065 9.85596 0.914869 9.70734 1.11795C9.54745 1.33644 9.39911 1.61106 9.26085 1.90748C8.98376 2.50156 8.71197 3.26108 8.45175 4.01541C8.39575 4.17775 8.34026 4.3399 8.28523 4.50072C8.08074 5.09834 7.88254 5.67755 7.68758 6.17947C7.56436 6.49671 7.44661 6.77194 7.33449 6.99279C7.21949 7.21929 7.12647 7.35594 7.06118 7.42379C6.88428 7.60034 6.55425 7.79893 6.07933 8.01372C5.61438 8.22399 5.06205 8.42772 4.48273 8.63279C4.33872 8.68377 4.19275 8.73493 4.04638 8.78623C3.61186 8.93851 3.17394 9.09199 2.77417 9.24537C2.24422 9.44868 1.74018 9.6668 1.36867 9.90636C0.933985 10.1859 0.606607 10.6231 0.521376 11.1188C0.431325 11.6425 0.624421 12.1752 1.12607 12.5421L1.17084 12.5748L1.22169 12.5969L7.15495 15.1793C7.51898 15.9499 7.80758 16.7912 8.10103 17.6622C8.11531 17.7046 8.1296 17.747 8.14392 17.7896C8.44073 18.6713 8.74717 19.5816 9.13984 20.4181L9.13989 20.4182C9.15227 20.4446 9.16531 20.4725 9.17897 20.5018C9.25887 20.6731 9.35992 20.8897 9.47499 21.0994C9.60793 21.3417 9.77975 21.6135 9.99521 21.8228C10.2107 22.0321 10.5327 22.2371 10.9426 22.1893C11.3391 22.1432 11.6653 21.8766 11.9371 21.517L11.9373 21.5167C12.2572 21.0928 12.5116 20.5555 12.7303 19.9905C12.9501 19.4225 13.1454 18.7948 13.3349 18.18L13.349 18.134C13.7184 16.9353 14.0623 15.8192 14.5323 15.0657C14.745 14.9402 15.1483 14.7594 15.6973 14.5368C16.1247 14.3635 16.6091 14.1769 17.1089 13.9844C17.3182 13.9038 17.5301 13.8221 17.7417 13.74C18.4521 13.4643 19.1575 13.1832 19.7091 12.9282C19.9839 12.8011 20.2332 12.6748 20.4302 12.5535C20.5287 12.4928 20.6235 12.4277 20.7053 12.3585C20.781 12.2944 20.8771 12.2007 20.9421 12.0764L20.499 11.8447L20.9421 12.0764C21.1035 11.7677 21.1344 11.3531 21.0858 11.0065C21.039 10.673 20.8908 10.2165 20.4987 9.97602L20.4681 9.95724L20.4351 9.94304L14.537 7.40222L11.8724 0.875051Z" fill="white" stroke="black"/>
</g>
</g>
</svg>
