<svg width="152" height="156" viewBox="0 0 152 156" fill="none" xmlns="http://www.w3.org/2000/svg">
<g clip-path="url(#clip0_658_1215)">
<path d="M33.9948 2.23338C35.6662 3.40307 31.7178 9.99405 31.1074 11.6539C29.1599 16.9442 27.2269 22.8945 26.0254 28.4032C25.3133 31.6647 22.4792 47.7733 24.3201 49.5351C24.8143 50.0059 26.0109 50.0981 26.7085 50.5398C27.8712 51.2824 29.7654 53.6266 29.9931 53.68C31.1268 53.9275 32.2459 52.8743 33.3262 52.7044C45.2488 50.797 42.5843 72.0212 43.839 79.0053C44.2169 81.1068 46.7264 85.9214 46.6344 86.8727C46.4018 89.3722 44.3429 88.7025 43.03 87.0911C38.292 81.2767 40.5302 68.5801 38.7377 61.2999C36.3735 51.724 28.6657 58.349 26.5293 64.3333C24.0924 71.1572 25.2987 80.0245 27.9826 86.6398C31.3448 94.9295 41.3828 107.214 51.4451 101.909C58.8331 98.0114 54.2792 91.6971 53.9013 85.4264C53.7753 83.354 54.4729 80.1216 54.284 78.7432C54.0805 77.2435 51.9295 73.9091 51.5856 71.7299C50.0934 62.2657 57.0357 59.1158 64.7241 63.4208L81.002 74.3217C79.6794 77.36 77.5042 76.3747 75.2369 75.2147C71.0851 73.0841 67.4371 68.6917 62.9413 66.6629C51.1883 61.363 54.7588 73.9092 59.4484 79.3984C65.7851 86.8193 85.7546 99.8994 92.7502 86.9892C99.0046 75.4428 85.5899 59.1935 84.4223 46.1134C83.4389 35.0815 87.3145 17.6625 91.9411 7.55277C92.8955 5.47064 93.6464 2.51488 96.2819 2.63622C100.41 2.82551 95.5261 10.4794 94.7074 12.7557C89.9839 25.9037 87.0142 40.0321 90.8511 53.7479C94.1745 65.634 104.75 77.5056 95.7684 89.5276C92.2609 94.2208 87.4405 96.6621 81.5107 96.3564C82.2665 99.516 84.0493 102.656 85.958 105.243C89.1264 109.533 95.8653 113.572 97.1636 118.77C98.7769 125.259 92.9973 129.253 87.0965 129.389C73.7593 129.69 61.6478 113.14 57.7673 101.695C49.1681 111.47 36.5527 106.592 29.9156 97.3368C20.1247 107.442 12.3588 93.8229 11.0459 84.6838C9.03538 83.9461 7.48026 84.2616 5.68291 82.7764C0.586383 78.5588 -0.338936 69.211 0.0970784 63.0957C0.649364 55.3398 5.60055 38.5954 15.3818 38.7022C17.3972 38.7216 18.7197 39.9835 20.459 40.5465C21.2196 30.3203 23.8986 18.9487 27.9778 9.49415C28.6463 7.94104 31.6742 0.607479 33.9948 2.23824V2.23338ZM10.2853 80.3448V68.9392C10.2853 66.1388 13.2066 57.4996 14.7326 54.9516C16.7141 51.6415 18.744 51.758 18.5453 47.0841C18.2498 40.2116 12.32 42.6626 9.39388 46.6959C4.22468 53.8159 1.39543 70.4584 6.6809 77.889C7.11691 78.5005 9.51499 81.1408 10.2853 80.3448ZM21.8009 53.2626C19.3883 53.8595 17.0823 58.1257 16.2199 60.3195C13.0855 68.2986 13.1872 81.597 16.3556 89.5567C17.746 93.0463 20.2797 98.1182 24.8046 96.5748C29.6201 94.9343 25.6766 90.9496 24.5914 88.1006C20.4783 77.2823 19.6305 65.4205 27.193 55.9028C26.1029 54.3158 23.763 52.7724 21.8009 53.2626ZM77.0294 95.5022C71.4775 93.4928 66.163 90.2119 61.6333 86.4165C60.9986 85.8875 57.8981 82.1649 57.2828 82.7716C58.2663 92.9832 61.1633 102.71 66.8606 111.271C71.3128 117.959 81.7675 128.622 90.6573 124.701C99.1499 120.954 87.6537 113.178 84.8825 110.203C81.0505 106.092 78.7638 100.773 77.0343 95.4973L77.0294 95.5022Z" fill="black" stroke="black"/>
<path d="M104.605 134.858C104.939 135.169 105.467 136.081 105.588 136.528C106.17 138.644 106.053 147.235 105.748 149.53C105.409 152.088 101.16 154.039 98.8445 154.748C93.714 156.311 79.2577 157.704 78.1386 150.448C77.8722 148.725 77.5524 141.119 77.7123 139.304C78.0659 135.285 81.9077 133.868 85.3716 133.004C90.3325 131.762 100.613 131.155 104.605 134.858ZM89.1456 136.295C87.9441 136.441 82.2275 137.814 81.9852 138.833C81.3651 141.478 92.6676 141.119 94.276 140.949C95.8844 140.78 104.392 138.935 100.666 137.096C97.9773 135.766 92.1831 135.926 89.1456 136.29V136.295ZM102.333 142.954C95.3467 144.997 88.6563 145.633 81.5056 143.925C81.898 146.007 81.2779 150.375 83.1479 151.253C87.4936 153.292 98.8106 152.234 102.241 148.443L102.333 142.959V142.954Z" fill="black"/>
<path d="M102.333 142.954L102.241 148.438C98.8154 152.229 87.4935 153.287 83.1479 151.249C81.2731 150.37 81.898 146.002 81.5056 143.92C88.6563 145.633 95.3467 144.992 102.333 142.949V142.954Z" fill="#5FFF8F"/>
<path d="M89.1455 136.295C92.1831 135.931 97.9821 135.771 100.666 137.101C104.391 138.94 95.9473 140.78 94.2759 140.954C92.6045 141.129 81.3651 141.483 81.9852 138.838C82.2226 137.814 87.9392 136.441 89.1455 136.3V136.295Z" fill="#5FFF8F"/>
<g clip-path="url(#clip1_658_1215)">
<path d="M75.845 94.4514L76.6733 95.1725C76.7753 95.2612 76.8534 95.3925 76.8996 95.4726C76.9588 95.5752 77.0252 95.7043 77.0967 95.8513C77.2402 96.1465 77.4174 96.5417 77.6177 97.0032C77.8915 97.6336 78.2145 98.4014 78.5622 99.2278C78.7235 99.6112 78.8901 100.007 79.0595 100.408C79.5959 101.677 80.1627 102.997 80.6899 104.141C81.2215 105.294 81.6986 106.235 82.0552 106.764C82.3135 107.147 82.7564 107.647 83.3453 108.252C83.9294 108.851 84.6349 109.531 85.4044 110.27L85.5212 110.382C87.0267 111.828 88.7535 113.486 90.2062 115.148C91.6836 116.838 92.94 118.599 93.3532 120.197C93.5635 121.01 93.5654 121.819 93.2299 122.558C92.8939 123.298 92.2512 123.898 91.3078 124.356C87.1905 126.355 82.9254 125.586 78.9317 123.194C74.9487 120.808 71.186 116.784 67.9803 112.151C64.7709 107.512 62.0975 102.231 60.3058 97.2942C58.5194 92.3719 57.5888 87.7352 57.9218 84.4023L58.0118 83.5014L58.7264 84.0574C59.6817 84.8008 60.6186 85.5584 61.5522 86.3134C63.8875 88.2018 66.2026 90.0739 68.7347 91.6661L75.845 94.4514ZM75.845 94.4514V94.7313M75.845 94.4514V94.7313M75.845 94.7313C75.6949 94.6658 75.5285 94.5959 75.3499 94.5225C74.909 94.3415 74.3777 94.1329 73.8091 93.9098C73.5829 93.821 73.3508 93.7299 73.1162 93.6373C71.4414 92.9764 69.6574 92.2457 68.7348 91.6662L75.845 94.7313Z" fill="#FFD2D2" stroke="black"/>
<path d="M26.2553 54.1574L26.2256 54.5688C26.1168 56.0803 25.4354 57.2841 24.7109 58.3836C24.5615 58.6103 24.4114 58.8314 24.2631 59.0497C23.6754 59.9151 23.1174 60.7369 22.7531 61.6926L22.7531 61.6927C18.4638 72.9392 21.8935 83.0923 26.257 93.7982L26.295 93.8915L26.2939 93.9922C26.2842 94.9289 25.9314 95.6259 25.3008 96.0392C24.6999 96.433 23.9303 96.5131 23.1802 96.4284C21.6837 96.2595 19.9689 95.4022 18.9822 94.328C17.1961 92.387 15.897 89.4448 15.0375 86.0537C14.1755 82.6527 13.7439 78.753 13.7259 74.852C13.708 70.9508 14.1036 67.0327 14.9052 63.5939C15.7045 60.1646 16.9174 57.1685 18.5634 55.1491L26.2553 54.1574ZM26.2553 54.1574L25.857 54.0501M26.2553 54.1574L25.857 54.0501M25.857 54.0501C25.3787 53.9212 24.9586 53.7912 24.5581 53.6672M25.857 54.0501L24.5581 53.6672M24.5581 53.6672C24.3117 53.5909 24.0728 53.5169 23.8323 53.4469M24.5581 53.6672L23.8323 53.4469M23.8323 53.4469C23.2258 53.2705 22.64 53.1296 22.0614 53.1187M23.8323 53.4469L22.0614 53.1187M22.0614 53.1187C20.8337 53.0956 19.779 53.6569 18.5635 55.149L22.0614 53.1187Z" fill="#FFD2D2" stroke="black"/>
<path d="M6.91837 78.1747L6.91826 78.1745C4.01935 74.5237 3.19241 68.8314 3.59704 63.2176C4.00279 57.5881 5.6559 51.9045 7.86282 48.1835L6.91837 78.1747ZM6.91837 78.1747C7.00379 78.2821 7.05221 78.4036 7.10506 78.5726C7.11046 78.5899 7.1163 78.6094 7.12269 78.6308C7.16619 78.7763 7.23516 79.0071 7.3649 79.1915C7.552 79.4574 7.832 79.6089 8.20019 79.6479C8.52366 79.6822 8.93044 79.6325 9.44689 79.5105H9.83261L9.88686 79.0718L11.496 66.0614L11.4998 66.0308V66C11.4998 64.7632 11.8929 63.1714 12.5134 61.3908C13.1305 59.6199 13.9554 57.709 14.7863 55.8451C14.9716 55.4294 15.1573 55.0157 15.3411 54.6065C15.9776 53.189 16.59 51.8252 17.0745 50.6206C17.3872 49.843 17.6514 49.1205 17.8366 48.4825C18.0197 47.8516 18.1358 47.2704 18.1301 46.786L18.13 46.7857M6.91837 78.1747L18.13 46.7857M18.13 46.7857C18.1058 44.8621 17.6444 43.5713 16.7383 42.9307M18.13 46.7857L16.7383 42.9307M16.7383 42.9307C15.8201 42.2817 14.6526 42.4416 13.5784 42.9019M16.7383 42.9307L13.5784 42.9019M13.5784 42.9019C12.4859 43.37 11.3497 44.2028 10.3506 45.1475M13.5784 42.9019L10.3506 45.1475M10.3506 45.1475C9.34926 46.0943 8.45706 47.1806 7.86293 48.1833L10.3506 45.1475Z" fill="#FFD2D2" stroke="black"/>
</g>
</g>
<g clip-path="url(#clip2_658_1215)">
<mask id="path-8-outside-1_658_1215" maskUnits="userSpaceOnUse" x="22" y="1" width="74" height="103" fill="black">
<rect fill="white" x="22" y="1" width="74" height="103"/>
<path d="M34.842 2C34.9308 7.26642 31.4906 11.6301 29.9231 16.4771C26.6689 26.5544 24.6991 36.9789 24 47.5784L29.4626 53.0421C31.3325 53.8393 33.2273 51.6144 35.7963 52.0255C45.4759 53.5726 43.029 71.3357 44.0832 78.0687C44.713 82.0824 48.314 85.585 46.5634 89.5682C43.1455 89.9987 41.184 86.61 40.2019 83.7601C37.2473 75.1855 40.0688 66.2803 36.5399 58.0891C26.0558 56.578 25.0681 70.7135 25.9281 78.1854C27.1128 88.4904 40.1298 109.92 51.9178 100.787C57.4054 96.5373 53.4909 91.8458 52.8888 86.4016C52.592 83.7129 53.624 80.5602 53.2994 78.6242C52.4699 73.7133 47.3985 70.3552 52.1203 63.9721C58.9479 54.7392 75.1609 70.4857 81.6639 74.6522L80.2379 76.9771C72.3589 79.0575 64.3495 63.4972 55.7075 67.1192C53.8904 78.8076 72.2285 91.7458 82.3159 92.2264C105.448 93.3291 85.3648 58.8557 83.9499 49.8894C82.4574 40.4482 84.1386 29.9265 86.5051 20.7602C87.4511 17.091 91.5071 2.97773 95 2.1"/>
</mask>
<path d="M34.842 2C34.9308 7.26642 31.4906 11.6301 29.9231 16.4771C26.6689 26.5544 24.6991 36.9789 24 47.5784L29.4626 53.0421C31.3325 53.8393 33.2273 51.6144 35.7963 52.0255C45.4759 53.5726 43.029 71.3357 44.0832 78.0687C44.713 82.0824 48.314 85.585 46.5634 89.5682C43.1455 89.9987 41.184 86.61 40.2019 83.7601C37.2473 75.1855 40.0688 66.2803 36.5399 58.0891C26.0558 56.578 25.0681 70.7135 25.9281 78.1854C27.1128 88.4904 40.1298 109.92 51.9178 100.787C57.4054 96.5373 53.4909 91.8458 52.8888 86.4016C52.592 83.7129 53.624 80.5602 53.2994 78.6242C52.4699 73.7133 47.3985 70.3552 52.1203 63.9721C58.9479 54.7392 75.1609 70.4857 81.6639 74.6522L80.2379 76.9771C72.3589 79.0575 64.3495 63.4972 55.7075 67.1192C53.8904 78.8076 72.2285 91.7458 82.3159 92.2264C105.448 93.3291 85.3648 58.8557 83.9499 49.8894C82.4574 40.4482 84.1386 29.9265 86.5051 20.7602C87.4511 17.091 91.5071 2.97773 95 2.1" fill="#FFD2D2"/>
<path d="M29.9231 16.4771L28.9717 16.1694L28.9715 16.1698L29.9231 16.4771ZM24 47.5784L23.0022 47.5126L22.9723 47.9649L23.2928 48.2855L24 47.5784ZM29.4626 53.0421L28.7554 53.7491L28.8923 53.886L29.0704 53.962L29.4626 53.0421ZM35.7963 52.0255L35.6383 53.0129L35.6385 53.0129L35.7963 52.0255ZM44.0832 78.0687L43.0952 78.2234L43.0953 78.2237L44.0832 78.0687ZM46.5634 89.5682L46.6884 90.5603L47.2508 90.4895L47.4789 89.9705L46.5634 89.5682ZM40.2019 83.7601L39.2565 84.0859L39.2565 84.0859L40.2019 83.7601ZM36.5399 58.0891L37.4583 57.6934L37.2367 57.1792L36.6825 57.0993L36.5399 58.0891ZM25.9281 78.1854L26.9216 78.0712L26.9216 78.071L25.9281 78.1854ZM51.9178 100.787L51.3055 99.9965L51.3054 99.9966L51.9178 100.787ZM52.8888 86.4016L51.8949 86.5114L51.8949 86.5116L52.8888 86.4016ZM53.2994 78.6242L54.2857 78.4589L54.2855 78.4577L53.2994 78.6242ZM52.1203 63.9721L52.9243 64.5668L52.9244 64.5667L52.1203 63.9721ZM81.6639 74.6522L82.5163 75.175L83.029 74.3392L82.2034 73.8102L81.6639 74.6522ZM80.2379 76.9771L80.4932 77.9439L80.8808 77.8416L81.0904 77.4999L80.2379 76.9771ZM55.7075 67.1192L55.321 66.1969L54.8053 66.4131L54.7194 66.9656L55.7075 67.1192ZM82.3159 92.2264L82.3635 91.2275H82.3635L82.3159 92.2264ZM83.9499 49.8894L84.9377 49.7336L84.9377 49.7333L83.9499 49.8894ZM86.5051 20.7602L87.4733 21.0102L87.4734 21.0099L86.5051 20.7602ZM33.8421 2.01685C33.8828 4.42801 33.1176 6.67324 32.0896 8.99029C31.0904 11.2424 29.776 13.6821 28.9717 16.1694L30.8746 16.7848C31.6377 14.4251 32.8272 12.2594 33.9177 9.80138C34.9795 7.40823 35.89 4.83841 35.8418 1.98315L33.8421 2.01685ZM28.9715 16.1698C25.6915 26.327 23.7066 36.8328 23.0022 47.5126L24.9978 47.6443C25.6917 37.1251 27.6463 26.7818 30.8748 16.7844L28.9715 16.1698ZM23.2928 48.2855L28.7554 53.7491L30.1698 52.335L24.7072 46.8714L23.2928 48.2855ZM29.0704 53.962C30.4454 54.5481 31.7905 53.9806 32.7338 53.609C33.8032 53.1877 34.6658 52.8573 35.6383 53.0129L35.9544 51.038C34.3579 50.7826 32.9886 51.359 32.0008 51.7481C30.887 52.1869 30.3497 52.3332 29.8548 52.1222L29.0704 53.962ZM35.6385 53.0129C37.7034 53.343 39.1311 54.5183 40.1605 56.3007C41.2119 58.121 41.8244 60.5444 42.183 63.2345C42.5401 65.9131 42.635 68.7636 42.7052 71.4031C42.7743 74.0028 42.819 76.4594 43.0952 78.2234L45.0712 77.914C44.8202 76.3115 44.7755 74.0228 44.7044 71.3499C44.6344 68.7168 44.5384 65.7674 44.1655 62.9702C43.7941 60.1846 43.1376 57.4563 41.8924 55.3004C40.6254 53.1067 38.7291 51.4815 35.9542 51.038L35.6385 53.0129ZM43.0953 78.2237C43.271 79.3438 43.6494 80.4011 44.0598 81.384C44.2652 81.8758 44.4845 82.3624 44.6936 82.8294C44.9049 83.3014 45.1067 83.7554 45.2892 84.2056C46.0226 86.0149 46.3546 87.558 45.6479 89.1658L47.4789 89.9705C48.5229 87.5952 47.9296 85.3954 47.1427 83.4542C46.9451 82.9668 46.7296 82.4826 46.519 82.0122C46.3061 81.5367 46.0988 81.0765 45.9054 80.6133C45.5182 79.6861 45.2102 78.8005 45.0711 77.9137L43.0953 78.2237ZM46.4384 88.576C45.1412 88.7394 44.099 88.2048 43.2107 87.2233C42.2999 86.2168 41.6184 84.8011 41.1474 83.4343L39.2565 84.0859C39.7676 85.569 40.5579 87.2726 41.7278 88.5653C42.9202 89.883 44.5677 90.8275 46.6884 90.5603L46.4384 88.576ZM41.1474 83.4343C39.7303 79.3217 39.692 75.1183 39.586 70.7565C39.4812 66.4477 39.309 61.9893 37.4583 57.6934L35.6215 58.4847C37.2996 62.3801 37.4811 66.4699 37.5865 70.8051C37.6907 75.0874 37.719 79.6239 39.2565 84.0859L41.1474 83.4343ZM36.6825 57.0993C33.8172 56.6863 31.5071 57.3403 29.7173 58.7568C27.9586 60.1486 26.7931 62.204 26.0328 64.4477C24.5166 68.9225 24.4962 74.49 24.9347 78.2997L26.9216 78.071C26.5001 74.4088 26.5435 69.1726 27.9271 65.0895C28.6167 63.0543 29.6102 61.3921 30.9584 60.325C32.2756 59.2826 34.0204 58.7363 36.3972 59.0788L36.6825 57.0993ZM24.9347 78.2996C25.5539 83.6864 29.2083 91.8059 34.1982 97.4386C36.6988 100.261 39.6158 102.553 42.758 103.514C45.9611 104.493 49.3231 104.062 52.5303 101.578L51.3054 99.9966C48.6185 102.078 45.9329 102.393 43.3429 101.601C40.692 100.791 38.0705 98.7936 35.6952 96.1124C30.9335 90.7372 27.487 82.9894 26.9216 78.0712L24.9347 78.2996ZM52.5301 101.578C54.0227 100.422 54.9413 99.1824 55.4125 97.8442C55.881 96.5139 55.8742 95.1793 55.6752 93.8898C55.4791 92.6188 55.0812 91.3144 54.7238 90.072C54.3581 88.8008 54.023 87.5596 53.8828 86.2917L51.8949 86.5116C52.0557 87.9658 52.4357 89.3526 52.8018 90.625C53.1761 91.9262 53.5268 93.0811 53.6986 94.1948C53.8676 95.2898 53.8482 96.2652 53.5261 97.1799C53.2067 98.0868 52.5567 99.0275 51.3055 99.9965L52.5301 101.578ZM53.8828 86.2919C53.7499 85.0879 53.9129 83.7479 54.0959 82.3615C54.2676 81.0606 54.4787 79.6102 54.2857 78.4589L52.3132 78.7896C52.4448 79.5743 52.3021 80.6682 52.1131 82.0998C51.9355 83.4459 51.7309 85.0266 51.8949 86.5114L53.8828 86.2919ZM54.2855 78.4577C54.0545 77.0901 53.5328 75.858 53.0066 74.7361C52.4632 73.5774 51.9407 72.5823 51.5728 71.5224C51.2162 70.4946 51.0386 69.4866 51.1867 68.3987C51.335 67.31 51.8212 66.058 52.9243 64.5668L51.3164 63.3774C50.0586 65.0778 49.408 66.6392 49.205 68.1288C49.002 69.6193 49.2588 70.9545 49.6834 72.1781C50.0968 73.3694 50.7026 74.5337 51.1959 75.5853C51.7063 76.6737 52.1296 77.7029 52.3134 78.7908L54.2855 78.4577ZM52.9244 64.5667C54.3889 62.5862 56.3148 61.9396 58.6087 62.1554C60.974 62.378 63.6933 63.5244 66.5137 65.1533C69.3172 66.7725 72.1259 68.8115 74.662 70.7255C77.1661 72.6155 79.4557 74.425 81.1244 75.4942L82.2034 73.8102C80.6207 72.7961 78.445 71.0749 75.8668 69.1291C73.3206 67.2074 70.4301 65.1056 67.514 63.4214C64.6148 61.747 61.5943 60.4276 58.7961 60.1642C55.9266 59.8942 53.2656 60.7416 51.3163 63.3776L52.9244 64.5667ZM80.8115 74.1293L79.3855 76.4542L81.0904 77.4999L82.5163 75.175L80.8115 74.1293ZM79.9826 76.0102C78.3771 76.4341 76.6811 75.9878 74.7826 74.9313C72.8748 73.8696 70.9421 72.2971 68.8744 70.682C66.8499 69.1005 64.7002 67.4827 62.4801 66.5083C60.2283 65.52 57.811 65.1533 55.321 66.1969L56.0941 68.0415C57.925 67.2741 59.7497 67.4941 61.6764 68.3397C63.6348 69.1992 65.6003 70.6623 67.6432 72.2581C69.6431 73.8203 71.7301 75.5214 73.8101 76.6789C75.8995 77.8417 78.1592 78.5602 80.4932 77.9439L79.9826 76.0102ZM54.7194 66.9656C54.2203 70.1761 55.1155 73.4054 56.8097 76.3983C58.5041 79.3917 61.0288 82.2074 63.9014 84.639C69.6116 89.4724 76.9222 92.9706 82.2683 93.2252L82.3635 91.2275C77.6222 91.0016 70.72 87.7904 65.1936 83.1124C62.4479 80.7884 60.0983 78.1479 58.5502 75.413C57.0018 72.6776 56.2862 69.9065 56.6957 67.2728L54.7194 66.9656ZM82.2683 93.2252C85.2715 93.3684 87.6771 92.9403 89.5429 91.9809C91.4295 91.0107 92.6933 89.5329 93.4513 87.7238C94.9327 84.1889 94.4691 79.4245 93.3104 74.6002C92.1399 69.7269 90.1962 64.5537 88.4779 60.0835C87.6144 57.8371 86.8108 55.7763 86.177 53.9932C85.5383 52.1965 85.0988 50.7541 84.9377 49.7336L82.9622 50.0453C83.1549 51.2664 83.6525 52.8626 84.2925 54.6631C84.9374 56.4772 85.7542 58.5719 86.6111 60.8011C88.3335 65.2819 90.2301 70.3394 91.3657 75.0673C92.5131 79.8444 92.8215 84.052 91.6068 86.9508C91.0168 88.3587 90.0654 89.4632 88.6283 90.2023C87.1702 90.952 85.1433 91.36 82.3635 91.2275L82.2683 93.2252ZM84.9377 49.7333C83.4772 40.4949 85.1184 30.1318 87.4733 21.0102L85.5368 20.5103C83.1588 29.7212 81.4376 40.4015 82.9622 50.0456L84.9377 49.7333ZM87.4734 21.0099C87.9413 19.1953 89.181 14.7893 90.7313 10.7409C91.508 8.71286 92.3489 6.81129 93.1937 5.37766C93.6166 4.66001 94.0227 4.09047 94.4007 3.68707C94.7911 3.27037 95.0764 3.11188 95.2437 3.06984L94.7563 1.13015C94.0503 1.30755 93.4449 1.7821 92.9412 2.31956C92.4252 2.87031 91.9339 3.57604 91.4706 4.36227C90.543 5.93639 89.6558 7.95704 88.8636 10.0257C87.2762 14.1707 86.0149 18.6559 85.5367 20.5106L87.4734 21.0099Z" fill="black" mask="url(#path-8-outside-1_658_1215)"/>
</g>
<path d="M140.678 102.902L140.617 102.743L140.471 102.654C140.331 102.568 140.175 102.533 140.057 102.517C139.93 102.5 139.798 102.497 139.676 102.502C139.438 102.513 139.182 102.555 138.996 102.616L138.995 102.616C138.676 102.721 138.443 102.991 138.275 103.237C138.094 103.502 137.924 103.837 137.764 104.206C137.442 104.944 137.125 105.892 136.82 106.84C136.755 107.043 136.69 107.246 136.625 107.447C136.385 108.198 136.151 108.93 135.922 109.564C135.776 109.964 135.636 110.315 135.502 110.599C135.365 110.888 135.249 111.074 135.16 111.172C134.939 111.408 134.54 111.663 133.982 111.933C133.434 112.199 132.784 112.456 132.104 112.713C131.935 112.778 131.763 112.842 131.591 112.907C131.082 113.098 130.569 113.29 130.101 113.482C129.48 113.738 128.895 114.009 128.466 114.305C127.971 114.646 127.615 115.168 127.523 115.739C127.428 116.332 127.626 116.948 128.186 117.387L128.231 117.422L128.283 117.446L135.275 120.705C135.714 121.694 136.06 122.773 136.409 123.882C136.425 123.934 136.442 123.987 136.458 124.039C136.807 125.149 137.164 126.285 137.621 127.328L137.622 127.328C137.636 127.362 137.652 127.397 137.668 127.434C137.762 127.65 137.878 127.917 138.011 128.176C138.164 128.476 138.359 128.804 138.6 129.055C138.839 129.303 139.197 129.549 139.657 129.492C140.1 129.437 140.463 129.12 140.77 128.685L140.771 128.684C141.136 128.166 141.429 127.505 141.684 126.801C141.939 126.093 142.167 125.309 142.39 124.536L142.411 124.462C142.844 122.957 143.255 121.528 143.823 120.565C144.075 120.402 144.562 120.168 145.22 119.882C145.721 119.664 146.291 119.43 146.877 119.188C147.122 119.087 147.371 118.984 147.619 118.881C148.452 118.535 149.278 118.182 149.923 117.863C150.244 117.704 150.533 117.547 150.76 117.397C150.874 117.322 150.981 117.243 151.072 117.16C151.158 117.082 151.258 116.977 151.323 116.843L150.873 116.624L151.323 116.843C151.494 116.492 151.531 116.008 151.477 115.593C151.425 115.197 151.263 114.671 150.841 114.394L150.81 114.373L150.776 114.358L143.822 111.15L140.678 102.902Z" fill="white" stroke="black"/>
<path d="M122.84 84.8701L122.781 84.7107L122.637 84.6202C122.523 84.548 122.403 84.5226 122.325 84.5117C122.24 84.4996 122.155 84.4983 122.081 84.5015C121.939 84.5078 121.781 84.5335 121.658 84.5752L121.657 84.5756C121.41 84.6597 121.251 84.8645 121.159 85.0035C121.054 85.1631 120.959 85.3588 120.873 85.5624C120.7 85.9715 120.532 86.4915 120.373 87.0011C120.338 87.1118 120.304 87.2221 120.27 87.3312C120.145 87.7351 120.025 88.1236 119.907 88.4604C119.832 88.6732 119.761 88.8547 119.695 88.9983C119.627 89.147 119.578 89.2224 119.554 89.2504C119.469 89.3432 119.295 89.4637 119.011 89.6054C118.736 89.743 118.406 89.8779 118.051 90.0164C117.965 90.0503 117.877 90.0845 117.788 90.119C117.521 90.2223 117.248 90.3279 117 90.4331C116.674 90.5716 116.348 90.7262 116.101 90.9017C115.796 91.1191 115.573 91.4532 115.515 91.8254C115.454 92.2164 115.582 92.6311 115.943 92.9235L115.989 92.9601L116.041 92.9853L119.608 94.7013C119.816 95.1984 119.985 95.7406 120.158 96.309C120.167 96.3384 120.176 96.3679 120.185 96.3975C120.366 96.9919 120.555 97.6142 120.799 98.1872L120.799 98.1873C120.806 98.2046 120.814 98.2232 120.822 98.2428C120.871 98.3584 120.935 98.5097 121.007 98.656C121.09 98.823 121.204 99.0238 121.353 99.1838C121.498 99.3396 121.757 99.5394 122.114 99.4936C122.45 99.4503 122.691 99.2083 122.862 98.9571L122.863 98.9568C123.07 98.653 123.231 98.2749 123.366 97.8894C123.502 97.5002 123.623 97.0714 123.739 96.6562L123.742 96.6448C123.966 95.8385 124.169 95.1118 124.437 94.6187C124.558 94.5462 124.775 94.4384 125.085 94.2998C125.344 94.1835 125.638 94.0585 125.943 93.9286C126.071 93.8739 126.202 93.8184 126.333 93.7622C126.767 93.5758 127.205 93.3832 127.55 93.2071C127.721 93.1195 127.882 93.0296 128.013 92.9407C128.078 92.8963 128.145 92.8461 128.204 92.7904C128.259 92.7393 128.334 92.659 128.386 92.5497L128.386 92.5497C128.5 92.3085 128.518 92.0008 128.486 91.753C128.457 91.525 128.362 91.1549 128.054 90.9463L128.023 90.925L127.989 90.9087L124.448 89.2227L122.84 84.8701Z" fill="white" stroke="black"/>
<defs>
<clipPath id="clip0_658_1215">
<rect width="106" height="154" fill="white" transform="translate(0 2)"/>
</clipPath>
<clipPath id="clip1_658_1215">
<rect width="89" height="82" fill="white" transform="translate(4 43)"/>
</clipPath>
<clipPath id="clip2_658_1215">
<rect width="73" height="104" fill="white" transform="translate(24)"/>
</clipPath>
</defs>
</svg>
