<svg width="24" height="24" viewBox="0 0 24 24" fill="none" xmlns="http://www.w3.org/2000/svg">
<path d="M22.9035 10.3062L20.7057 7.00092L21.8007 3.1601C21.8697 2.92292 21.8007 2.66278 21.6246 2.48681C21.4485 2.31083 21.1881 2.24197 20.9507 2.31083L17.1294 3.42789L13.8136 1.19378C13.6068 1.05606 13.3388 1.03311 13.1167 1.15553C12.8946 1.27029 12.7491 1.49982 12.7415 1.74466L12.6266 5.7385L9.48686 8.20214C9.28775 8.35516 9.19586 8.60764 9.23415 8.85247C9.27244 9.09731 9.44091 9.30389 9.6783 9.38805L12.6189 10.4439C12.6189 10.4439 12.5806 10.4745 12.5577 10.4898L1.20102 21.9052C0.932993 22.1729 0.932993 22.609 1.20102 22.8768C1.3312 23.0146 1.50734 23.0758 1.68347 23.0758C1.8596 23.0758 2.03573 23.0069 2.16591 22.8768L13.5302 11.4768C13.5762 11.4309 13.6068 11.385 13.6374 11.3314L14.7861 14.4989C14.8321 14.6137 14.901 14.7132 14.9929 14.7973C15.0848 14.8738 15.1996 14.9274 15.3222 14.9427C15.3605 14.9427 15.3911 14.9504 15.4294 14.9504C15.5366 14.9504 15.6361 14.9274 15.728 14.8815C15.8199 14.8356 15.9042 14.7667 15.9654 14.6826L18.4006 11.5227L22.3368 11.385C22.5895 11.3773 22.8116 11.2319 22.9265 11.0101C23.0413 10.7882 23.0183 10.5204 22.8805 10.3138L22.9035 10.3062ZM18.0484 10.1532C17.8416 10.1532 17.6578 10.2603 17.5276 10.4209L15.6515 12.854L14.6023 9.96953C14.5334 9.77825 14.3802 9.62523 14.1888 9.55637L11.3094 8.51583L13.7217 6.62602C13.8825 6.5036 13.9744 6.31233 13.982 6.10575L14.0739 3.03768L16.6164 4.75152C16.7006 4.80507 16.7925 4.84333 16.892 4.85863C16.9916 4.87393 17.0911 4.86628 17.1907 4.84333L20.1313 3.97876L19.289 6.93206C19.2583 7.03153 19.2583 7.13099 19.2736 7.23045C19.289 7.32992 19.3272 7.42173 19.3808 7.50589L21.1039 10.046L18.0407 10.1532H18.0484Z" fill="white" stroke="#D2D7E0" stroke-width="0.4"/>
</svg>
