<svg width="23" height="19" viewBox="0 0 23 19" fill="none" xmlns="http://www.w3.org/2000/svg">
<path d="M0.5 1.05031C0.667582 0.726677 0.949946 0.621033 1.34422 0.621033C7.26468 0.628247 13.1857 0.626186 19.1062 0.626186C19.6962 0.626186 19.9211 0.828198 19.9211 1.36003C19.9211 2.58138 19.9211 3.80324 19.9211 5.02459V5.25649C20.2701 5.25649 20.6041 5.25649 20.9381 5.25649C21.2245 5.25649 21.5109 5.25495 21.7972 5.25649C22.23 5.25907 22.4957 5.49355 22.4986 5.87902C22.5014 6.28408 22.4991 6.68913 22.4991 7.09419C22.4991 10.4887 22.4991 13.8838 22.4991 17.2783C22.4991 17.7802 22.2644 17.9895 21.702 17.9895C19.2175 17.9895 16.7336 17.9895 14.2492 17.9895C13.7183 17.9895 13.4767 17.772 13.4761 17.2953C13.4761 16.763 13.4761 16.2301 13.4761 15.674C13.378 15.674 13.2948 15.674 13.2115 15.674C10.9423 15.674 8.67248 15.6751 6.40324 15.6735C5.88615 15.6735 5.55558 15.2633 5.75472 14.8675C5.87524 14.6274 6.0962 14.5161 6.39004 14.5161C7.36397 14.5171 8.33732 14.5161 9.31124 14.5161C9.38815 14.5161 9.46563 14.5161 9.55458 14.5161V12.2007H9.31297C6.6638 12.2007 4.0152 12.1955 1.3666 12.2058C0.967163 12.2074 0.672747 12.1095 0.501148 11.776V1.05031H0.5ZM18.6218 1.79652H1.80507V11.0288H13.4755V10.7819C13.4755 9.16842 13.4755 7.55439 13.4755 5.94086C13.4755 5.47654 13.7206 5.25649 14.2371 5.25649C15.6185 5.25649 17.0005 5.25649 18.3819 5.25649H18.6212V1.79652H18.6218ZM21.2004 6.42786H14.7818V16.8217H21.2004V6.42786ZM13.4635 14.5078V12.2146H10.8688V14.5078H13.4635Z" fill="black" stroke="black" stroke-width="0.4"/>
</svg>
