<svg width="29" height="26" viewBox="0 0 29 26" fill="none" xmlns="http://www.w3.org/2000/svg">
<path d="M1.5321 1.60602H3.74614L4.69501 5.4015M4.69501 5.4015L7.85791 18.0531H24.305L27.4679 5.4015H4.69501Z" stroke="black" stroke-width="1.4" stroke-linecap="round" stroke-linejoin="round"/>
<path d="M7.85783 24.3788C8.90592 24.3788 9.75557 23.5291 9.75557 22.481C9.75557 21.4329 8.90592 20.5833 7.85783 20.5833C6.80973 20.5833 5.96008 21.4329 5.96008 22.481C5.96008 23.5291 6.80973 24.3788 7.85783 24.3788Z" stroke="black" stroke-width="1.4" stroke-linecap="round" stroke-linejoin="round"/>
<path d="M24.3052 24.3788C25.3532 24.3788 26.2029 23.5291 26.2029 22.481C26.2029 21.4329 25.3532 20.5833 24.3052 20.5833C23.2571 20.5833 22.4074 21.4329 22.4074 22.481C22.4074 23.5291 23.2571 24.3788 24.3052 24.3788Z" stroke="black" stroke-width="1.4" stroke-linecap="round" stroke-linejoin="round"/>
</svg>
