<svg width="21" height="26" viewBox="0 0 21 26" fill="none" xmlns="http://www.w3.org/2000/svg">
<path d="M9.90702 23.622C9.90702 22.6966 9.90702 21.7988 9.90702 20.9011C9.90702 20.2917 10.094 20.1011 10.6924 20.1011C11.6746 20.1001 12.6569 20.1011 13.6381 20.1011H14.023V17.7623H15.202C15.202 18.7678 15.2158 19.7742 15.1942 20.7786C15.1873 21.1016 14.9156 21.2803 14.5347 21.2823C13.5279 21.2872 12.522 21.2843 11.5152 21.2843C11.3833 21.2843 11.2524 21.2843 11.1038 21.2843V23.624H18.1369V15.3703H17.7285C15.9727 15.3703 14.2178 15.3703 12.462 15.3703C11.8646 15.3703 11.6766 15.1777 11.6756 14.5703C11.6737 13.6952 11.6737 12.8212 11.6717 11.9461C11.6717 11.9224 11.6628 11.8987 11.6461 11.8217C11.1363 11.8217 10.6137 11.8227 10.092 11.8217C9.51432 11.8197 9.31846 11.6251 9.31846 11.0464C9.31649 9.54614 9.31846 8.04492 9.31846 6.52197H10.4887V10.6395C11.0369 10.6395 11.5595 10.6385 12.0811 10.6395C12.6579 10.6414 12.8527 10.836 12.8537 11.4157C12.8557 12.3254 12.8537 13.234 12.8537 14.1653H18.1399V8.8775H17.0012V7.69924H20.4892V8.84886H19.3367V9.29923C19.3367 14.19 19.3367 19.0799 19.3367 23.9707C19.3367 24.6689 19.1703 24.8329 18.4647 24.8329C13.149 24.8329 7.83428 24.8329 2.5186 24.8329C1.81883 24.8329 1.65546 24.6679 1.65546 23.9618C1.65546 23.2852 1.65546 22.6087 1.65546 21.8917H0.5V20.7124H3.98605V21.8719H2.85225V23.624H9.90702V23.622Z" fill="black" stroke="black" stroke-width="0.4"/>
<path d="M19.3386 3.9583H20.5V5.10594H17.0021V3.96719H18.135V2.19437H14.0505V5.10792H12.8665V2.20227H2.86012V6.88765H5.18186V5.15335H6.37373V6.85901C6.37373 8.06196 6.34617 8.08862 5.12969 8.08862C4.38268 8.08862 3.63469 8.08862 2.86209 8.08862V12.8204C2.99791 12.8204 3.12881 12.8204 3.25971 12.8204C4.63464 12.8204 6.00957 12.8194 7.3845 12.8204C7.93861 12.8204 8.1384 13.0219 8.14037 13.577C8.14332 14.4886 8.14037 15.3992 8.14037 16.3394H6.96917V14.0224H2.86406V16.9537H3.99589V18.1152H0.5V16.9666H1.65644V16.5122C1.65644 11.6333 1.65644 6.75432 1.65644 1.87536C1.65644 1.14648 1.81391 0.989441 2.54124 0.989441C7.84511 0.989441 13.149 0.989441 18.4529 0.989441C19.1792 0.989441 19.3367 1.14746 19.3367 1.87634C19.3367 2.55189 19.3367 3.22645 19.3367 3.95534L19.3386 3.9583Z" fill="black" stroke="black" stroke-width="0.4"/>
</svg>
