<svg width="23" height="22" viewBox="0 0 23 22" fill="none" xmlns="http://www.w3.org/2000/svg">
<path d="M0.349003 9.78442C0.417666 9.54908 0.46189 9.30232 0.559647 9.08079C1.00887 8.05835 1.79092 7.52282 2.87266 7.45858C3.1828 7.43997 3.4947 7.45558 3.81997 7.45558C4.13652 5.07391 5.21069 3.16773 7.11579 1.79408C8.59554 0.726624 10.2551 0.271543 12.0537 0.400022C15.6504 0.656981 18.7082 3.50214 19.1789 7.45438C19.4774 7.45438 19.78 7.44898 20.0826 7.45498C21.304 7.479 22.2967 8.2991 22.5801 9.52566C22.6249 9.72018 22.6458 9.92491 22.647 10.1254C22.6534 11.2938 22.6534 12.4621 22.6493 13.6298C22.6435 15.1355 21.5094 16.2978 20.0471 16.3032C19.6334 16.305 19.2197 16.3044 18.8059 16.3032C18.0064 16.3014 17.5072 15.7851 17.5066 14.9536C17.5054 12.7671 17.5142 10.5799 17.5037 8.39336C17.4944 6.49139 16.817 4.87519 15.4036 3.64983C13.6265 2.10868 11.5882 1.71604 9.41425 2.54935C7.25021 3.37906 5.97878 5.04449 5.57204 7.39494C5.51851 7.70293 5.49756 8.01993 5.49581 8.33332C5.48883 10.108 5.48534 11.8827 5.49407 13.658C5.50512 15.7917 6.95286 17.5832 9.00053 17.9951C9.02264 17.9399 9.04766 17.881 9.07036 17.8216C9.40844 16.921 10.2097 16.3261 11.1465 16.3087C11.9449 16.2942 12.7432 16.2918 13.5416 16.3087C14.7816 16.3333 15.7225 17.2825 15.7749 18.5648C15.7918 18.9737 15.7947 19.3952 15.719 19.7938C15.52 20.8348 14.6449 21.5799 13.6161 21.6057C12.7816 21.6267 11.9466 21.6249 11.1122 21.6075C10.1474 21.5871 9.32348 20.9363 9.03544 19.9835C8.98773 19.8256 8.91616 19.7818 8.7701 19.753C6.85918 19.3753 5.42191 18.3145 4.48682 16.55C4.39197 16.3711 4.29654 16.2948 4.09171 16.299C3.57732 16.3093 3.05479 16.3423 2.54913 16.2678C1.40862 16.1003 0.613763 15.2736 0.387408 14.1101C0.380425 14.0753 0.361223 14.0435 0.347839 14.0098C0.347839 12.602 0.347839 11.1935 0.347839 9.78562L0.349003 9.78442ZM3.79786 9.23148C3.47608 9.23148 3.20084 9.22427 2.92619 9.23328C2.42635 9.24889 2.07198 9.5941 2.06616 10.1128C2.05394 11.2962 2.0551 12.4795 2.06616 13.6622C2.07023 14.1101 2.34896 14.4589 2.76326 14.5093C3.11123 14.552 3.46793 14.5183 3.79728 14.5183L3.79786 9.23148ZM19.2267 14.5418C19.5211 14.5418 19.7888 14.549 20.0564 14.54C20.5662 14.5237 20.9264 14.1731 20.9322 13.6478C20.945 12.4735 20.9415 11.2992 20.9333 10.1248C20.9304 9.73099 20.7547 9.39418 20.38 9.30232C20.011 9.21167 19.6154 9.23508 19.2267 9.20806V14.5418ZM12.354 19.849C12.7386 19.849 13.1232 19.8556 13.5078 19.8472C13.8459 19.84 14.0612 19.6113 14.07 19.2643C14.0752 19.062 14.0752 18.8596 14.07 18.6579C14.0612 18.3169 13.8587 18.0894 13.5253 18.0851C12.7491 18.0749 11.9722 18.0749 11.1954 18.0851C10.862 18.0894 10.6595 18.3079 10.6415 18.6519C10.6316 18.8386 10.6356 19.0265 10.6391 19.2132C10.6473 19.6281 10.8614 19.8466 11.2652 19.8496C11.6283 19.8526 11.9909 19.8496 12.354 19.849Z" fill="black"/>
</svg>
