<svg width="17" height="27" viewBox="0 0 17 27" fill="none" xmlns="http://www.w3.org/2000/svg">
<path d="M14.5 1H2.5C1.94772 1 1.5 1.44772 1.5 2V6.88765C1.5 7.18878 1.6357 7.47388 1.86941 7.66377L7.3675 12.131C7.84851 12.5218 7.86183 13.2515 7.39541 13.6597L1.8415 18.5193C1.62448 18.7092 1.5 18.9836 1.5 19.2719V24.606C1.5 25.1583 1.94772 25.606 2.5 25.606H14.5C15.0523 25.606 15.5 25.1583 15.5 24.606V19.2527C15.5 18.9755 15.3849 18.7108 15.1823 18.5216L9.94913 13.6374C9.51484 13.232 9.52759 12.5397 9.97652 12.1506L15.1549 7.66268C15.3741 7.47274 15.5 7.19701 15.5 6.90699V2C15.5 1.44772 15.0523 1 14.5 1Z" stroke="black" stroke-width="1.4"/>
<path d="M5.0526 19.9321L4.05605 20.9286C3.42608 21.5586 3.87224 22.6357 4.76315 22.6357H12.3499C13.2243 22.6357 13.6776 21.5926 13.081 20.9534L12.2434 20.056C10.3131 17.9879 7.05298 17.9317 5.0526 19.9321Z" fill="black"/>
</svg>
