<svg width="33" height="36" viewBox="0 0 33 36" fill="none" xmlns="http://www.w3.org/2000/svg">
<path d="M16.7453 0.472813C20.8694 0.0906305 23.9436 4.04205 22.6092 7.92022C22.1064 9.3804 20.7683 10.0358 20.6445 11.5899C20.5453 12.8313 20.8562 14.052 20.377 15.2606C19.4103 17.6955 15.7454 17.8964 14.4611 15.6352C13.7183 14.3281 14.1171 12.9919 14.0056 11.5899C13.8866 10.0959 12.8612 9.66492 12.2696 8.46673C10.5856 5.06089 12.9481 0.824948 16.7453 0.472813ZM18.6609 10.6368C18.916 8.86863 20.6889 8.14089 20.7919 6.32481C21.0159 2.37152 15.7105 1.07942 14.154 4.6449C13.0001 7.28919 14.944 7.92961 15.753 9.85273C15.8551 10.095 15.9297 10.3805 15.9893 10.6368H18.6609ZM18.5267 12.7524H16.1234V14.1938C16.1234 14.3169 16.407 14.7507 16.5232 14.8502C16.9702 15.2333 17.7376 15.2268 18.1666 14.8192C18.2602 14.73 18.5267 14.2924 18.5267 14.1938V12.7524Z" fill="#59586C"/>
<path d="M24.9388 9.53436C25.1911 9.47802 25.5238 9.49962 25.761 9.60104C26.0605 9.72874 27.2853 10.9701 27.3987 11.2763C27.7521 12.2275 26.791 13.0548 25.8744 12.5815C25.6636 12.4726 24.5749 11.4105 24.4341 11.2021C24.0514 10.6311 24.2215 9.69588 24.9388 9.53436Z" fill="#59586C"/>
<path d="M9.03383 9.53437C9.96468 9.3259 10.6933 10.0837 10.3418 10.9758C10.2463 11.2171 9.10943 12.3805 8.86561 12.5299C7.93759 13.1017 6.88104 12.2726 7.25055 11.2753C7.37435 10.9429 8.69834 9.60855 9.03288 9.53343L9.03383 9.53437Z" fill="#59586C"/>
<path d="M5.33308 7.31545C4.77552 6.72762 5.11856 5.7116 5.94074 5.54352C6.37073 5.45525 7.60778 5.47121 8.02548 5.58671C9.0981 5.88344 8.96012 7.41311 8.0132 7.60467C7.67488 7.67322 6.27528 7.66665 5.91523 7.61406C5.72433 7.58683 5.46444 7.45349 5.33308 7.31451V7.31545Z" fill="#59586C"/>
<path d="M29.3161 7.31639C29.1914 7.45255 28.9192 7.58871 28.734 7.61594C28.3739 7.66759 26.9743 7.6751 26.636 7.60655C25.6362 7.40372 25.5785 5.78578 26.722 5.54539C27.0896 5.46745 28.3399 5.46933 28.7094 5.54539C29.5344 5.71442 29.8633 6.71917 29.3171 7.31733L29.3161 7.31639Z" fill="#59586C"/>
<path d="M26.2136 0.468095C27.0736 0.332876 27.6463 1.09818 27.3788 1.90856C27.3108 2.11327 26.0473 3.40818 25.8318 3.53401C24.935 4.05705 23.9767 3.22601 24.3065 2.22783C24.3755 2.01842 25.5086 0.862485 25.7345 0.695339C25.8819 0.587351 26.0284 0.496266 26.2136 0.468095Z" fill="#59586C"/>
<path d="M8.04723 0.468095C8.33074 0.423961 8.59913 0.474669 8.83917 0.630547C9.01967 0.747925 10.132 1.86349 10.2444 2.04472C10.8379 2.99689 9.80499 4.10963 8.81743 3.53401C8.64544 3.43353 7.48116 2.27008 7.36964 2.09167C6.98407 1.47379 7.29593 0.586412 8.04629 0.468095H8.04723Z" fill="#59586C"/>
<path d="M0.910187 31.9616C0.930851 31.7093 1.02425 31.292 1.08789 31.0347C1.49538 29.368 2.58146 28.0475 4.00063 27.1781C1.36809 24.334 3.79813 19.7105 7.60106 20.4478C10.0625 20.9243 11.4238 23.893 10.3179 26.1759C10.1394 26.5441 9.85504 26.8379 9.63022 27.1714C10.4642 27.7453 11.2031 28.3666 11.7602 29.2368C12.3727 28.4148 13.0662 27.6903 13.9539 27.179C11.7677 25.0069 12.9835 21.0606 15.931 20.4605C19.7322 19.6859 22.1887 24.3661 19.5198 27.179C20.4075 27.6903 21.101 28.4148 21.7135 29.2368C22.2706 28.4309 22.9483 27.6793 23.8435 27.2704C23.8798 27.0351 23.6319 26.9352 23.5112 26.7608C21.4341 23.7499 23.9832 19.68 27.5456 20.4715C30.4657 21.1207 31.5948 24.9993 29.4731 27.1781C31.208 28.2066 32.423 30.0409 32.5627 32.1207C32.6032 32.7268 32.6453 34.1548 32.5594 34.7143C32.4966 35.1283 32.2056 35.3247 31.8833 35.51H1.59043C1.23667 35.3213 1.09451 35.1757 0.910187 34.8134C0.966392 33.889 0.834145 32.8749 0.910187 31.9624V31.9616ZM6.58441 22.2855C4.1676 22.5462 4.20066 26.2072 6.50671 26.4485C9.68478 26.7811 9.47814 21.9731 6.58441 22.2855ZM16.4748 22.2838C13.8754 22.6325 14.1803 26.8429 17.1336 26.4434C19.5826 26.1124 19.1677 21.9215 16.4748 22.2838ZM26.4289 22.2855C23.8732 22.5614 24.0617 26.8167 27.0232 26.4425C29.5028 26.1293 29.1507 21.9909 26.4289 22.2855ZM10.8634 33.6088V32.373C10.8634 28.9397 6.66872 27.1951 4.15768 29.3654C3.46999 29.9597 2.76495 31.2505 2.76495 32.1834V33.6088H10.8634ZM20.7555 33.6088V31.9929C20.7555 31.6475 20.3918 30.7223 20.21 30.3981C18.723 27.7453 14.7523 27.747 13.2645 30.3981C13.0736 30.7393 12.719 31.6238 12.719 31.9929V33.6088H20.7563H20.7555ZM30.7087 33.6088V32.1834C30.7087 31.2582 29.9979 29.9546 29.316 29.3654C26.8041 27.1968 22.6103 28.9447 22.6103 32.373V33.6088H30.7087Z" fill="#59586C"/>
</svg>
