<svg width="35" height="38" viewBox="0 0 35 38" fill="none" xmlns="http://www.w3.org/2000/svg">
<path d="M15.8593 1.90516C19.9834 1.52297 23.0576 5.47439 21.7233 9.35256C21.2205 10.8127 19.8823 11.4682 19.7585 13.0223C19.6593 14.2637 19.9702 15.4844 19.4911 16.6929C18.5243 19.1278 14.8595 19.3288 13.5752 17.0676C12.8324 15.7605 13.2312 14.4242 13.1197 13.0223C13.0006 11.5283 11.9752 11.0973 11.3836 9.89907C9.6996 6.49323 12.0622 2.25729 15.8593 1.90516ZM17.7749 12.0692C18.0301 10.301 19.8029 9.57323 19.906 7.75716C20.1299 3.80386 14.8245 2.51177 13.268 6.07724C12.1142 8.72153 14.0581 9.36195 14.867 11.2851C14.9691 11.5273 15.0438 11.8128 15.1033 12.0692H17.7749ZM17.6407 14.1848H15.2375V15.6262C15.2375 15.7492 15.521 16.183 15.6372 16.2826C16.0842 16.6657 16.8516 16.6591 17.2807 16.2516C17.3742 16.1624 17.6407 15.7248 17.6407 15.6262V14.1848Z" fill="url(#paint0_linear_653_74)"/>
<path d="M24.0528 10.9667C24.3051 10.9104 24.6378 10.932 24.875 11.0334C25.1746 11.1611 26.3993 12.4025 26.5127 12.7086C26.8662 13.6599 25.9051 14.4871 24.9884 14.0139C24.7777 13.9049 23.689 12.8429 23.5482 12.6344C23.1654 12.0635 23.3355 11.1282 24.0528 10.9667Z" fill="url(#paint1_linear_653_74)"/>
<path d="M8.14786 10.9667C9.07872 10.7583 9.80734 11.5161 9.45579 12.4081C9.36034 12.6495 8.22346 13.8129 7.97965 13.9622C7.05162 14.5341 5.99508 13.7049 6.36459 12.7077C6.48839 12.3753 7.81238 11.0409 8.14692 10.9658L8.14786 10.9667Z" fill="url(#paint2_linear_653_74)"/>
<path d="M4.44712 8.7478C3.88955 8.15997 4.2326 7.14394 5.05478 6.97586C5.48477 6.88759 6.72182 6.90355 7.13952 7.01905C8.21213 7.31578 8.07416 8.84545 7.12724 9.03702C6.78891 9.10556 5.38932 9.09899 5.02926 9.04641C4.83837 9.01917 4.57848 8.88583 4.44712 8.74686V8.7478Z" fill="url(#paint3_linear_653_74)"/>
<path d="M28.4302 8.74873C28.3054 8.88489 28.0333 9.02105 27.848 9.04828C27.488 9.09993 26.0884 9.10744 25.7501 9.03889C24.7502 8.83606 24.6926 7.21813 25.836 6.97774C26.2037 6.8998 27.4539 6.90167 27.8235 6.97774C28.6485 7.14676 28.9773 8.15152 28.4311 8.74967L28.4302 8.74873Z" fill="url(#paint4_linear_653_74)"/>
<path d="M25.3276 1.90044C26.1876 1.76522 26.7603 2.53052 26.4929 3.3409C26.4248 3.54561 25.1613 4.84052 24.9458 4.96635C24.049 5.48939 23.0907 4.65835 23.4205 3.66017C23.4895 3.45077 24.6226 2.29483 24.8485 2.12768C24.9959 2.01969 25.1424 1.92861 25.3276 1.90044Z" fill="url(#paint5_linear_653_74)"/>
<path d="M7.16127 1.90044C7.44478 1.8563 7.71317 1.90701 7.95321 2.06289C8.13371 2.18027 9.24601 3.29583 9.35847 3.47706C9.95195 4.42923 8.91903 5.54197 7.93147 4.96635C7.75948 4.86588 6.5952 3.70243 6.48368 3.52401C6.09811 2.90613 6.40997 2.01875 7.16033 1.90044H7.16127Z" fill="url(#paint6_linear_653_74)"/>
<path d="M0.0242273 33.3939C0.0448909 33.1417 0.13829 32.7244 0.201934 32.467C0.60942 30.8003 1.6955 29.4798 3.11467 28.6105C0.482132 25.7663 2.91217 21.1428 6.7151 21.8801C9.17655 22.3567 10.5379 25.3253 9.43195 27.6082C9.25342 27.9765 8.96908 28.2702 8.74426 28.6037C9.57825 29.1776 10.3172 29.7989 10.8743 30.6691C11.4867 29.8472 12.1802 29.1226 13.0679 28.6113C10.8817 26.4393 12.0976 22.493 15.045 21.8928C18.8463 21.1183 21.3028 25.7985 18.6339 28.6113C19.5216 29.1226 20.215 29.8472 20.8275 30.6691C21.3846 29.8633 22.0624 29.1116 22.9575 28.7027C22.9939 28.4674 22.7459 28.3675 22.6252 28.1932C20.5481 25.1822 23.0972 21.1124 26.6596 21.9038C29.5798 22.5531 30.7088 26.4316 28.5871 28.6105C30.322 29.639 31.537 31.4733 31.6767 33.5531C31.7172 34.1592 31.7594 35.5872 31.6734 36.1467C31.6106 36.5606 31.3197 36.757 30.9973 36.9424H0.704473C0.350712 36.7536 0.208547 36.608 0.0242273 36.2457C0.0804323 35.3214 -0.0518147 34.3073 0.0242273 33.3948V33.3939ZM5.69845 23.7178C3.28164 23.9785 3.3147 27.6396 5.62076 27.8808C8.79882 28.2135 8.59218 23.4055 5.69845 23.7178ZM15.5889 23.7161C12.9894 24.0649 13.2944 28.2753 16.2476 27.8757C18.6967 27.5448 18.2818 23.3538 15.5889 23.7161ZM25.5429 23.7178C22.9873 23.9938 23.1757 28.249 26.1372 27.8749C28.6169 27.5617 28.2647 23.4233 25.5429 23.7178ZM9.97747 35.0412V33.8053C9.97747 30.372 5.78276 28.6274 3.27172 30.7978C2.58403 31.392 1.87899 32.6829 1.87899 33.6157V35.0412H9.97747ZM19.8695 35.0412V33.4253C19.8695 33.0799 19.5059 32.1547 19.324 31.8305C17.8371 29.1776 13.8664 29.1793 12.3786 31.8305C12.1876 32.1716 11.8331 33.0562 11.8331 33.4253V35.0412H19.8704H19.8695ZM29.8228 35.0412V33.6157C29.8228 32.6905 29.112 31.3869 28.4301 30.7978C25.9182 28.6291 21.7243 30.3771 21.7243 33.8053V35.0412H29.8228Z" fill="url(#paint7_linear_653_74)"/>
<defs>
<linearGradient id="paint0_linear_653_74" x1="8.88266" y1="18.6479" x2="27.6116" y2="9.31047" gradientUnits="userSpaceOnUse">
<stop stop-color="#4300DF"/>
<stop offset="1" stop-color="#FF001E"/>
</linearGradient>
<linearGradient id="paint1_linear_653_74" x1="22.786" y1="14.1512" x2="27.1047" y2="10.906" gradientUnits="userSpaceOnUse">
<stop stop-color="#4300DF"/>
<stop offset="1" stop-color="#FF001E"/>
</linearGradient>
<linearGradient id="paint2_linear_653_74" x1="5.72257" y1="14.1495" x2="10.0507" y2="10.8816" gradientUnits="userSpaceOnUse">
<stop stop-color="#4300DF"/>
<stop offset="1" stop-color="#FF001E"/>
</linearGradient>
<linearGradient id="paint3_linear_653_74" x1="3.52759" y1="9.08714" x2="6.4696" y2="5.32344" gradientUnits="userSpaceOnUse">
<stop stop-color="#4300DF"/>
<stop offset="1" stop-color="#FF001E"/>
</linearGradient>
<linearGradient id="paint4_linear_653_74" x1="24.344" y1="9.08866" x2="27.289" y2="5.33008" gradientUnits="userSpaceOnUse">
<stop stop-color="#4300DF"/>
<stop offset="1" stop-color="#FF001E"/>
</linearGradient>
<linearGradient id="paint5_linear_653_74" x1="22.7966" y1="5.12774" x2="27.1292" y2="1.93357" gradientUnits="userSpaceOnUse">
<stop stop-color="#4300DF"/>
<stop offset="1" stop-color="#FF001E"/>
</linearGradient>
<linearGradient id="paint6_linear_653_74" x1="5.75875" y1="5.12429" x2="10.0917" y2="1.91628" gradientUnits="userSpaceOnUse">
<stop stop-color="#4300DF"/>
<stop offset="1" stop-color="#FF001E"/>
</linearGradient>
<linearGradient id="paint7_linear_653_74" x1="-5.51717" y1="36.9424" x2="13.7093" y2="6.89272" gradientUnits="userSpaceOnUse">
<stop stop-color="#4300DF"/>
<stop offset="1" stop-color="#FF001E"/>
</linearGradient>
</defs>
</svg>
