<svg width="31" height="28" viewBox="0 0 31 28" fill="none" xmlns="http://www.w3.org/2000/svg">
<path d="M15.7739 26.1023L27.3091 14.7943C28.0165 14.1079 28.5792 13.2867 28.964 12.3792C29.3487 11.4717 29.5478 10.4963 29.5494 9.51064C29.551 8.52496 29.3551 7.54894 28.9733 6.64021C28.5915 5.73148 28.0315 4.90846 27.3263 4.21973C25.8875 2.81256 23.956 2.02292 21.9434 2.01906C19.9308 2.0152 17.9963 2.79743 16.5521 4.19907L15.7807 4.95661L15.0129 4.19907C13.5742 2.79293 11.6434 2.00393 9.63165 2.00008C7.61991 1.99622 5.68613 2.7778 4.24204 4.17841C3.53443 4.86461 2.97147 5.68562 2.5864 6.59298C2.20133 7.50034 2.00194 8.47565 2.00001 9.46133C1.99809 10.447 2.19366 11.4231 2.57519 12.332C2.95671 13.2408 3.51646 14.064 4.22138 14.753L15.7739 26.1023Z" stroke="url(#paint0_linear_609_182)" stroke-width="2.4" stroke-linecap="round" stroke-linejoin="round"/>
<defs>
<linearGradient id="paint0_linear_609_182" x1="-2.7912" y1="26.1023" x2="30.4937" y2="-2.27758" gradientUnits="userSpaceOnUse">
<stop stop-color="#4300DF"/>
<stop offset="1" stop-color="#FF001E"/>
</linearGradient>
</defs>
</svg>
