<svg width="30" height="27" viewBox="0 0 30 27" fill="none" xmlns="http://www.w3.org/2000/svg">
<path d="M14.9991 25.5677L26.5344 14.2597C27.2418 13.5733 27.8045 12.7521 28.1893 11.8446C28.574 10.9371 28.7731 9.96175 28.7747 8.97607C28.7763 7.99038 28.5804 7.01437 28.1986 6.10564C27.8168 5.19691 27.2568 4.37389 26.5516 3.68515C25.1128 2.27799 23.1813 1.48834 21.1687 1.48448C19.1561 1.48062 17.2216 2.26285 15.7773 3.66449L15.006 4.42203L14.2382 3.66449C12.7994 2.25835 10.8687 1.46936 8.85694 1.4655C6.8452 1.46164 4.91142 2.24322 3.46733 3.64383C2.75972 4.33003 2.19676 5.15105 1.81169 6.0584C1.42662 6.96576 1.22723 7.94107 1.2253 8.92676C1.22338 9.91244 1.41895 10.8885 1.80047 11.7974C2.182 12.7062 2.74175 13.5294 3.44667 14.2184L14.9991 25.5677Z" stroke="#59586C" stroke-width="2.4" stroke-linecap="round" stroke-linejoin="round"/>
</svg>
