<svg width="32" height="32" viewBox="0 0 32 32" fill="none" xmlns="http://www.w3.org/2000/svg">
<path d="M9.02822 18.9955L12.2513 15.7479C12.5149 15.4824 12.8724 15.3332 13.2451 15.3332C13.6179 15.3332 13.9753 15.4824 14.2389 15.7479L16.4683 17.9941C16.7319 18.2597 17.0893 18.4088 17.462 18.4088C17.8348 18.4088 18.1922 18.2597 18.4558 17.9941L23.0846 13.3303M23.0846 13.3303V16.871M23.0846 13.3303H19.5705" stroke="url(#paint0_linear_653_70)" stroke-width="2.4" stroke-linecap="round" stroke-linejoin="round"/>
<path d="M30.1128 16.1629C30.1128 22.8392 30.1128 26.1774 28.0535 28.2509C25.9971 30.3257 22.6826 30.3257 16.0564 30.3257C9.4302 30.3257 6.11711 30.3257 4.05785 28.2509C2 26.1788 2 22.8392 2 16.1629C2 9.48649 2 6.1483 4.05785 4.07344C6.11852 2 9.4302 2 16.0564 2C22.6826 2 25.9956 2 28.0535 4.07344C29.4226 5.45291 29.8808 7.3918 30.0355 10.4977" stroke="url(#paint1_linear_653_70)" stroke-width="2.4" stroke-linecap="round"/>
<defs>
<linearGradient id="paint0_linear_653_70" x1="6.58363" y1="18.9955" x2="13.2107" y2="6.72974" gradientUnits="userSpaceOnUse">
<stop stop-color="#4300DF"/>
<stop offset="1" stop-color="#FF001E"/>
</linearGradient>
<linearGradient id="paint1_linear_653_70" x1="-2.88918" y1="30.3257" x2="35.0012" y2="2.27411" gradientUnits="userSpaceOnUse">
<stop stop-color="#4300DF"/>
<stop offset="1" stop-color="#FF001E"/>
</linearGradient>
</defs>
</svg>
