<svg width="32" height="38" viewBox="0 0 32 38" fill="none" xmlns="http://www.w3.org/2000/svg">
<path fill-rule="evenodd" clip-rule="evenodd" d="M24.9223 18.7327H3.12212V7.80529H24.9223L28.5643 13.269L24.9223 18.7327ZM31.7395 12.4026L27.0563 5.37785C26.7667 4.94856 26.2797 4.68318 25.7575 4.68318H16.0009V1.56106C16.0009 0.702477 15.3015 0 14.4398 0C13.5781 0 12.8787 0.702477 12.8787 1.56106V4.68318H1.56106C0.699355 4.68318 0 5.38565 0 6.24424V20.2938C0 21.1602 0.699355 21.8548 1.56106 21.8548H12.8787V34.3433H10.7565C9.89477 34.3433 9.19542 35.0458 9.19542 35.9044C9.19542 36.7708 9.89477 37.4654 10.7565 37.4654H18.1231C18.9848 37.4654 19.6842 36.7708 19.6842 35.9044C19.6842 35.0458 18.9848 34.3433 18.1231 34.3433H16.0009V21.8548H25.7575C26.2797 21.8548 26.7667 21.5973 27.0563 21.1602L31.7395 14.1354C32.0891 13.6124 32.0891 12.9256 31.7395 12.4026Z" fill="url(#paint0_linear_653_65)"/>
<defs>
<linearGradient id="paint0_linear_653_65" x1="-5.56552" y1="37.4654" x2="41.9263" y2="7.2054" gradientUnits="userSpaceOnUse">
<stop stop-color="#4300DF"/>
<stop offset="1" stop-color="#FF001E"/>
</linearGradient>
</defs>
</svg>
