<svg width="34" height="39" viewBox="0 0 34 39" fill="none" xmlns="http://www.w3.org/2000/svg">
<path fill-rule="evenodd" clip-rule="evenodd" d="M25.9215 19.7327H4.12127V8.80529H25.9215L29.5634 14.269L25.9215 19.7327ZM32.7386 13.4026L28.0554 6.37785C27.7659 5.94856 27.2788 5.68318 26.7566 5.68318H17V2.56106C17 1.70248 16.3006 1 15.4389 1C14.5772 1 13.8779 1.70248 13.8779 2.56106V5.68318H2.5602C1.6985 5.68318 0.999146 6.38565 0.999146 7.24424V21.2938C0.999146 22.1602 1.6985 22.8548 2.5602 22.8548H13.8779V35.3433H11.7556C10.8939 35.3433 10.1946 36.0458 10.1946 36.9044C10.1946 37.7708 10.8939 38.4654 11.7556 38.4654H19.1223C19.984 38.4654 20.6833 37.7708 20.6833 36.9044C20.6833 36.0458 19.984 35.3433 19.1223 35.3433H17V22.8548H26.7566C27.2788 22.8548 27.7659 22.5973 28.0554 22.1602L32.7386 15.1354C33.0883 14.6124 33.0883 13.9256 32.7386 13.4026Z" fill="#59586C"/>
<path d="M25.9215 19.7327V20.2327H26.1891L26.3375 20.01L25.9215 19.7327ZM4.12127 19.7327H3.62127V20.2327H4.12127V19.7327ZM4.12127 8.80529V8.30529H3.62127V8.80529H4.12127ZM25.9215 8.80529L26.3375 8.52797L26.1891 8.30529H25.9215V8.80529ZM29.5634 14.269L29.9795 14.5463L30.1643 14.269L29.9795 13.9917L29.5634 14.269ZM28.0554 6.37785L28.4715 6.1005L28.4699 6.09824L28.0554 6.37785ZM17 5.68318H16.5V6.18318H17V5.68318ZM13.8779 5.68318V6.18318H14.3779V5.68318H13.8779ZM13.8779 22.8548H14.3779V22.3548H13.8779V22.8548ZM13.8779 35.3433V35.8433H14.3779V35.3433H13.8779ZM17 35.3433H16.5V35.8433H17V35.3433ZM17 22.8548V22.3548H16.5V22.8548H17ZM28.0554 22.1602L27.6394 21.8828L27.6386 21.884L28.0554 22.1602ZM32.7386 15.1354L32.323 14.8575L32.3226 14.858L32.7386 15.1354ZM25.9215 19.2327H4.12127V20.2327H25.9215V19.2327ZM4.62127 19.7327V8.80529H3.62127V19.7327H4.62127ZM4.12127 9.30529H25.9215V8.30529H4.12127V9.30529ZM25.5054 9.08262L29.1474 14.5463L29.9795 13.9917L26.3375 8.52797L25.5054 9.08262ZM29.1474 13.9917L25.5054 19.4554L26.3375 20.01L29.9795 14.5463L29.1474 13.9917ZM33.1546 13.1253L28.4715 6.1005L27.6394 6.6552L32.3226 13.68L33.1546 13.1253ZM28.4699 6.09824C28.0894 5.53404 27.4485 5.18318 26.7566 5.18318V6.18318C27.1091 6.18318 27.4423 6.36308 27.6409 6.65746L28.4699 6.09824ZM26.7566 5.18318H17V6.18318H26.7566V5.18318ZM17.5 5.68318V2.56106H16.5V5.68318H17.5ZM17.5 2.56106C17.5 1.42699 16.5774 0.5 15.4389 0.5V1.5C16.0239 1.5 16.5 1.97797 16.5 2.56106H17.5ZM15.4389 0.5C14.3004 0.5 13.3779 1.42699 13.3779 2.56106H14.3779C14.3779 1.97797 14.854 1.5 15.4389 1.5V0.5ZM13.3779 2.56106V5.68318H14.3779V2.56106H13.3779ZM13.8779 5.18318H2.5602V6.18318H13.8779V5.18318ZM2.5602 5.18318C1.42171 5.18318 0.499146 6.11016 0.499146 7.24424H1.49915C1.49915 6.66115 1.97529 6.18318 2.5602 6.18318V5.18318ZM0.499146 7.24424V21.2938H1.49915V7.24424H0.499146ZM0.499146 21.2938C0.499146 22.4373 1.42334 23.3548 2.5602 23.3548V22.3548C1.97366 22.3548 1.49915 21.883 1.49915 21.2938H0.499146ZM2.5602 23.3548H13.8779V22.3548H2.5602V23.3548ZM13.3779 22.8548V35.3433H14.3779V22.8548H13.3779ZM13.8779 34.8433H11.7556V35.8433H13.8779V34.8433ZM11.7556 34.8433C10.6171 34.8433 9.69457 35.7703 9.69457 36.9044H10.6946C10.6946 36.3213 11.1707 35.8433 11.7556 35.8433V34.8433ZM9.69457 36.9044C9.69457 38.0479 10.6188 38.9654 11.7556 38.9654V37.9654C11.1691 37.9654 10.6946 37.4936 10.6946 36.9044H9.69457ZM11.7556 38.9654H19.1223V37.9654H11.7556V38.9654ZM19.1223 38.9654C20.2591 38.9654 21.1833 38.0479 21.1833 36.9044H20.1833C20.1833 37.4936 19.7088 37.9654 19.1223 37.9654V38.9654ZM21.1833 36.9044C21.1833 35.7703 20.2608 34.8433 19.1223 34.8433V35.8433C19.7072 35.8433 20.1833 36.3213 20.1833 36.9044H21.1833ZM19.1223 34.8433H17V35.8433H19.1223V34.8433ZM17.5 35.3433V22.8548H16.5V35.3433H17.5ZM17 23.3548H26.7566V22.3548H17V23.3548ZM26.7566 23.3548C27.4442 23.3548 28.0888 23.0151 28.4723 22.4363L27.6386 21.884C27.4429 22.1794 27.1134 22.3548 26.7566 22.3548V23.3548ZM28.4715 22.4375L33.1546 15.4127L32.3226 14.858L27.6394 21.8828L28.4715 22.4375ZM33.1542 15.4133C33.6164 14.7221 33.6164 13.8159 33.1542 13.1247L32.323 13.6805C32.5602 14.0353 32.5602 14.5027 32.323 14.8575L33.1542 15.4133Z" fill="black"/>
</svg>
