<svg width="27" height="25" viewBox="0 0 27 25" fill="none" xmlns="http://www.w3.org/2000/svg">
<path d="M19.0327 2.5348C17.9002 1.9119 16.6624 1.46578 15.366 1.22013C13.0333 0.7781 10.6154 1.00496 8.41802 1.87203C6.22066 2.73909 4.34254 4.20742 3.02116 6.09132C1.69979 7.97522 0.994507 10.1901 0.994507 12.4558C0.994507 14.3499 1.47553 16.1344 2.33067 17.709L0.994507 23.9117L7.50562 22.6388C9.15712 23.4522 11.0331 23.9117 13.02 23.9117C15.3984 23.9117 17.7234 23.2398 19.701 21.981C21.6785 20.7222 23.2199 18.9331 24.13 16.8398C24.7373 15.4432 25.0454 13.953 25.0454 12.4558C25.0454 12.0642 25.0243 11.672 24.982 11.281" stroke="black" stroke-width="2" stroke-linecap="round" stroke-linejoin="round"/>
<path d="M25.7134 3.86401L13.354 15.638L8.51038 11.0239" stroke="black" stroke-width="2" stroke-linecap="round" stroke-linejoin="round"/>
</svg>
