<svg width="22" height="21" viewBox="0 0 22 21" fill="none" xmlns="http://www.w3.org/2000/svg">
<path d="M15.5946 2.2418C14.6783 1.73782 13.6769 1.37686 12.6279 1.1781C10.7406 0.820461 8.78422 1.00402 7.00634 1.70556C5.22846 2.40709 3.70888 3.59511 2.63976 5.11937C1.57064 6.64363 1 8.43567 1 10.2689C1 11.8013 1.38919 13.2452 2.08108 14.5192L1 19.5378L6.26813 18.5079C7.60435 19.166 9.12219 19.5378 10.7298 19.5378C12.6541 19.5378 14.5353 18.9941 16.1353 17.9757C17.7354 16.9572 18.9825 15.5096 19.7189 13.8159C20.2102 12.6859 20.4595 11.4802 20.4595 10.2689C20.4595 9.95199 20.4425 9.6347 20.4082 9.31829M21 3.31726L11 12.8436L7.08107 9.11031" stroke="black" stroke-width="2" stroke-linecap="round" stroke-linejoin="round"/>
</svg>
