<svg width="20" height="20" viewBox="0 0 20 20" fill="none" xmlns="http://www.w3.org/2000/svg">
<path d="M10 19.899H9.99987C8.41988 19.9012 6.86251 19.5236 5.45892 18.7982L5.424 18.7802L5.38615 18.7907L1.56015 19.8577L1.56013 19.8577C1.36375 19.9125 1.15632 19.9141 0.959112 19.8623C0.761903 19.8106 0.581996 19.7073 0.437826 19.5632C0.293658 19.419 0.19041 19.2391 0.13866 19.0419C0.0869115 18.8447 0.0885221 18.6373 0.143327 18.441L1.21132 14.6182L1.22191 14.5803L1.20381 14.5453C0.476541 13.1405 0.097952 11.5814 0.100008 9.99963V9.9995C0.100008 4.53201 4.53223 0.1 10 0.1C15.4678 0.1 19.9 4.53201 19.9 9.9995C19.9 15.467 15.4678 19.899 10 19.899ZM10 1.39992H10C7.71915 1.39992 5.5317 2.30595 3.91889 3.91868C2.30608 5.53141 1.40001 7.71875 1.40001 9.9995C1.40001 11.4865 1.7774 12.9162 2.48569 14.185L2.61565 14.4189L1.51469 18.3632L1.467 18.5341L1.63787 18.4864L5.58533 17.3855L5.81942 17.5155C6.96714 18.1536 8.24576 18.5204 9.55722 18.5877C10.8687 18.6551 12.1782 18.4213 13.3852 17.9041C14.5923 17.387 15.6649 16.6003 16.5208 15.6044C17.3767 14.6085 17.9931 13.4298 18.3229 12.1588C18.6526 10.8877 18.6868 9.55803 18.423 8.27168C18.1592 6.98533 17.6042 5.77648 16.8007 4.73784C15.9973 3.69919 14.9666 2.85833 13.7877 2.27973C12.6089 1.70114 11.3132 1.40018 10 1.39992ZM10 4.59977C10.1724 4.59977 10.3377 4.66825 10.4596 4.79014C10.5815 4.91204 10.65 5.07736 10.65 5.24974L10.65 11.4994C10.65 11.6718 10.5815 11.8371 10.4596 11.959C10.3377 12.0809 10.1724 12.1494 10 12.1494C9.82761 12.1494 9.66228 12.0809 9.54038 11.959C9.41849 11.8371 9.35001 11.6718 9.35001 11.4994L9.35001 5.24974C9.35001 5.07736 9.41849 4.91204 9.54038 4.79014C9.66228 4.66825 9.82761 4.59977 10 4.59977ZM10.6364 15.1336C10.4676 15.3024 10.2387 15.3972 10 15.3972C9.76131 15.3972 9.53239 15.3024 9.36361 15.1336C9.19483 14.9649 9.10001 14.7359 9.10001 14.4973C9.10001 14.2586 9.19483 14.0297 9.36361 13.8609C9.53239 13.6921 9.76131 13.5973 10 13.5973C10.2387 13.5973 10.4676 13.6921 10.6364 13.8609C10.8052 14.0297 10.9 14.2586 10.9 14.4973C10.9 14.7359 10.8052 14.9649 10.6364 15.1336Z" fill="black" stroke="black" stroke-width="0.2"/>
</svg>
