<svg width="31" height="31" viewBox="0 0 31 31" fill="none" xmlns="http://www.w3.org/2000/svg">
<path d="M15.5 7.52467C15.7884 7.52467 16.065 7.63924 16.269 7.84318C16.4729 8.04711 16.5875 8.32371 16.5875 8.61212V17.6742C16.5875 17.9626 16.4729 18.2392 16.269 18.4431C16.065 18.647 15.7884 18.7616 15.5 18.7616C15.2116 18.7616 14.935 18.647 14.731 18.4431C14.5271 18.2392 14.4125 17.9626 14.4125 17.6742V8.61212C14.4125 8.32371 14.5271 8.04711 14.731 7.84318C14.935 7.63924 15.2116 7.52467 15.5 7.52467ZM15.5 23.471C15.8846 23.471 16.2534 23.3182 16.5253 23.0463C16.7972 22.7744 16.95 22.4056 16.95 22.021C16.95 21.6365 16.7972 21.2677 16.5253 20.9958C16.2534 20.7239 15.8846 20.5711 15.5 20.5711C15.1154 20.5711 14.7466 20.7239 14.4747 20.9958C14.2028 21.2677 14.05 21.6365 14.05 22.021C14.05 22.4056 14.2028 22.7744 14.4747 23.0463C14.7466 23.3182 15.1154 23.471 15.5 23.471ZM15.5 1C23.5084 1 30 7.49132 30 15.4993C30 23.5072 23.5084 29.9985 15.5 29.9985C13.1858 30.0017 10.9047 29.4488 8.84886 28.3862L3.30116 29.9333C2.99165 30.0197 2.66473 30.0222 2.35391 29.9407C2.04309 29.8591 1.75954 29.6964 1.53232 29.4692C1.3051 29.2419 1.14237 28.9584 1.06081 28.6476C0.979245 28.3368 0.981783 28.0099 1.06816 27.7004L2.61676 22.1573C1.55152 20.0998 0.997 17.8162 1.00001 15.4993C1.00001 7.49132 7.49166 1 15.5 1ZM15.5 3.17489C12.2312 3.17489 9.0963 4.47335 6.78492 6.78462C4.47353 9.09589 3.17501 12.2306 3.17501 15.4993C3.17501 17.6307 3.71586 19.6794 4.73086 21.4976L4.94836 21.8891L3.33596 27.6656L9.11711 26.0533L9.50861 26.2708C11.1535 27.1852 12.9859 27.7109 14.8654 27.8074C16.7449 27.904 18.6216 27.5688 20.3515 26.8277C22.0814 26.0866 23.6186 24.9591 24.8452 23.5319C26.0718 22.1046 26.9552 20.4154 27.4278 18.5938C27.9003 16.7722 27.9494 14.8666 27.5713 13.0231C27.1932 11.1796 26.3979 9.44711 25.2464 7.95859C24.0949 6.47006 22.6178 5.26499 20.9283 4.43578C19.2389 3.60657 17.382 3.17525 15.5 3.17489Z" fill="url(#paint0_linear_641_634)" stroke="url(#paint1_linear_641_634)" stroke-width="0.4"/>
<defs>
<linearGradient id="paint0_linear_641_634" x1="-4.04348" y1="30" x2="34.8333" y2="1" gradientUnits="userSpaceOnUse">
<stop stop-color="#4300DF"/>
<stop offset="1" stop-color="#FF001E"/>
</linearGradient>
<linearGradient id="paint1_linear_641_634" x1="-4.04348" y1="30" x2="34.8333" y2="1" gradientUnits="userSpaceOnUse">
<stop stop-color="#4300DF"/>
<stop offset="1" stop-color="#FF001E"/>
</linearGradient>
</defs>
</svg>
