<svg width="38" height="37" viewBox="0 0 38 37" fill="none" xmlns="http://www.w3.org/2000/svg">
<g filter="url(#filter0_d_609_181)">
<path d="M19 6.52467C19.2884 6.52467 19.565 6.63924 19.769 6.84318C19.9729 7.04711 20.0875 7.32371 20.0875 7.61212V16.6742C20.0875 16.9626 19.9729 17.2392 19.769 17.4431C19.565 17.647 19.2884 17.7616 19 17.7616C18.7116 17.7616 18.435 17.647 18.231 17.4431C18.0271 17.2392 17.9125 16.9626 17.9125 16.6742V7.61212C17.9125 7.32371 18.0271 7.04711 18.231 6.84318C18.435 6.63924 18.7116 6.52467 19 6.52467ZM19 22.471C19.3846 22.471 19.7534 22.3182 20.0253 22.0463C20.2972 21.7744 20.45 21.4056 20.45 21.021C20.45 20.6365 20.2972 20.2677 20.0253 19.9958C19.7534 19.7239 19.3846 19.5711 19 19.5711C18.6154 19.5711 18.2466 19.7239 17.9747 19.9958C17.7028 20.2677 17.55 20.6365 17.55 21.021C17.55 21.4056 17.7028 21.7744 17.9747 22.0463C18.2466 22.3182 18.6154 22.471 19 22.471ZM19 0C27.0084 0 33.5 6.49132 33.5 14.4993C33.5 22.5072 27.0084 28.9985 19 28.9985C16.6858 29.0017 14.4047 28.4488 12.3489 27.3862L6.80116 28.9333C6.49165 29.0197 6.16473 29.0222 5.85391 28.9407C5.54309 28.8591 5.25954 28.6964 5.03232 28.4692C4.8051 28.2419 4.64237 27.9584 4.56081 27.6476C4.47924 27.3368 4.48178 27.0099 4.56816 26.7004L6.11676 21.1573C5.05152 19.0998 4.497 16.8162 4.50001 14.4993C4.50001 6.49132 10.9917 0 19 0ZM19 2.17489C15.7312 2.17489 12.5963 3.47335 10.2849 5.78462C7.97353 8.09589 6.67501 11.2306 6.67501 14.4993C6.67501 16.6307 7.21586 18.6794 8.23086 20.4976L8.44836 20.8891L6.83596 26.6656L12.6171 25.0533L13.0086 25.2708C14.6535 26.1852 16.4859 26.7109 18.3654 26.8074C20.2449 26.904 22.1216 26.5688 23.8515 25.8277C25.5814 25.0866 27.1186 23.9591 28.3452 22.5319C29.5718 21.1046 30.4552 19.4154 30.9278 17.5938C31.4003 15.7722 31.4494 13.8666 31.0713 12.0231C30.6932 10.1796 29.8979 8.44711 28.7464 6.95859C27.5949 5.47006 26.1178 4.26499 24.4283 3.43578C22.7389 2.60657 20.882 2.17525 19 2.17489Z" fill="#59586C"/>
</g>
<defs>
<filter id="filter0_d_609_181" x="0.5" y="0" width="37" height="37" filterUnits="userSpaceOnUse" color-interpolation-filters="sRGB">
<feFlood flood-opacity="0" result="BackgroundImageFix"/>
<feColorMatrix in="SourceAlpha" type="matrix" values="0 0 0 0 0 0 0 0 0 0 0 0 0 0 0 0 0 0 127 0" result="hardAlpha"/>
<feOffset dy="4"/>
<feGaussianBlur stdDeviation="2"/>
<feComposite in2="hardAlpha" operator="out"/>
<feColorMatrix type="matrix" values="0 0 0 0 0 0 0 0 0 0 0 0 0 0 0 0 0 0 0.25 0"/>
<feBlend mode="normal" in2="BackgroundImageFix" result="effect1_dropShadow_609_181"/>
<feBlend mode="normal" in="SourceGraphic" in2="effect1_dropShadow_609_181" result="shape"/>
</filter>
</defs>
</svg>
