<svg width="35" height="34" viewBox="0 0 35 34" fill="none" xmlns="http://www.w3.org/2000/svg">
<path d="M34.7849 16.506L30.8057 10.5973L32.786 3.72198C32.9093 3.29074 32.7885 2.82689 32.4676 2.51068C32.148 2.19325 31.6834 2.07579 31.2467 2.2019L24.3358 4.20617L18.3626 0.211127C17.9866 -0.0399061 17.5047 -0.0700501 17.1058 0.136652C16.7044 0.340892 16.4467 0.746875 16.4318 1.19411L16.2175 8.34316L10.546 12.7491C10.1905 13.0253 10.0151 13.4726 10.0864 13.9149C10.1576 14.3572 10.4661 14.7256 10.8922 14.877L16.2138 16.7717C16.1778 16.8 16.14 16.8253 16.1066 16.8585L0.362824 31.8998C-0.120943 32.3802 -0.120943 33.159 0.362824 33.6395C0.605018 33.88 0.921555 34 1.2387 34C1.55584 34 1.87238 33.88 2.11457 33.6395L17.8583 18.5983C17.9383 18.5189 18.0002 18.4291 18.0535 18.3362L20.136 24.0095C20.2121 24.2161 20.3426 24.3988 20.5138 24.5384C20.6851 24.6781 20.8908 24.7697 21.1097 24.8037C21.1727 24.8133 21.2362 24.818 21.2999 24.8178C21.4891 24.8176 21.6758 24.7744 21.8456 24.6916C22.0154 24.6087 22.1639 24.4884 22.2798 24.3398L26.6845 18.6813L33.8042 18.4291C34.2558 18.4137 34.6622 18.1553 34.8666 17.7549C35.0704 17.3556 35.0388 16.8764 34.7849 16.506ZM26.0176 16.2434C25.6496 16.2557 25.3065 16.4311 25.081 16.7202L21.6946 21.069L19.7985 15.9045C19.6728 15.5606 19.399 15.2918 19.0521 15.1681L13.8415 13.3127L18.2016 9.92676C18.4921 9.70099 18.665 9.35956 18.6773 8.99414L18.8421 3.49809L23.4333 6.56909C23.5843 6.66959 23.7555 6.73608 23.9351 6.76392C24.1146 6.79176 24.2982 6.78026 24.4728 6.73023L29.7862 5.18861L28.2631 10.4743C28.2135 10.6481 28.2028 10.8306 28.2318 11.0089C28.2608 11.1872 28.3288 11.3571 28.4309 11.5065L31.5498 16.0484L26.0176 16.2434Z" fill="url(#paint0_linear_653_73)"/>
<defs>
<linearGradient id="paint0_linear_653_73" x1="-6.08696" y1="34" x2="39.853" y2="-1.27664" gradientUnits="userSpaceOnUse">
<stop stop-color="#4300DF"/>
<stop offset="1" stop-color="#FF001E"/>
</linearGradient>
</defs>
</svg>
