<svg width="36" height="35" viewBox="0 0 36 35" fill="none" xmlns="http://www.w3.org/2000/svg">
<path d="M35.2849 17.0737L31.3057 11.1649L33.286 4.28964C33.4093 3.85839 33.2885 3.39454 32.9676 3.07834C32.648 2.76091 32.1834 2.64344 31.7467 2.76956L24.8358 4.77382L18.8626 0.778785C18.4866 0.527751 18.0047 0.497607 17.6058 0.704309C17.2044 0.90855 16.9467 1.31453 16.9318 1.76177L16.7175 8.91082L11.046 13.3168C10.6905 13.593 10.5151 14.0402 10.5864 14.4825C10.6576 14.9249 10.9661 15.2933 11.3922 15.4446L16.7138 17.3394C16.6778 17.3677 16.64 17.393 16.6066 17.4262L0.862824 32.4674C0.379057 32.9479 0.379057 33.7267 0.862824 34.2072C1.10502 34.4477 1.42155 34.5677 1.7387 34.5677C2.05584 34.5677 2.37238 34.4477 2.61457 34.2072L18.3583 19.166C18.4383 19.0866 18.5002 18.9968 18.5535 18.9039L20.636 24.5771C20.7121 24.7838 20.8426 24.9664 21.0138 25.1061C21.1851 25.2457 21.3908 25.3373 21.6097 25.3713C21.6727 25.3809 21.7362 25.3857 21.7999 25.3855C21.9891 25.3853 22.1758 25.3421 22.3456 25.2592C22.5154 25.1764 22.6639 25.0561 22.7798 24.9074L27.1845 19.249L34.3042 18.9967C34.7558 18.9814 35.1622 18.723 35.3666 18.3225C35.5704 17.9233 35.5388 17.444 35.2849 17.0737ZM26.5176 16.8111C26.1496 16.8234 25.8065 16.9988 25.581 17.2879L22.1946 21.6366L20.2985 16.4722C20.1728 16.1283 19.899 15.8594 19.5521 15.7358L14.3415 13.8804L18.7016 10.4944C18.9921 10.2686 19.165 9.92722 19.1773 9.5618L19.3421 4.06575L23.9333 7.13674C24.0843 7.23724 24.2555 7.30374 24.4351 7.33158C24.6146 7.35941 24.7982 7.34791 24.9728 7.29788L30.2862 5.75627L28.7631 11.0419C28.7135 11.2157 28.7028 11.3982 28.7318 11.5765C28.7608 11.7549 28.8288 11.9247 28.9309 12.0742L32.0498 16.6161L26.5176 16.8111Z" fill="#59586C"/>
</svg>
