<svg width="26" height="31" viewBox="0 0 26 31" fill="none" xmlns="http://www.w3.org/2000/svg">
<path d="M13 27.9931H13.0002C15.6373 27.9902 18.1661 26.9553 20.0316 25.1145C21.8972 23.2736 22.9471 20.7772 22.95 18.1726V18.1724C22.95 16.2295 22.3661 14.3304 21.2724 12.7153C20.1788 11.1003 18.6247 9.8419 16.8068 9.09892C14.989 8.35595 12.9889 8.1616 11.0594 8.54033C9.12975 8.91906 7.35694 9.85395 5.96524 11.2272C4.57351 12.6005 3.62542 14.3504 3.24129 16.256C2.85716 18.1615 3.05434 20.1367 3.80777 21.9315C4.56119 23.7263 5.83688 25.2599 7.47311 26.3387C9.1093 27.4175 11.0327 27.9931 13 27.9931ZM17.8006 12.9042L17.8011 12.9047C17.9339 13.0352 18.039 13.1902 18.1107 13.3606C18.1824 13.531 18.2193 13.7135 18.2193 13.8979C18.2193 14.0822 18.1824 14.2648 18.1107 14.4352C18.039 14.6056 17.9339 14.7605 17.8011 14.8911L17.8009 14.8913L14.0092 18.6327C13.7416 18.8967 13.3782 19.0455 12.9986 19.0455C12.6191 19.0455 12.2557 18.8967 11.9881 18.6327C11.7206 18.3687 11.5708 18.0114 11.5708 17.6393C11.5708 17.2672 11.7206 16.9098 11.9881 16.6459L15.7797 12.9045L15.78 12.9042C15.9123 12.7733 16.0696 12.6692 16.243 12.5982C16.4164 12.5271 16.6024 12.4905 16.7903 12.4905C16.9782 12.4905 17.1642 12.5271 17.3377 12.5982C17.5111 12.6692 17.6684 12.7733 17.8006 12.9042ZM5.88768 7.67364C7.99264 6.2858 10.4677 5.54487 12.9998 5.54483C16.3943 5.54866 19.6481 6.88095 22.0476 9.2486C24.4469 11.6162 25.7961 14.8256 25.8 18.1726C25.8 20.6695 25.0496 23.1104 23.6435 25.1869C22.2373 27.2635 20.2384 28.8823 17.8992 29.8384C15.56 30.7945 12.9858 31.0447 10.5023 30.5573C8.01888 30.0698 5.73804 28.8667 3.94809 27.1005C2.15818 25.3343 0.939537 23.0844 0.445853 20.6354C-0.0478269 18.1864 0.205523 15.648 1.17398 13.3409C2.14245 11.0338 3.78269 9.0615 5.88768 7.67364ZM8.325 1.60345C8.325 1.2321 8.47448 0.875411 8.74143 0.612001C9.00847 0.348503 9.37122 0.2 9.75 0.2H16.25C16.6288 0.2 16.9915 0.348503 17.2586 0.612001C17.5255 0.875411 17.675 1.2321 17.675 1.60345C17.675 1.9748 17.5255 2.33148 17.2586 2.59489C16.9915 2.85839 16.6288 3.0069 16.25 3.0069H9.75C9.37122 3.0069 9.00847 2.85839 8.74143 2.59489C8.47448 2.33149 8.325 1.9748 8.325 1.60345Z" fill="black" stroke="white" stroke-width="0.4"/>
</svg>
